<svg width="466.000000" height="169.000000" viewBox="0 0 466 169" fill="none" xmlns="http://www.w3.org/2000/svg" xmlns:xlink="http://www.w3.org/1999/xlink">
	<desc>
			Created with Pixso.
	</desc>
	<defs>
		<clipPath id="clip15_51">
			<rect id="wysiwyg" rx="0.000000" width="31.000000" height="31.000000" transform="translate(0.500000 90.500000)" fill="white" fill-opacity="0"/>
		</clipPath>
		<clipPath id="clip15_32">
			<rect id="disk" rx="0.000000" width="31.000000" height="31.000000" transform="translate(0.500000 43.500000)" fill="white" fill-opacity="0"/>
		</clipPath>
		<clipPath id="clip15_45">
			<rect id="collections" rx="0.000000" width="31.000000" height="31.000000" transform="translate(0.500000 137.500000)" fill="white" fill-opacity="0"/>
		</clipPath>
	</defs>
	<path id="Футляр с кодом для загрузки игры и дисками (pc)" d="M434.86 103.99Q434.33 105.81 434.33 107.8Q434.33 111.36 435.85 114.07Q436.11 114.52 436.4 114.95Q437.47 116.48 438.64 117.13L438.97 116.13Q437.94 115.29 437.2 113.8Q435.96 111.3 435.96 107.91L435.97 107.16Q436.04 104.65 436.87 102.63Q437.69 100.61 438.97 99.63L438.64 98.55Q437.5 99.17 436.45 100.66Q436.3 100.87 436.17 101.08Q435.32 102.41 434.86 103.99ZM463.3 111.65Q463.82 109.85 463.82 107.89Q463.82 105.82 463.29 104.01Q462.9 102.65 462.21 101.46Q461.98 101.07 461.72 100.7Q460.67 99.2 459.51 98.55L459.17 99.55Q460.03 100.25 460.72 101.51Q461.41 102.77 461.8 104.35Q462.18 105.94 462.18 107.78L462.18 108.06Q462.17 110.73 461.34 112.91Q460.52 115.1 459.17 116.13L459.51 117.13Q460.67 116.48 461.73 114.96Q462.17 114.33 462.52 113.64Q463 112.69 463.3 111.65ZM50.07 101.48L49.8 101.48L49.8 99.67L48.16 99.67L48.16 101.48L47.92 101.48Q46.8 101.48 45.84 101.87Q45.54 101.99 45.25 102.15Q44.59 102.52 44.09 103.04Q43.68 103.47 43.39 104Q43.26 104.22 43.16 104.45Q42.72 105.45 42.72 106.64Q42.72 107.83 43.16 108.83Q43.26 109.06 43.39 109.29Q43.68 109.81 44.09 110.24Q44.59 110.76 45.25 111.13Q45.54 111.29 45.84 111.41Q46.8 111.8 47.92 111.8L48.16 111.8L48.16 113.52L49.8 113.52L49.8 111.8L50.11 111.8Q51.2 111.79 52.14 111.4Q52.44 111.28 52.73 111.12Q53.29 110.8 53.73 110.37Q54.22 109.89 54.57 109.27Q54.73 108.99 54.85 108.69Q55.24 107.74 55.24 106.62Q55.24 105.5 54.84 104.54Q54.72 104.26 54.58 104Q54.28 103.48 53.88 103.05Q53.38 102.53 52.72 102.16Q52.39 101.98 52.05 101.84Q51.13 101.49 50.07 101.48ZM45.81 103.39Q46.67 102.81 47.92 102.81L48.16 102.81L48.16 110.46L47.94 110.46Q46.61 110.46 45.73 109.84Q45.5 109.67 45.3 109.46Q45.23 109.39 45.17 109.31Q44.34 108.33 44.34 106.64Q44.34 104.99 45.15 104Q45.22 103.91 45.3 103.82Q45.54 103.58 45.81 103.39ZM49.8 110.46L49.8 102.81L50.01 102.81Q51.38 102.81 52.26 103.47Q52.48 103.63 52.67 103.84Q52.76 103.94 52.85 104.05Q53.61 105.04 53.61 106.62Q53.61 108.24 52.83 109.25Q52.75 109.34 52.67 109.43Q52.45 109.67 52.19 109.86Q51.33 110.46 50.05 110.46L49.8 110.46ZM100.89 111.84Q101.88 110.52 101.88 108.35L101.88 108.2Q101.88 105.89 100.89 104.6Q100.45 104.04 99.88 103.72Q99.14 103.31 98.17 103.31Q97.03 103.31 96.21 103.82Q95.77 104.11 95.41 104.54L95.34 103.49L93.85 103.49L93.85 116.65L95.48 116.65L95.48 112.07Q95.75 112.37 96.07 112.59Q96.94 113.17 98.2 113.17Q99.1 113.17 99.8 112.8Q100.42 112.47 100.89 111.84ZM113.16 111.66Q112.73 111.84 112.22 111.84Q111.41 111.84 110.83 111.47Q110.52 111.27 110.29 110.96Q109.61 110.07 109.61 108.43L109.61 108.12Q109.61 106.43 110.29 105.54Q110.55 105.2 110.88 104.99Q111.44 104.65 112.21 104.65Q112.78 104.65 113.24 104.87Q113.52 105.01 113.76 105.24Q113.99 105.46 114.15 105.72Q114.42 106.17 114.46 106.76L116 106.76Q115.96 105.81 115.54 105.09Q115.28 104.64 114.87 104.27Q114.57 103.99 114.22 103.8Q113.35 103.31 112.21 103.31Q110.98 103.31 110.06 103.84Q110.01 103.87 109.96 103.91Q109.66 104.09 109.41 104.33Q108.84 104.84 108.49 105.59Q107.98 106.67 107.98 108.06L107.98 108.33Q107.98 110.5 109.05 111.78Q109.09 111.83 109.13 111.87Q109.51 112.31 109.98 112.59Q110.92 113.17 112.22 113.17Q112.68 113.17 113.13 113.07Q113.6 112.96 114.05 112.73Q114.75 112.38 115.22 111.83Q115.34 111.7 115.44 111.55Q115.86 110.96 115.97 110.3Q115.99 110.15 116 110L114.46 110Q114.43 110.33 114.3 110.61Q114.12 111.01 113.74 111.32Q113.47 111.54 113.16 111.66ZM131.94 105.64Q131.39 106.76 131.39 108.15L131.39 108.27Q131.39 110.21 132.31 111.48Q132.44 111.66 132.59 111.83Q133.06 112.36 133.65 112.68Q134.55 113.17 135.72 113.17Q136.76 113.17 137.61 112.77Q137.81 112.67 137.99 112.56Q138.33 112.35 138.61 112.08Q139.16 111.57 139.51 110.84Q140.05 109.73 140.05 108.35L140.05 108.23Q140.05 106.25 139.1 104.96Q138.98 104.8 138.85 104.65Q138.38 104.13 137.8 103.81Q136.89 103.31 135.7 103.31Q134.72 103.31 133.91 103.68Q133.68 103.78 133.47 103.92Q133.22 104.07 133 104.26Q132.35 104.81 131.94 105.64ZM152.43 105.64Q151.89 106.76 151.89 108.15L151.89 108.27Q151.89 110.21 152.81 111.48Q152.94 111.66 153.08 111.83Q153.56 112.36 154.15 112.68Q155.05 113.17 156.22 113.17Q157.26 113.17 158.11 112.77Q158.3 112.67 158.49 112.56Q158.83 112.35 159.11 112.08Q159.66 111.57 160.01 110.84Q160.54 109.73 160.54 108.35L160.54 108.23Q160.54 106.25 159.59 104.96Q159.47 104.8 159.34 104.65Q158.88 104.13 158.3 103.81Q157.39 103.31 156.2 103.31Q155.22 103.31 154.4 103.68Q154.18 103.78 153.96 103.92Q153.72 104.07 153.49 104.26Q152.84 104.81 152.43 105.64ZM230.78 111.99Q230.86 112.71 231 113L232.71 113L232.71 112.85Q232.38 112.08 232.38 110.77L232.38 106.39Q232.35 105.35 231.85 104.63Q231.66 104.36 231.41 104.13Q231.4 104.12 231.39 104.12Q230.46 103.31 228.83 103.31Q227.8 103.31 226.94 103.69L226.93 103.7Q226.07 104.08 225.57 104.74L225.56 104.75Q225.12 105.32 225.06 105.93Q225.05 106.03 225.05 106.12L226.69 106.12Q226.69 105.93 226.74 105.76Q226.87 105.37 227.28 105.06Q227.34 105.01 227.4 104.97Q227.95 104.62 228.74 104.62Q229.71 104.62 230.22 105.11Q230.23 105.12 230.24 105.12Q230.35 105.24 230.44 105.37Q230.75 105.82 230.75 106.48L230.75 107.23L229.17 107.23Q227.12 107.23 225.99 108.05Q225.51 108.4 225.23 108.87Q224.86 109.51 224.86 110.36Q224.86 111 225.11 111.52Q225.33 112 225.76 112.38Q225.94 112.53 226.14 112.66Q226.94 113.17 228.07 113.17Q228.76 113.17 229.36 112.95Q230.14 112.66 230.78 111.99ZM249.51 111.84Q250.51 110.52 250.51 108.35L250.51 108.2Q250.51 105.89 249.51 104.6Q249.07 104.04 248.5 103.72Q247.76 103.31 246.8 103.31Q245.66 103.31 244.84 103.82Q244.39 104.11 244.04 104.54L243.96 103.49L242.47 103.49L242.47 116.65L244.1 116.65L244.1 112.07Q244.37 112.37 244.69 112.59Q245.56 113.17 246.82 113.17Q247.72 113.17 248.42 112.8Q249.05 112.47 249.51 111.84ZM319.68 111.84Q320.67 110.52 320.67 108.35L320.67 108.2Q320.67 105.89 319.67 104.6Q319.24 104.04 318.66 103.72Q317.93 103.31 316.96 103.31Q315.82 103.31 315 103.82Q314.55 104.11 314.2 104.54L314.12 103.49L312.64 103.49L312.64 116.65L314.26 116.65L314.26 112.07Q314.53 112.37 314.85 112.59Q315.72 113.17 316.99 113.17Q317.88 113.17 318.58 112.8Q319.21 112.47 319.68 111.84ZM382.02 111.66Q381.59 111.84 381.08 111.84Q380.26 111.84 379.69 111.47Q379.38 111.27 379.14 110.96Q378.47 110.07 378.47 108.43L378.47 108.12Q378.47 106.43 379.15 105.54Q379.4 105.2 379.74 104.99Q380.29 104.65 381.07 104.65Q381.64 104.65 382.1 104.87Q382.38 105.01 382.62 105.24Q382.85 105.46 383.01 105.72Q383.27 106.17 383.32 106.76L384.86 106.76Q384.81 105.81 384.39 105.09Q384.13 104.64 383.73 104.27Q383.43 103.99 383.08 103.8Q382.21 103.31 381.07 103.31Q379.84 103.31 378.92 103.84Q378.87 103.87 378.81 103.91Q378.52 104.09 378.26 104.33Q377.7 104.84 377.35 105.59Q376.84 106.67 376.84 108.06L376.84 108.33Q376.84 110.5 377.91 111.78Q377.95 111.83 377.99 111.87Q378.37 112.31 378.84 112.59Q379.78 113.17 381.08 113.17Q381.54 113.17 381.98 113.07Q382.46 112.96 382.91 112.73Q383.61 112.38 384.08 111.83Q384.19 111.7 384.29 111.55Q384.71 110.96 384.82 110.3Q384.85 110.15 384.86 110L383.32 110Q383.29 110.33 383.16 110.61Q382.98 111.01 382.6 111.32Q382.33 111.54 382.02 111.66ZM402.05 111.99Q402.14 112.71 402.28 113L403.98 113L403.98 112.85Q403.65 112.08 403.65 110.77L403.65 106.39Q403.62 105.35 403.12 104.63Q402.94 104.36 402.68 104.13Q402.67 104.12 402.66 104.12Q401.73 103.31 400.11 103.31Q399.08 103.31 398.21 103.69L398.2 103.7Q397.34 104.08 396.84 104.74L396.83 104.75Q396.39 105.32 396.34 105.93Q396.33 106.03 396.33 106.12L397.96 106.12Q397.96 105.93 398.02 105.76Q398.14 105.37 398.55 105.06Q398.61 105.01 398.67 104.97Q399.23 104.62 400.01 104.62Q400.98 104.62 401.49 105.11Q401.5 105.12 401.51 105.12Q401.63 105.24 401.71 105.37Q402.02 105.82 402.02 106.48L402.02 107.23L400.44 107.23Q398.39 107.23 397.26 108.05Q396.78 108.4 396.51 108.87Q396.13 109.51 396.13 110.36Q396.13 111 396.38 111.52Q396.61 112 397.03 112.38Q397.21 112.53 397.41 112.66Q398.22 113.17 399.34 113.17Q400.03 113.17 400.63 112.95Q401.41 112.66 402.05 111.99ZM447.58 111.84Q448.58 110.52 448.58 108.35L448.58 108.2Q448.58 105.89 447.58 104.6Q447.14 104.04 446.57 103.72Q445.83 103.31 444.87 103.31Q443.73 103.31 442.91 103.82Q442.46 104.11 442.11 104.54L442.03 103.49L440.54 103.49L440.54 116.65L442.17 116.65L442.17 112.07Q442.44 112.37 442.76 112.59Q443.63 113.17 444.89 113.17Q445.79 113.17 446.49 112.8Q447.12 112.47 447.58 111.84ZM455.4 111.66Q454.97 111.84 454.46 111.84Q453.64 111.84 453.07 111.47Q452.76 111.27 452.52 110.96Q451.85 110.07 451.85 108.43L451.85 108.12Q451.85 106.43 452.53 105.54Q452.78 105.2 453.12 104.99Q453.67 104.65 454.45 104.65Q455.02 104.65 455.48 104.87Q455.76 105.01 456 105.24Q456.23 105.46 456.39 105.72Q456.65 106.17 456.7 106.76L458.24 106.76Q458.19 105.81 457.77 105.09Q457.51 104.64 457.11 104.27Q456.81 103.99 456.46 103.8Q455.59 103.31 454.45 103.31Q453.22 103.31 452.3 103.84Q452.25 103.87 452.19 103.91Q451.9 104.09 451.64 104.33Q451.08 104.84 450.73 105.59Q450.22 106.67 450.22 108.06L450.22 108.33Q450.22 110.5 451.29 111.78Q451.33 111.83 451.37 111.87Q451.75 112.31 452.22 112.59Q453.16 113.17 454.46 113.17Q454.92 113.17 455.36 113.07Q455.84 112.96 456.29 112.73Q456.99 112.38 457.46 111.83Q457.57 111.7 457.67 111.55Q458.09 110.96 458.2 110.3Q458.23 110.15 458.24 110L456.7 110Q456.67 110.33 456.54 110.61Q456.36 111.01 455.98 111.32Q455.71 111.54 455.4 111.66ZM221.07 105.44Q221.22 105.72 221.22 106.09Q221.22 106.6 220.97 106.92Q220.58 107.43 219.56 107.46L217.79 107.46L217.79 108.83L219.42 108.83Q220.43 108.83 220.91 109.18Q220.99 109.23 221.06 109.3Q221.39 109.66 221.39 110.32Q221.39 110.63 221.28 110.89Q221.13 111.2 220.82 111.44Q220.25 111.87 219.31 111.87Q218.55 111.87 218 111.53Q217.88 111.46 217.77 111.37Q217.35 111.04 217.22 110.61Q217.15 110.41 217.15 110.18L215.54 110.18Q215.54 110.91 215.84 111.48Q216.1 111.98 216.6 112.36Q216.64 112.38 216.67 112.41Q217.73 113.16 219.31 113.16Q221 113.16 222.01 112.4Q222.48 112.05 222.73 111.58Q223.02 111.03 223.02 110.32Q223.02 109.57 222.68 109.04Q222.27 108.41 221.36 108.11Q222.07 107.79 222.46 107.26Q222.69 106.95 222.78 106.6Q222.85 106.35 222.85 106.08Q222.85 105.21 222.45 104.61Q222.24 104.28 221.92 104.04Q220.98 103.32 219.31 103.32Q217.91 103.32 216.93 103.96Q216.82 104.03 216.72 104.11Q216.14 104.56 215.88 105.15Q215.68 105.6 215.68 106.14L217.3 106.14Q217.3 105.98 217.34 105.83Q217.46 105.41 217.88 105.09Q217.95 105.03 218.03 104.98Q218.56 104.64 219.31 104.64Q220.2 104.64 220.71 105.03Q220.94 105.2 221.07 105.44ZM266.07 105.44Q266.22 105.72 266.22 106.09Q266.22 106.6 265.97 106.92Q265.58 107.43 264.56 107.46L262.79 107.46L262.79 108.83L264.42 108.83Q265.43 108.83 265.91 109.18Q265.99 109.23 266.06 109.3Q266.39 109.66 266.39 110.32Q266.39 110.63 266.28 110.89Q266.13 111.2 265.82 111.44Q265.25 111.87 264.31 111.87Q263.55 111.87 263 111.53Q262.88 111.46 262.77 111.37Q262.35 111.04 262.22 110.61Q262.15 110.41 262.15 110.18L260.54 110.18Q260.54 110.91 260.84 111.48Q261.1 111.98 261.6 112.36Q261.64 112.38 261.67 112.41Q262.73 113.16 264.31 113.16Q266 113.16 267.01 112.4Q267.48 112.05 267.73 111.58Q268.02 111.03 268.02 110.32Q268.02 109.57 267.68 109.04Q267.26 108.41 266.36 108.11Q267.07 107.79 267.46 107.26Q267.69 106.95 267.78 106.6Q267.85 106.35 267.85 106.08Q267.85 105.21 267.45 104.61Q267.24 104.28 266.92 104.04Q265.98 103.32 264.31 103.32Q262.91 103.32 261.93 103.96Q261.82 104.03 261.72 104.11Q261.14 104.56 260.88 105.15Q260.68 105.6 260.68 106.14L262.3 106.14Q262.3 105.98 262.34 105.83Q262.46 105.41 262.88 105.09Q262.95 105.03 263.03 104.98Q263.56 104.64 264.31 104.64Q265.2 104.64 265.71 105.03Q265.94 105.2 266.07 105.44ZM62.44 103.49L60.22 110.61L57.85 103.49L56.08 103.49L59.47 112.89L59.11 113.86Q58.81 114.74 58.35 115.08Q57.89 115.41 57.06 115.41L56.62 115.38L56.62 116.7L57.23 116.81L57.53 116.84Q58.12 116.84 58.6 116.62Q59.73 116.12 60.36 114.46L64.18 103.49L62.44 103.49ZM69.5 104.8L72.7 104.8L72.7 103.49L64.75 103.49L64.75 104.8L67.88 104.8L67.88 113L69.5 113L69.5 104.8ZM81.36 113L81.36 103.49L74.94 103.49L74.76 107.56Q74.66 109.79 74.32 110.61Q74.11 111.12 73.73 111.35Q73.49 111.49 73.19 111.53L72.72 111.56L72.72 113L73.37 113Q74.33 112.97 74.94 112.49Q75.25 112.25 75.48 111.9Q76.14 110.84 76.3 108.39L76.49 104.83L79.73 104.83L79.73 113L81.36 113ZM91.24 113L91.24 103.49L87.24 103.49Q85.61 103.49 84.63 104.29Q84.19 104.65 83.94 105.12Q83.66 105.68 83.66 106.39Q83.66 107.08 83.92 107.64Q84.02 107.84 84.14 108.02Q84.22 108.12 84.3 108.22Q84.77 108.77 85.54 109.05L83.15 113L84.91 113L87.15 109.3L89.61 109.3L89.61 113L91.24 113ZM124.06 108.94L125.25 108.94L128.54 113L130.61 113L126.53 108.06L130.29 103.49L128.32 103.49L125.12 107.51L124.06 107.51L124.06 103.49L122.42 103.49L122.42 113L124.06 113L124.06 108.94ZM141.94 110.97L141.37 111.67L140.64 111.67L140.63 115.79L142.25 115.79L142.25 113L148.89 113L148.89 115.79L150.51 115.79L150.51 111.67L149.29 111.67L149.29 103.49L143.17 103.49L143.02 107.28Q142.89 109.74 141.94 110.97ZM171.29 103.49L168.06 110.84L164.84 103.49L162.73 103.49L162.73 113L164.36 113L164.36 105.93L167.49 113L168.62 113L171.7 106.08L171.7 113L173.32 113L173.32 103.49L171.29 103.49ZM180.87 110.97L180.31 111.67L179.57 111.67L179.56 115.79L181.19 115.79L181.19 113L187.82 113L187.82 115.79L189.45 115.79L189.45 111.67L188.23 111.67L188.23 103.49L182.1 103.49L181.95 107.28Q181.82 109.74 180.87 110.97ZM199.05 113L199.05 103.49L192.62 103.49L192.45 107.56Q192.35 109.79 192.01 110.61Q191.8 111.12 191.42 111.35Q191.18 111.49 190.87 111.53L190.41 111.56L190.41 113L191.06 113Q192.01 112.97 192.63 112.49Q192.94 112.25 193.16 111.9Q193.83 110.84 193.98 108.39L194.18 104.83L197.41 104.83L197.41 113L199.05 113ZM208.93 113L208.93 103.49L204.93 103.49Q203.29 103.49 202.32 104.29Q201.87 104.65 201.63 105.12Q201.34 105.68 201.34 106.39Q201.34 107.08 201.61 107.64Q201.7 107.84 201.83 108.02Q201.9 108.12 201.98 108.22Q202.45 108.77 203.23 109.05L200.84 113L202.6 113L204.84 109.3L207.29 109.3L207.29 113L208.93 113ZM236.68 104.83L241.07 104.83L241.07 103.49L235.05 103.49L235.05 113L236.68 113L236.68 104.83ZM257.8 103.49L255.59 110.61L253.21 103.49L251.44 103.49L254.83 112.89L254.47 113.86Q254.17 114.74 253.71 115.08Q253.25 115.41 252.42 115.41L251.98 115.38L251.98 116.7L252.59 116.81L252.9 116.84Q253.48 116.84 253.97 116.62Q255.1 116.12 255.72 114.46L259.54 103.49L257.8 103.49ZM271.91 108.94L273.1 108.94L276.39 113L278.46 113L274.38 108.06L278.14 103.49L276.17 103.49L272.97 107.51L271.91 107.51L271.91 103.49L270.27 103.49L270.27 113L271.91 113L271.91 108.94ZM287.63 103.49L286.01 103.49L281.62 110.43L281.62 103.49L279.99 103.49L279.99 113L281.62 113L286.01 106.06L286.01 113L287.63 113L287.63 103.49ZM302.48 103.49L300.85 103.49L296.47 110.43L296.47 103.49L294.84 103.49L294.84 113L296.47 113L300.85 106.06L300.85 113L302.48 113L302.48 103.49ZM306.85 104.83L311.23 104.83L311.23 103.49L305.21 103.49L305.21 113L306.85 113L306.85 104.83ZM326.98 106.76L324.51 106.76L324.51 103.49L322.89 103.49L322.89 113L326.91 113Q328.41 113 329.35 112.27Q329.43 112.2 329.51 112.13Q329.86 111.82 330.08 111.44Q330.48 110.76 330.48 109.85Q330.48 108.89 330.05 108.2Q329.84 107.87 329.54 107.61Q329.51 107.58 329.48 107.56Q328.55 106.78 326.98 106.76ZM332.24 113L333.87 113L333.87 103.49L332.24 103.49L332.24 113ZM348.94 103.49L347.32 103.49L342.93 110.43L342.93 103.49L341.31 103.49L341.31 113L342.93 113L347.32 106.06L347.32 113L348.94 113L348.94 103.49ZM356.49 110.97L355.93 111.67L355.19 111.67L355.18 115.79L356.81 115.79L356.81 113L363.45 113L363.45 115.79L365.07 115.79L365.07 111.67L363.85 111.67L363.85 103.49L357.72 103.49L357.58 107.28Q357.44 109.74 356.49 110.97ZM374.65 103.49L373.03 103.49L368.64 110.43L368.64 103.49L367.02 103.49L367.02 113L368.64 113L373.03 106.06L373.03 113L374.65 113L374.65 103.49ZM388.46 108.94L389.65 108.94L392.94 113L395.01 113L390.93 108.06L394.69 103.49L392.72 103.49L389.52 107.51L388.46 107.51L388.46 103.49L386.83 103.49L386.83 113L388.46 113L388.46 108.94ZM414.91 103.49L411.67 110.84L408.46 103.49L406.35 103.49L406.35 113L407.97 113L407.97 105.93L411.11 113L412.23 113L415.31 106.08L415.31 113L416.94 113L416.94 103.49L414.91 103.49ZM427.33 103.49L425.7 103.49L421.31 110.43L421.31 103.49L419.69 103.49L419.69 113L421.31 113L425.7 106.06L425.7 113L427.33 113L427.33 103.49ZM133.76 110.89Q133.02 109.93 133.02 108.35Q133.02 106.56 133.76 105.6Q134.14 105.12 134.63 104.88Q135.11 104.65 135.7 104.65Q136.33 104.65 136.83 104.9Q137.31 105.14 137.68 105.62Q138.42 106.59 138.42 108.15Q138.42 109.9 137.69 110.87Q137.34 111.33 136.88 111.58Q136.37 111.84 135.72 111.84Q135.08 111.84 134.57 111.58Q134.11 111.34 133.76 110.89ZM154.25 110.89Q153.52 109.93 153.52 108.35Q153.52 106.56 154.26 105.6Q154.63 105.12 155.12 104.88Q155.61 104.65 156.2 104.65Q156.83 104.65 157.33 104.9Q157.81 105.14 158.17 105.62Q158.92 106.59 158.92 108.15Q158.92 109.9 158.19 110.87Q157.84 111.33 157.38 111.58Q156.87 111.84 156.22 111.84Q155.57 111.84 155.06 111.58Q154.6 111.34 154.25 110.89ZM99.57 105.62Q100.26 106.55 100.26 108.16Q100.26 109.99 99.57 110.92Q99.23 111.37 98.78 111.6Q98.31 111.84 97.71 111.84Q96.95 111.84 96.38 111.51Q95.84 111.18 95.48 110.54L95.48 106Q95.86 105.32 96.44 104.99Q96.98 104.69 97.69 104.69Q98.34 104.69 98.83 104.96Q99.26 105.19 99.57 105.62ZM248.2 105.62Q248.88 106.55 248.88 108.16Q248.88 109.99 248.19 110.92Q247.86 111.37 247.41 111.6Q246.93 111.84 246.33 111.84Q245.57 111.84 245.01 111.51Q244.46 111.18 244.1 110.54L244.1 106Q244.48 105.32 245.06 104.99Q245.6 104.69 246.31 104.69Q246.96 104.69 247.46 104.96Q247.88 105.19 248.2 105.62ZM318.36 105.62Q319.04 106.55 319.04 108.16Q319.04 109.99 318.35 110.92Q318.02 111.37 317.57 111.6Q317.1 111.84 316.5 111.84Q315.73 111.84 315.17 111.51Q314.62 111.18 314.26 110.54L314.26 106Q314.65 105.32 315.23 104.99Q315.76 104.69 316.48 104.69Q317.12 104.69 317.62 104.96Q318.04 105.19 318.36 105.62ZM446.27 105.62Q446.95 106.55 446.95 108.16Q446.95 109.99 446.26 110.92Q445.93 111.37 445.48 111.6Q445 111.84 444.4 111.84Q443.64 111.84 443.08 111.51Q442.53 111.18 442.17 110.54L442.17 106Q442.55 105.32 443.13 104.99Q443.67 104.69 444.39 104.69Q445.03 104.69 445.53 104.96Q445.95 105.19 446.27 105.62ZM85.48 107.17Q85.29 106.84 85.29 106.4Q85.29 106.03 85.44 105.72Q85.57 105.46 85.83 105.25Q86.36 104.8 87.27 104.8L89.61 104.8L89.61 107.96L87.02 107.96Q86.33 107.95 85.88 107.62Q85.82 107.57 85.76 107.52Q85.59 107.37 85.48 107.17ZM203.16 107.17Q202.98 106.84 202.98 106.4Q202.98 106.03 203.13 105.72Q203.26 105.46 203.51 105.25Q204.05 104.8 204.95 104.8L207.29 104.8L207.29 107.96L204.71 107.96Q204.02 107.95 203.57 107.62Q203.51 107.57 203.45 107.52Q203.27 107.37 203.16 107.17ZM147.67 111.67L143.3 111.67Q144.49 110.1 144.64 107.26L144.74 104.99L147.67 104.99L147.67 111.67ZM186.6 111.67L182.23 111.67Q183.43 110.1 183.58 107.26L183.68 104.99L186.6 104.99L186.6 111.67ZM362.22 111.67L357.86 111.67Q359.05 110.1 359.2 107.26L359.3 104.99L362.22 104.99L362.22 111.67ZM324.51 111.67L324.51 108.09L326.99 108.09Q327.74 108.11 328.21 108.48Q328.29 108.54 328.36 108.61Q328.5 108.76 328.6 108.93Q328.84 109.35 328.84 109.91Q328.84 110.53 328.55 110.96Q328.46 111.09 328.34 111.2Q328.33 111.22 328.31 111.23Q327.81 111.67 326.93 111.67L324.51 111.67ZM228.86 111.7Q228.59 111.76 228.31 111.76Q227.62 111.76 227.14 111.44Q227.07 111.39 227 111.33Q226.84 111.19 226.73 111.02Q226.49 110.66 226.49 110.13Q226.49 109.68 226.68 109.35Q227.25 108.38 229.47 108.38L230.75 108.38L230.75 110.33Q230.7 110.44 230.63 110.54Q230.33 111.03 229.76 111.36Q229.33 111.61 228.86 111.7ZM400.14 111.7Q399.86 111.76 399.58 111.76Q398.89 111.76 398.42 111.44Q398.34 111.39 398.27 111.33Q398.11 111.19 398 111.02Q397.76 110.66 397.76 110.13Q397.76 109.68 397.95 109.35Q398.52 108.38 400.75 108.38L402.02 108.38L402.02 110.33Q401.97 110.44 401.91 110.54Q401.6 111.03 401.03 111.36Q400.6 111.61 400.14 111.7Z" fill="#FFFFFF" fill-opacity="1.000000" fill-rule="evenodd"/>
	<g clip-path="url(#clip15_51)">
		<path id="Vector" d="M25.33 94L6.66 94C5.18 94 4 95.2 4 96.66L4 115.33C4 116.8 5.18 118 6.66 118L25.33 118C26.8 118 28 116.8 28 115.33L28 96.66C28 95.2 26.81 94 25.33 94ZM25.33 115.33L6.66 115.33L6.66 99.33L25.33 99.33L25.33 115.33ZM22.66 106L9.33 106L9.33 103.33L22.66 103.33L22.66 106ZM17.33 111.33L9.33 111.33L9.33 108.66L17.33 108.66L17.33 111.33Z" fill="#F8F200" fill-opacity="1.000000" fill-rule="nonzero"/>
	</g>
	<path id="Футляр с игровыми дисками" d="M50.07 54.48L49.8 54.48L49.8 52.67L48.16 52.67L48.16 54.48L47.92 54.48Q46.8 54.48 45.84 54.87Q45.54 54.99 45.25 55.15Q44.59 55.52 44.09 56.04Q43.68 56.47 43.39 57Q43.26 57.22 43.16 57.45Q42.72 58.45 42.72 59.64Q42.72 60.83 43.16 61.83Q43.26 62.06 43.39 62.29Q43.68 62.81 44.09 63.24Q44.59 63.76 45.25 64.13Q45.54 64.29 45.84 64.41Q46.8 64.8 47.92 64.8L48.16 64.8L48.16 66.52L49.8 66.52L49.8 64.8L50.11 64.8Q51.2 64.79 52.14 64.4Q52.44 64.28 52.73 64.12Q53.29 63.8 53.73 63.37Q54.22 62.89 54.57 62.27Q54.73 61.99 54.85 61.69Q55.24 60.74 55.24 59.62Q55.24 58.5 54.84 57.54Q54.72 57.26 54.58 57Q54.28 56.48 53.88 56.05Q53.38 55.53 52.72 55.16Q52.39 54.98 52.05 54.84Q51.13 54.49 50.07 54.48ZM45.81 56.39Q46.67 55.81 47.92 55.81L48.16 55.81L48.16 63.46L47.94 63.46Q46.61 63.46 45.73 62.84Q45.5 62.67 45.3 62.46Q45.23 62.39 45.17 62.31Q44.34 61.33 44.34 59.64Q44.34 57.99 45.15 57Q45.22 56.91 45.3 56.82Q45.54 56.58 45.81 56.39ZM49.8 63.46L49.8 55.81L50.01 55.81Q51.38 55.81 52.26 56.47Q52.48 56.63 52.67 56.84Q52.76 56.94 52.85 57.05Q53.61 58.04 53.61 59.62Q53.61 61.24 52.83 62.25Q52.75 62.34 52.67 62.43Q52.45 62.67 52.19 62.86Q51.33 63.46 50.05 63.46L49.8 63.46ZM100.89 64.84Q101.88 63.52 101.88 61.35L101.88 61.2Q101.88 58.89 100.89 57.6Q100.45 57.04 99.88 56.72Q99.14 56.31 98.17 56.31Q97.03 56.31 96.21 56.82Q95.77 57.11 95.41 57.54L95.34 56.49L93.85 56.49L93.85 69.65L95.48 69.65L95.48 65.07Q95.75 65.37 96.07 65.59Q96.94 66.17 98.2 66.17Q99.1 66.17 99.8 65.8Q100.42 65.47 100.89 64.84ZM113.16 64.66Q112.73 64.84 112.22 64.84Q111.41 64.84 110.83 64.47Q110.52 64.27 110.29 63.96Q109.61 63.07 109.61 61.42L109.61 61.12Q109.61 59.43 110.29 58.54Q110.55 58.2 110.88 57.99Q111.44 57.65 112.21 57.65Q112.78 57.65 113.24 57.87Q113.52 58.01 113.76 58.24Q113.99 58.46 114.15 58.72Q114.42 59.17 114.46 59.75L116 59.75Q115.96 58.81 115.54 58.09Q115.28 57.63 114.87 57.27Q114.57 56.99 114.22 56.8Q113.35 56.31 112.21 56.31Q110.98 56.31 110.06 56.84Q110.01 56.87 109.96 56.91Q109.66 57.09 109.41 57.33Q108.84 57.84 108.49 58.59Q107.98 59.67 107.98 61.06L107.98 61.33Q107.98 63.5 109.05 64.78Q109.09 64.83 109.13 64.87Q109.51 65.31 109.98 65.59Q110.92 66.17 112.22 66.17Q112.68 66.17 113.13 66.07Q113.6 65.96 114.05 65.73Q114.75 65.38 115.22 64.83Q115.34 64.7 115.44 64.55Q115.86 63.96 115.97 63.3Q115.99 63.15 116 63L114.46 63Q114.43 63.32 114.3 63.61Q114.12 64.01 113.74 64.32Q113.47 64.53 113.16 64.66ZM147.26 64.84Q148.25 63.52 148.25 61.35L148.25 61.2Q148.25 58.89 147.26 57.6Q146.82 57.04 146.25 56.72Q145.51 56.31 144.55 56.31Q143.4 56.31 142.58 56.82Q142.14 57.11 141.79 57.54L141.71 56.49L140.22 56.49L140.22 69.65L141.85 69.65L141.85 65.07Q142.12 65.37 142.44 65.59Q143.31 66.17 144.57 66.17Q145.47 66.17 146.17 65.8Q146.79 65.47 147.26 64.84ZM150.44 58.64Q149.89 59.75 149.89 61.15L149.89 61.27Q149.89 63.21 150.81 64.48Q150.94 64.66 151.09 64.83Q151.56 65.36 152.15 65.68Q153.05 66.17 154.22 66.17Q155.27 66.17 156.11 65.76Q156.31 65.67 156.5 65.56Q156.83 65.35 157.11 65.08Q157.66 64.57 158.02 63.84Q158.55 62.73 158.55 61.35L158.55 61.23Q158.55 59.25 157.6 57.96Q157.48 57.8 157.35 57.65Q156.88 57.13 156.3 56.81Q155.39 56.31 154.21 56.31Q153.22 56.31 152.41 56.68Q152.18 56.78 151.97 56.92Q151.72 57.07 151.5 57.26Q150.85 57.81 150.44 58.64ZM239.05 64.66Q238.62 64.84 238.11 64.84Q237.29 64.84 236.72 64.47Q236.41 64.27 236.17 63.96Q235.5 63.07 235.5 61.42L235.5 61.12Q235.5 59.43 236.18 58.54Q236.43 58.2 236.77 57.99Q237.32 57.65 238.1 57.65Q238.67 57.65 239.13 57.87Q239.41 58.01 239.65 58.24Q239.88 58.46 240.04 58.72Q240.3 59.17 240.35 59.75L241.89 59.75Q241.84 58.81 241.42 58.09Q241.16 57.63 240.76 57.27Q240.45 56.99 240.11 56.8Q239.24 56.31 238.1 56.31Q236.87 56.31 235.95 56.84Q235.89 56.87 235.84 56.91Q235.55 57.09 235.29 57.33Q234.73 57.84 234.38 58.59Q233.87 59.67 233.87 61.06L233.87 61.33Q233.87 63.5 234.94 64.78Q234.98 64.83 235.02 64.87Q235.4 65.31 235.87 65.59Q236.81 66.17 238.11 66.17Q238.57 66.17 239.01 66.07Q239.49 65.96 239.94 65.73Q240.64 65.38 241.11 64.83Q241.22 64.7 241.32 64.55Q241.74 63.96 241.85 63.3Q241.88 63.15 241.89 63L240.35 63Q240.32 63.32 240.19 63.61Q240.01 64.01 239.63 64.32Q239.36 64.53 239.05 64.66ZM259.08 64.99Q259.16 65.71 259.31 66L261.01 66L261.01 65.85Q260.68 65.08 260.68 63.77L260.68 59.39Q260.65 58.35 260.15 57.63Q259.97 57.36 259.71 57.13Q259.7 57.12 259.69 57.11Q258.76 56.31 257.13 56.31Q256.1 56.31 255.24 56.69L255.23 56.7Q254.37 57.08 253.87 57.74L253.86 57.75Q253.42 58.32 253.36 58.93Q253.35 59.03 253.35 59.12L254.99 59.12Q254.99 58.93 255.04 58.76Q255.17 58.37 255.58 58.06Q255.64 58.01 255.7 57.97Q256.26 57.62 257.04 57.62Q258.01 57.62 258.52 58.11Q258.53 58.12 258.54 58.12Q258.65 58.24 258.74 58.37Q259.05 58.82 259.05 59.48L259.05 60.23L257.47 60.23Q255.42 60.23 254.29 61.05Q253.81 61.4 253.53 61.87Q253.16 62.51 253.16 63.36Q253.16 64 253.41 64.52Q253.63 65 254.06 65.38Q254.24 65.53 254.44 65.66Q255.24 66.17 256.37 66.17Q257.06 66.17 257.66 65.95Q258.44 65.66 259.08 64.99ZM62.44 56.49L60.22 63.61L57.85 56.49L56.08 56.49L59.47 65.89L59.11 66.86Q58.81 67.74 58.35 68.08Q57.89 68.41 57.06 68.41L56.62 68.38L56.62 69.7L57.23 69.81L57.53 69.84Q58.12 69.84 58.6 69.62Q59.73 69.12 60.36 67.46L64.18 56.49L62.44 56.49ZM69.5 57.8L72.7 57.8L72.7 56.49L64.75 56.49L64.75 57.8L67.88 57.8L67.88 66L69.5 66L69.5 57.8ZM81.36 66L81.36 56.49L74.94 56.49L74.76 60.55Q74.66 62.79 74.32 63.61Q74.11 64.12 73.73 64.35Q73.49 64.49 73.19 64.53L72.72 64.56L72.72 66L73.37 66Q74.33 65.97 74.94 65.49Q75.25 65.25 75.48 64.9Q76.14 63.84 76.3 61.39L76.49 57.83L79.73 57.83L79.73 66L81.36 66ZM91.24 66L91.24 56.49L87.24 56.49Q85.61 56.49 84.63 57.29Q84.19 57.65 83.94 58.12Q83.66 58.68 83.66 59.39Q83.66 60.08 83.92 60.64Q84.02 60.84 84.14 61.02Q84.22 61.12 84.3 61.22Q84.77 61.76 85.54 62.05L83.15 66L84.91 66L87.15 62.29L89.61 62.29L89.61 66L91.24 66ZM130.06 56.49L128.44 56.49L124.05 63.43L124.05 56.49L122.42 56.49L122.42 66L124.05 66L128.44 59.06L128.44 66L130.06 66L130.06 56.49ZM134.43 57.83L138.82 57.83L138.82 56.49L132.8 56.49L132.8 66L134.43 66L134.43 57.83ZM160.74 56.49L160.74 66L165.03 66Q166.79 66 167.75 65.3Q168.12 65.04 168.35 64.68Q168.72 64.11 168.72 63.3Q168.72 62.83 168.54 62.43Q168.42 62.14 168.19 61.89Q168.09 61.78 167.98 61.68Q167.5 61.26 166.81 61.1Q167.58 60.82 167.98 60.29Q168.18 60.01 168.28 59.71Q168.37 59.42 168.37 59.1Q168.37 58.37 168.05 57.85Q167.8 57.44 167.36 57.15Q166.34 56.49 164.44 56.49L160.74 56.49ZM175.11 59.76L172.64 59.76L172.64 56.49L171.02 56.49L171.02 66L175.04 66Q176.55 66 177.49 65.27Q177.57 65.2 177.65 65.13Q177.99 64.82 178.22 64.44Q178.61 63.76 178.61 62.85Q178.61 61.89 178.18 61.2Q177.98 60.87 177.67 60.61Q177.65 60.58 177.62 60.56Q176.69 59.78 175.11 59.76ZM180.37 66L182.01 66L182.01 56.49L180.37 56.49L180.37 66ZM193.55 56.49L190.32 63.84L187.1 56.49L184.99 56.49L184.99 66L186.62 66L186.62 58.93L189.76 66L190.88 66L193.96 59.08L193.96 66L195.58 66L195.58 56.49L193.55 56.49ZM205.97 56.49L204.35 56.49L199.96 63.43L199.96 56.49L198.34 56.49L198.34 66L199.96 66L204.35 59.06L204.35 66L205.97 66L205.97 56.49ZM213.52 63.97L212.96 64.67L212.22 64.67L212.21 68.79L213.84 68.79L213.84 66L220.47 66L220.47 68.79L222.1 68.79L222.1 64.67L220.88 64.67L220.88 56.49L214.75 56.49L214.6 60.28Q214.47 62.74 213.52 63.97ZM231.68 56.49L230.06 56.49L225.67 63.43L225.67 56.49L224.04 56.49L224.04 66L225.67 66L230.06 59.06L230.06 66L231.68 66L231.68 56.49ZM245.49 61.94L246.68 61.94L249.97 66L252.04 66L247.96 61.06L251.72 56.49L249.75 56.49L246.55 60.51L245.49 60.51L245.49 56.49L243.85 56.49L243.85 66L245.49 66L245.49 61.94ZM271.93 56.49L268.7 63.84L265.48 56.49L263.37 56.49L263.37 66L265 66L265 58.93L268.14 66L269.26 66L272.34 59.08L272.34 66L273.97 66L273.97 56.49L271.93 56.49ZM284.35 56.49L282.73 56.49L278.34 63.43L278.34 56.49L276.72 56.49L276.72 66L278.34 66L282.73 59.06L282.73 66L284.35 66L284.35 56.49ZM152.26 63.89Q151.52 62.93 151.52 61.35Q151.52 59.56 152.26 58.6Q152.64 58.12 153.13 57.88Q153.61 57.65 154.21 57.65Q154.83 57.65 155.33 57.9Q155.81 58.14 156.18 58.62Q156.92 59.59 156.92 61.15Q156.92 62.9 156.19 63.87Q155.85 64.33 155.38 64.58Q154.87 64.84 154.22 64.84Q153.58 64.84 153.07 64.58Q152.61 64.34 152.26 63.89ZM99.57 58.62Q100.26 59.55 100.26 61.16Q100.26 62.99 99.57 63.92Q99.23 64.37 98.78 64.6Q98.31 64.84 97.71 64.84Q96.95 64.84 96.38 64.51Q95.84 64.18 95.48 63.54L95.48 59Q95.86 58.32 96.44 57.99Q96.98 57.69 97.69 57.69Q98.34 57.69 98.83 57.96Q99.26 58.19 99.57 58.62ZM145.94 58.62Q146.63 59.55 146.63 61.16Q146.63 62.99 145.94 63.92Q145.6 64.37 145.16 64.6Q144.68 64.84 144.08 64.84Q143.32 64.84 142.75 64.51Q142.21 64.18 141.85 63.54L141.85 59Q142.23 58.32 142.81 57.99Q143.35 57.69 144.06 57.69Q144.71 57.69 145.21 57.96Q145.63 58.19 145.94 58.62ZM85.48 60.17Q85.29 59.84 85.29 59.4Q85.29 59.03 85.44 58.72Q85.57 58.46 85.83 58.25Q86.36 57.8 87.27 57.8L89.61 57.8L89.61 60.96L87.02 60.96Q86.33 60.95 85.88 60.62Q85.82 60.57 85.76 60.52Q85.59 60.36 85.48 60.17ZM164.46 60.52L162.36 60.52L162.36 57.8L164.59 57.8Q166.16 57.84 166.59 58.55Q166.75 58.82 166.75 59.18Q166.75 59.52 166.6 59.78Q166.17 60.52 164.46 60.52ZM219.25 64.67L214.89 64.67Q216.08 63.09 216.23 60.26L216.33 57.99L219.25 57.99L219.25 64.67ZM172.64 64.67L172.64 61.09L175.12 61.09Q175.88 61.11 176.34 61.48Q176.42 61.54 176.49 61.61Q176.63 61.76 176.73 61.93Q176.98 62.35 176.98 62.91Q176.98 63.53 176.69 63.96Q176.6 64.09 176.48 64.2Q176.46 64.21 176.44 64.23Q175.94 64.67 175.06 64.67L172.64 64.67ZM257.16 64.7Q256.89 64.76 256.61 64.76Q255.92 64.76 255.45 64.44Q255.37 64.39 255.3 64.33Q255.14 64.19 255.03 64.02Q254.79 63.66 254.79 63.13Q254.79 62.68 254.98 62.35Q255.55 61.38 257.78 61.38L259.05 61.38L259.05 63.33Q259 63.44 258.93 63.54Q258.63 64.03 258.06 64.36Q257.63 64.61 257.16 64.7ZM162.36 64.69L162.36 61.82L164.99 61.82Q166.42 61.82 166.87 62.49Q167.08 62.79 167.08 63.24Q167.08 63.66 166.9 63.96Q166.78 64.16 166.58 64.31Q166.07 64.69 165.05 64.69L162.36 64.69Z" fill="#FFFFFF" fill-opacity="1.000000" fill-rule="evenodd"/>
	<g clip-path="url(#clip15_32)">
		<path id="Subtract" d="M16.0001 72.3335C23.3639 72.3335 29.3334 66.3638 29.3334 59C29.3334 51.6362 23.3639 45.6667 16.0001 45.6667C8.63623 45.6667 2.66675 51.6362 2.66675 59C2.66675 66.3638 8.63623 72.3335 16.0001 72.3335ZM16 62C17.6569 62 19 60.657 19 59C19 57.3433 17.6569 56 16 56C14.3431 56 13 57.3433 13 59C13 60.657 14.3431 62 16 62Z" clip-rule="evenodd" fill="#F8F200" fill-opacity="1.000000" fill-rule="evenodd"/>
	</g>
	<path id="Справочник с информацией об игровом мире" d="M303.62 151.55Q302.75 151.03 301.57 151.03Q300.81 151.03 300.15 151.28Q299.19 151.64 298.43 152.52Q298.64 151.17 299.37 150.36Q300.1 149.55 301.54 149.2L302.76 148.93Q303.85 148.67 304.34 148.06Q304.84 147.44 304.84 146.35L303.51 146.35Q303.51 146.65 303.38 146.88Q303.27 147.07 303.07 147.22Q302.64 147.53 301.41 147.75Q300.15 147.98 299.24 148.67Q298.59 149.17 298.13 149.91Q297.02 151.67 297.02 154.67L297.02 155.46Q297.02 157.36 297.93 158.58Q298.05 158.74 298.19 158.89Q298.59 159.34 299.09 159.63Q300.02 160.17 301.27 160.17Q302.37 160.17 303.25 159.73Q303.38 159.66 303.51 159.59Q303.88 159.37 304.18 159.08Q304.68 158.6 305 157.94Q305.52 156.88 305.52 155.54L305.52 155.39Q305.52 153.71 304.73 152.59Q304.59 152.4 304.44 152.23Q304.07 151.82 303.62 151.55ZM185.71 151.67Q184.79 153.03 184.79 155.42L184.79 155.55Q184.79 157.7 185.71 158.94Q186.13 159.5 186.69 159.81Q187.36 160.18 188.23 160.18Q188.97 160.18 189.56 159.92L189.56 163.65L191.18 163.65L191.18 159.9Q191.79 160.18 192.64 160.18Q193.53 160.18 194.2 159.8Q194.76 159.5 195.17 158.94Q196.09 157.7 196.09 155.6Q196.09 153.03 195.16 151.67Q194.68 150.96 194.02 150.62Q193.4 150.31 192.62 150.31Q191.8 150.31 191.18 150.62L191.18 146.5L189.56 146.5L189.56 150.56Q188.99 150.31 188.25 150.31Q187.48 150.31 186.87 150.62Q186.2 150.96 185.71 151.67ZM51.73 158.74Q52.69 157.68 52.89 155.93L51.2 155.93Q50.95 157.52 50.2 158.15Q49.45 158.79 48.04 158.79Q47.19 158.79 46.54 158.43Q46 158.12 45.61 157.56Q44.74 156.33 44.74 154.25L44.74 153.01Q44.74 150.8 45.66 149.61Q46.03 149.12 46.53 148.83Q47.24 148.41 48.19 148.41Q49.44 148.41 50.17 149.03Q50.21 149.06 50.24 149.1Q50.98 149.78 51.2 151.31L52.89 151.31Q52.72 149.6 51.8 148.52Q51.64 148.33 51.46 148.16Q51.27 147.99 51.06 147.84Q49.92 147.02 48.19 147.02Q46.87 147.02 45.82 147.56Q45.65 147.64 45.48 147.75Q45.2 147.92 44.94 148.14Q44.16 148.8 43.68 149.83Q43.04 151.18 43.04 152.96L43.04 154.19Q43.04 156.85 44.34 158.46Q44.37 158.5 44.41 158.55Q44.97 159.21 45.68 159.6Q46.7 160.17 48.04 160.17Q49.95 160.17 51.16 159.25Q51.28 159.17 51.39 159.07Q51.57 158.91 51.73 158.74ZM278.59 148.2Q278.88 147.7 278.88 147.02L277.56 147.02Q277.56 147.57 277.29 147.9Q277.25 147.95 277.21 147.99Q277.17 148.03 277.12 148.07Q276.79 148.33 276.25 148.33Q275.66 148.33 275.33 148.04Q275.3 148.01 275.27 147.99Q275.24 147.95 275.21 147.91Q274.94 147.58 274.94 147.02L273.61 147.02Q273.61 147.67 273.89 148.16Q274.06 148.48 274.34 148.73Q274.46 148.83 274.58 148.91Q275.25 149.38 276.25 149.38Q277.26 149.38 277.94 148.9Q278.05 148.82 278.15 148.73Q278.42 148.5 278.59 148.2ZM72.37 158.84Q73.36 157.52 73.36 155.35L73.36 155.2Q73.36 152.89 72.37 151.6Q71.93 151.04 71.36 150.72Q70.62 150.31 69.65 150.31Q68.51 150.31 67.69 150.82Q67.25 151.11 66.89 151.54L66.82 150.49L65.33 150.49L65.33 163.65L66.96 163.65L66.96 159.07Q67.22 159.37 67.55 159.59Q68.42 160.17 69.68 160.17Q70.58 160.17 71.28 159.8Q71.9 159.47 72.37 158.84ZM81.07 158.99Q81.16 159.71 81.3 160L83 160L83 159.85Q82.67 159.08 82.67 157.77L82.67 153.39Q82.65 152.35 82.15 151.63Q81.96 151.36 81.7 151.13Q81.69 151.12 81.68 151.12Q80.76 150.31 79.13 150.31Q78.1 150.31 77.24 150.69Q77.23 150.69 77.23 150.7Q76.37 151.08 75.86 151.74Q75.86 151.74 75.85 151.75Q75.42 152.32 75.36 152.93Q75.35 153.03 75.35 153.12L76.98 153.12Q76.98 152.93 77.04 152.76Q77.16 152.37 77.57 152.06Q77.63 152.01 77.69 151.97Q78.25 151.62 79.03 151.62Q80.01 151.62 80.52 152.11Q80.53 152.12 80.54 152.12Q80.65 152.24 80.74 152.37Q81.04 152.82 81.04 153.48L81.04 154.23L79.46 154.23Q77.41 154.23 76.29 155.05Q75.8 155.4 75.53 155.87Q75.16 156.5 75.16 157.36Q75.16 158 75.4 158.52Q75.63 159 76.06 159.38Q76.24 159.53 76.44 159.66Q77.24 160.17 78.36 160.17Q79.05 160.17 79.66 159.95Q80.43 159.66 81.07 158.99ZM95.62 152.64Q95.07 153.75 95.07 155.15L95.07 155.27Q95.07 157.21 96 158.48Q96.12 158.66 96.27 158.83Q96.75 159.36 97.34 159.68Q98.24 160.17 99.41 160.17Q100.45 160.17 101.3 159.77Q101.49 159.67 101.68 159.56Q102.01 159.35 102.3 159.08Q102.85 158.57 103.2 157.84Q103.73 156.73 103.73 155.35L103.73 155.23Q103.73 153.25 102.78 151.96Q102.66 151.8 102.53 151.65Q102.06 151.13 101.49 150.81Q100.58 150.31 99.39 150.31Q98.4 150.31 97.59 150.68Q97.36 150.78 97.15 150.92Q96.9 151.07 96.68 151.26Q96.03 151.81 95.62 152.64ZM155.25 158.66Q154.82 158.84 154.31 158.84Q153.5 158.84 152.92 158.47Q152.62 158.27 152.38 157.96Q151.7 157.07 151.7 155.42L151.7 155.12Q151.7 153.43 152.38 152.54Q152.64 152.2 152.97 151.99Q153.53 151.64 154.3 151.64Q154.87 151.64 155.33 151.87Q155.61 152.01 155.85 152.24Q156.09 152.46 156.24 152.72Q156.51 153.17 156.55 153.75L158.09 153.75Q158.05 152.81 157.63 152.09Q157.37 151.64 156.96 151.27Q156.66 150.99 156.31 150.8Q155.45 150.31 154.3 150.31Q153.07 150.31 152.15 150.84Q152.1 150.87 152.05 150.91Q151.75 151.09 151.5 151.33Q150.94 151.84 150.58 152.59Q150.07 153.67 150.07 155.06L150.07 155.33Q150.07 157.5 151.14 158.78Q151.18 158.83 151.22 158.87Q151.6 159.31 152.07 159.59Q153.01 160.17 154.31 160.17Q154.78 160.17 155.22 160.07Q155.69 159.96 156.14 159.73Q156.84 159.38 157.31 158.83Q157.43 158.7 157.53 158.55Q157.95 157.96 158.06 157.3Q158.08 157.15 158.09 157L156.55 157Q156.52 157.33 156.39 157.61Q156.21 158.01 155.83 158.32Q155.56 158.53 155.25 158.66ZM198.31 152.64Q197.76 153.75 197.76 155.15L197.76 155.27Q197.76 157.21 198.69 158.48Q198.82 158.66 198.96 158.83Q199.44 159.36 200.03 159.68Q200.93 160.17 202.1 160.17Q203.14 160.17 203.99 159.77Q204.18 159.67 204.37 159.56Q204.7 159.35 204.99 159.08Q205.54 158.57 205.89 157.84Q206.42 156.73 206.42 155.35L206.42 155.23Q206.42 153.25 205.47 151.96Q205.35 151.8 205.22 151.65Q204.76 151.13 204.18 150.81Q203.27 150.31 202.08 150.31Q201.1 150.31 200.28 150.68Q200.06 150.78 199.84 150.92Q199.59 151.07 199.37 151.26Q198.72 151.81 198.31 152.64ZM215.5 158.84Q216.49 157.52 216.49 155.35L216.49 155.2Q216.49 152.89 215.5 151.6Q215.06 151.04 214.49 150.72Q213.75 150.31 212.78 150.31Q211.64 150.31 210.82 150.82Q210.38 151.11 210.02 151.54L209.95 150.49L208.46 150.49L208.46 163.65L210.09 163.65L210.09 159.07Q210.35 159.37 210.68 159.59Q211.55 160.17 212.81 160.17Q213.71 160.17 214.41 159.8Q215.03 159.47 215.5 158.84ZM237.55 158.99Q237.64 159.71 237.78 160L239.49 160L239.49 159.85Q239.15 159.08 239.15 157.77L239.15 153.39Q239.13 152.35 238.63 151.63Q238.44 151.36 238.18 151.13Q238.18 151.12 238.17 151.12Q237.24 150.31 235.61 150.31Q234.58 150.31 233.72 150.69L233.71 150.7Q232.85 151.08 232.34 151.74L232.34 151.75Q231.9 152.32 231.84 152.93Q231.83 153.03 231.83 153.12L233.47 153.12Q233.47 152.93 233.52 152.76Q233.64 152.37 234.05 152.06Q234.11 152.01 234.18 151.97Q234.73 151.62 235.51 151.62Q236.49 151.62 237 152.11Q237.01 152.12 237.02 152.12Q237.13 152.24 237.22 152.37Q237.53 152.82 237.53 153.48L237.53 154.23L235.94 154.23Q233.9 154.23 232.77 155.05Q232.29 155.4 232.01 155.87Q231.64 156.5 231.64 157.36Q231.64 158 231.88 158.52Q232.11 159 232.54 159.38Q232.72 159.53 232.92 159.66Q233.72 160.17 234.85 160.17Q235.53 160.17 236.14 159.95Q236.91 159.66 237.55 158.99ZM264.48 159.63Q265.43 160.17 266.7 160.17Q268.12 160.17 269.12 159.52Q269.8 159.08 270.28 158.33L269.29 157.56Q268.9 158.07 268.39 158.4Q268.32 158.45 268.24 158.49Q267.65 158.84 266.78 158.84Q266.11 158.84 265.57 158.58Q265.13 158.36 264.79 157.98Q264.67 157.85 264.57 157.72Q263.99 156.91 263.96 155.71L270.41 155.71L270.41 155.03Q270.41 152.75 269.38 151.53Q269.07 151.17 268.7 150.92Q267.8 150.31 266.49 150.31Q266 150.31 265.53 150.43Q264.94 150.58 264.39 150.94Q264.12 151.11 263.89 151.32Q263.27 151.87 262.88 152.68Q262.34 153.79 262.34 155.21L262.34 155.5Q262.34 157.26 263.17 158.43Q263.34 158.68 263.55 158.9Q263.97 159.34 264.48 159.63ZM287.25 152.64Q286.7 153.75 286.7 155.15L286.7 155.27Q286.7 157.21 287.62 158.48Q287.75 158.66 287.9 158.83Q288.37 159.36 288.96 159.68Q289.86 160.17 291.03 160.17Q292.07 160.17 292.92 159.77Q293.12 159.67 293.31 159.56Q293.64 159.35 293.92 159.08Q294.47 158.57 294.83 157.84Q295.36 156.73 295.36 155.35L295.36 155.23Q295.36 153.25 294.41 151.96Q294.29 151.8 294.16 151.65Q293.69 151.13 293.11 150.81Q292.2 150.31 291.02 150.31Q290.03 150.31 289.22 150.68Q288.99 150.78 288.78 150.92Q288.53 151.07 288.31 151.26Q287.66 151.81 287.25 152.64ZM336.78 158.84Q337.77 157.52 337.77 155.35L337.77 155.2Q337.77 152.89 336.78 151.6Q336.34 151.04 335.77 150.72Q335.03 150.31 334.06 150.31Q332.92 150.31 332.1 150.82Q331.66 151.11 331.31 151.54L331.23 150.49L329.74 150.49L329.74 163.65L331.37 163.65L331.37 159.07Q331.64 159.37 331.96 159.59Q332.83 160.17 334.09 160.17Q334.99 160.17 335.69 159.8Q336.31 159.47 336.78 158.84ZM339.96 152.64Q339.41 153.75 339.41 155.15L339.41 155.27Q339.41 157.21 340.33 158.48Q340.46 158.66 340.61 158.83Q341.08 159.36 341.67 159.68Q342.57 160.17 343.74 160.17Q344.78 160.17 345.63 159.77Q345.83 159.67 346.01 159.56Q346.35 159.35 346.63 159.08Q347.18 158.57 347.53 157.84Q348.07 156.73 348.07 155.35L348.07 155.23Q348.07 153.25 347.12 151.96Q347 151.8 346.87 151.65Q346.4 151.13 345.82 150.81Q344.91 150.31 343.72 150.31Q342.74 150.31 341.93 150.68Q341.7 150.78 341.49 150.92Q341.24 151.07 341.02 151.26Q340.37 151.81 339.96 152.64ZM360.51 152.64Q359.96 153.75 359.96 155.15L359.96 155.27Q359.96 157.21 360.88 158.48Q361.01 158.66 361.16 158.83Q361.63 159.36 362.22 159.68Q363.12 160.17 364.29 160.17Q365.33 160.17 366.18 159.77Q366.38 159.67 366.56 159.56Q366.9 159.35 367.18 159.08Q367.73 158.57 368.08 157.84Q368.61 156.73 368.61 155.35L368.61 155.23Q368.61 153.25 367.66 151.96Q367.55 151.8 367.41 151.65Q366.95 151.13 366.37 150.81Q365.46 150.31 364.27 150.31Q363.29 150.31 362.47 150.68Q362.25 150.78 362.04 150.92Q361.79 151.07 361.57 151.26Q360.92 151.81 360.51 152.64ZM419.24 158.84Q420.23 157.52 420.23 155.35L420.23 155.2Q420.23 152.89 419.24 151.6Q418.8 151.04 418.23 150.72Q417.49 150.31 416.52 150.31Q415.38 150.31 414.56 150.82Q414.11 151.11 413.76 151.54L413.68 150.49L412.2 150.49L412.2 163.65L413.83 163.65L413.83 159.07Q414.09 159.37 414.42 159.59Q415.29 160.17 416.55 160.17Q417.45 160.17 418.15 159.8Q418.77 159.47 419.24 158.84ZM424.03 159.63Q424.98 160.17 426.24 160.17Q427.67 160.17 428.67 159.52Q429.35 159.08 429.83 158.33L428.84 157.56Q428.44 158.07 427.93 158.4Q427.86 158.45 427.79 158.49Q427.19 158.84 426.33 158.84Q425.66 158.84 425.12 158.58Q424.68 158.36 424.33 157.98Q424.22 157.85 424.12 157.72Q423.54 156.91 423.51 155.71L429.95 155.71L429.95 155.03Q429.95 152.75 428.93 151.53Q428.62 151.17 428.25 150.92Q427.35 150.31 426.04 150.31Q425.55 150.31 425.08 150.43Q424.48 150.58 423.94 150.94Q423.67 151.11 423.44 151.32Q422.82 151.87 422.43 152.68Q421.89 153.79 421.89 155.21L421.89 155.5Q421.89 157.26 422.71 158.43Q422.89 158.68 423.1 158.9Q423.52 159.34 424.03 159.63ZM111.31 160L112.95 160L112.95 150.49L111.31 150.49L111.31 155.21Q111.02 155.29 110.72 155.35Q109.93 155.5 109.12 155.5Q108.18 155.5 107.67 155.03Q107.09 154.5 107.07 153.37L107.07 150.48L105.44 150.48L105.44 153.32Q105.46 154.82 106.21 155.72Q106.3 155.82 106.4 155.92Q106.42 155.94 106.45 155.97Q107.38 156.83 109.12 156.83Q109.93 156.83 110.72 156.68Q111.02 156.63 111.31 156.55L111.31 160ZM61.09 160L62.72 160L62.72 150.49L55.08 150.49L55.08 160L56.72 160L56.72 151.83L61.09 151.83L61.09 160ZM85.37 150.49L85.37 160L89.67 160Q91.42 160 92.39 159.3Q92.76 159.03 92.98 158.68Q93.35 158.11 93.35 157.3Q93.35 156.83 93.18 156.43Q93.05 156.14 92.83 155.89Q92.73 155.78 92.61 155.68Q92.14 155.26 91.44 155.1Q92.22 154.82 92.61 154.29Q92.81 154.01 92.91 153.71Q93.01 153.42 93.01 153.1Q93.01 152.37 92.69 151.85Q92.44 151.44 91.99 151.15Q90.98 150.49 89.08 150.49L85.37 150.49ZM121.69 160L123.32 160L123.32 150.49L121.69 150.49L121.69 154.61L117.33 154.61L117.33 150.49L115.69 150.49L115.69 160L117.33 160L117.33 155.93L121.69 155.93L121.69 160ZM133.71 150.49L132.08 150.49L127.7 157.43L127.7 150.49L126.07 150.49L126.07 160L127.7 160L132.08 153.06L132.08 160L133.71 160L133.71 150.49ZM138.1 155.94L139.28 155.94L142.58 160L144.64 160L140.56 155.06L144.33 150.49L142.36 150.49L139.16 154.51L138.1 154.51L138.1 150.49L136.46 150.49L136.46 160L138.1 160L138.1 155.94ZM172.15 150.49L170.53 150.49L166.14 157.43L166.14 150.49L164.52 150.49L164.52 160L166.14 160L170.53 153.06L170.53 160L172.15 160L172.15 150.49ZM180.91 160L182.53 160L182.53 150.49L180.91 150.49L180.91 154.61L176.54 154.61L176.54 150.49L174.9 150.49L174.9 160L176.54 160L176.54 155.93L180.91 155.93L180.91 160ZM227.27 150.49L224.03 157.84L220.82 150.49L218.71 150.49L218.71 160L220.33 160L220.33 152.93L223.47 160L224.6 160L227.67 153.08L227.67 160L229.3 160L229.3 150.49L227.27 150.49ZM243.48 150.49L241.84 150.49L241.84 160L249 160L249 162.82L250.45 162.82L250.61 158.67L249.48 158.67L249.48 150.49L247.85 150.49L247.85 158.67L243.48 158.67L243.48 150.49ZM260.14 150.49L258.51 150.49L254.13 157.43L254.13 150.49L252.5 150.49L252.5 160L254.13 160L258.51 153.06L258.51 160L260.14 160L260.14 150.49ZM280.06 150.49L278.44 150.49L274.05 157.43L274.05 150.49L272.43 150.49L272.43 160L274.05 160L278.44 153.06L278.44 160L280.06 160L280.06 150.49ZM319.58 150.49L317.95 150.49L313.57 157.43L313.57 150.49L311.94 150.49L311.94 160L313.57 160L317.95 153.06L317.95 160L319.58 160L319.58 150.49ZM323.95 151.83L328.33 151.83L328.33 150.49L322.31 150.49L322.31 160L323.95 160L323.95 151.83ZM350.25 150.49L350.25 160L354.55 160Q356.31 160 357.27 159.3Q357.64 159.03 357.87 158.68Q358.23 158.11 358.23 157.3Q358.23 156.83 358.06 156.43Q357.93 156.14 357.71 155.89Q357.61 155.78 357.5 155.68Q357.02 155.26 356.33 155.1Q357.1 154.82 357.5 154.29Q357.7 154.01 357.8 153.71Q357.89 153.42 357.89 153.1Q357.89 152.37 357.57 151.85Q357.32 151.44 356.88 151.15Q355.86 150.49 353.96 150.49L350.25 150.49ZM379.36 150.49L376.13 157.84L372.91 150.49L370.8 150.49L370.8 160L372.43 160L372.43 152.93L375.57 160L376.69 160L379.77 153.08L379.77 160L381.39 160L381.39 150.49L379.36 150.49ZM397.17 150.49L393.94 157.84L390.72 150.49L388.61 150.49L388.61 160L390.24 160L390.24 152.93L393.37 160L394.5 160L397.57 153.08L397.57 160L399.2 160L399.2 150.49L397.17 150.49ZM409.59 150.49L407.96 150.49L403.58 157.43L403.58 150.49L401.95 150.49L401.95 160L403.58 160L407.96 153.06L407.96 160L409.59 160L409.59 150.49ZM97.44 157.89Q96.71 156.93 96.71 155.35Q96.71 153.56 97.45 152.6Q97.82 152.12 98.31 151.88Q98.79 151.64 99.39 151.64Q100.01 151.64 100.51 151.9Q101 152.14 101.36 152.62Q102.1 153.59 102.1 155.15Q102.1 156.9 101.37 157.87Q101.03 158.33 100.57 158.58Q100.06 158.84 99.41 158.84Q98.76 158.84 98.25 158.58Q97.79 158.34 97.44 157.89ZM186.99 158.03Q186.42 157.2 186.42 155.6Q186.42 153.56 187 152.6Q187.31 152.08 187.78 151.84Q188.16 151.64 188.65 151.64Q189.19 151.64 189.56 151.8L189.56 158.69Q189.14 158.85 188.63 158.85Q188.02 158.85 187.56 158.58Q187.23 158.38 186.99 158.03ZM193.84 152.63Q194.46 153.62 194.46 155.42Q194.46 157.17 193.86 158.01Q193.59 158.38 193.23 158.59Q192.78 158.85 192.17 158.85Q191.58 158.85 191.18 158.7L191.18 151.82Q191.59 151.64 192.15 151.64Q192.6 151.64 192.98 151.82Q193.49 152.06 193.84 152.63ZM200.13 157.89Q199.4 156.93 199.4 155.35Q199.4 153.56 200.14 152.6Q200.51 152.12 201 151.88Q201.48 151.64 202.08 151.64Q202.7 151.64 203.2 151.9Q203.69 152.14 204.05 152.62Q204.8 153.59 204.8 155.15Q204.8 156.9 204.07 157.87Q203.72 158.33 203.26 158.58Q202.75 158.84 202.1 158.84Q201.45 158.84 200.94 158.58Q200.48 158.34 200.13 157.89ZM265.58 151.83Q265.99 151.64 266.49 151.64Q267.18 151.64 267.67 151.95Q267.91 152.1 268.11 152.33Q268.71 153.01 268.78 154.25L268.78 154.37L264.02 154.37Q264.17 153.08 264.84 152.36Q265.17 152.01 265.58 151.83ZM289.07 157.89Q288.34 156.93 288.34 155.35Q288.34 153.56 289.07 152.6Q289.45 152.12 289.94 151.88Q290.42 151.64 291.02 151.64Q291.64 151.64 292.14 151.9Q292.62 152.14 292.99 152.62Q293.73 153.59 293.73 155.15Q293.73 156.9 293 157.87Q292.66 158.33 292.19 158.58Q291.68 158.84 291.03 158.84Q290.39 158.84 289.88 158.58Q289.42 158.34 289.07 157.89ZM341.78 157.89Q341.04 156.93 341.04 155.35Q341.04 153.56 341.78 152.6Q342.15 152.12 342.65 151.88Q343.13 151.64 343.72 151.64Q344.35 151.64 344.85 151.9Q345.33 152.14 345.7 152.62Q346.44 153.59 346.44 155.15Q346.44 156.9 345.71 157.87Q345.36 158.33 344.9 158.58Q344.39 158.84 343.74 158.84Q343.1 158.84 342.59 158.58Q342.13 158.34 341.78 157.89ZM362.33 157.89Q361.59 156.93 361.59 155.35Q361.59 153.56 362.33 152.6Q362.7 152.12 363.2 151.88Q363.68 151.64 364.27 151.64Q364.9 151.64 365.4 151.9Q365.88 152.14 366.25 152.62Q366.99 153.59 366.99 155.15Q366.99 156.9 366.26 157.87Q365.91 158.33 365.45 158.58Q364.94 158.84 364.29 158.84Q363.64 158.84 363.14 158.58Q362.67 158.34 362.33 157.89ZM425.12 151.83Q425.54 151.64 426.04 151.64Q426.73 151.64 427.22 151.95Q427.46 152.1 427.66 152.33Q428.26 153.01 428.33 154.25L428.33 154.37L423.56 154.37Q423.72 153.08 424.39 152.36Q424.72 152.01 425.12 151.83ZM71.05 152.62Q71.74 153.55 71.74 155.16Q71.74 156.99 71.05 157.92Q70.71 158.37 70.26 158.6Q69.79 158.84 69.19 158.84Q68.43 158.84 67.86 158.51Q67.32 158.18 66.96 157.54L66.96 153Q67.34 152.32 67.92 151.99Q68.46 151.69 69.17 151.69Q69.82 151.69 70.31 151.96Q70.74 152.19 71.05 152.62ZM214.18 152.62Q214.87 153.55 214.87 155.16Q214.87 156.99 214.18 157.92Q213.84 158.37 213.39 158.6Q212.92 158.84 212.32 158.84Q211.56 158.84 210.99 158.51Q210.45 158.18 210.09 157.54L210.09 153Q210.47 152.32 211.05 151.99Q211.59 151.69 212.3 151.69Q212.95 151.69 213.44 151.96Q213.87 152.19 214.18 152.62ZM335.46 152.62Q336.15 153.55 336.15 155.16Q336.15 156.99 335.46 157.92Q335.12 158.37 334.67 158.6Q334.2 158.84 333.6 158.84Q332.84 158.84 332.27 158.51Q331.73 158.18 331.37 157.54L331.37 153Q331.75 152.32 332.33 151.99Q332.87 151.69 333.58 151.69Q334.23 151.69 334.72 151.96Q335.15 152.19 335.46 152.62ZM417.92 152.62Q418.61 153.55 418.61 155.16Q418.61 156.99 417.92 157.92Q417.58 158.37 417.13 158.6Q416.66 158.84 416.06 158.84Q415.3 158.84 414.73 158.51Q414.18 158.18 413.83 157.54L413.83 153Q414.21 152.32 414.79 151.99Q415.33 151.69 416.04 151.69Q416.69 151.69 417.18 151.96Q417.61 152.19 417.92 152.62ZM89.1 154.52L87 154.52L87 151.8L89.22 151.8Q90.79 151.84 91.22 152.55Q91.38 152.82 91.38 153.18Q91.38 153.52 91.23 153.78Q90.8 154.52 89.1 154.52ZM353.98 154.52L351.88 154.52L351.88 151.8L354.1 151.8Q355.68 151.84 356.11 152.55Q356.27 152.82 356.27 153.18Q356.27 153.52 356.12 153.78Q355.68 154.52 353.98 154.52ZM299.89 152.72Q300.46 152.37 301.26 152.37Q302.08 152.37 302.68 152.74Q302.96 152.92 303.18 153.18Q303.25 153.25 303.3 153.33Q303.89 154.11 303.89 155.34Q303.89 157.06 303.19 157.96Q302.89 158.33 302.51 158.55Q301.98 158.85 301.27 158.85Q300.58 158.85 300.05 158.56Q299.66 158.34 299.36 157.96Q298.65 157.07 298.65 155.54L298.65 155.4Q298.65 153.97 299.36 153.17Q299.59 152.9 299.89 152.72ZM79.16 158.7Q78.89 158.76 78.6 158.76Q77.91 158.76 77.44 158.44Q77.36 158.39 77.29 158.33Q77.13 158.19 77.02 158.02Q76.78 157.66 76.78 157.13Q76.78 156.68 76.98 156.35Q77.54 155.38 79.77 155.38L81.04 155.38L81.04 157.33Q80.99 157.44 80.93 157.54Q80.62 158.03 80.05 158.36Q79.62 158.61 79.16 158.7ZM235.64 158.7Q235.37 158.76 235.08 158.76Q234.39 158.76 233.92 158.44Q233.84 158.39 233.77 158.33Q233.61 158.19 233.5 158.02Q233.26 157.66 233.26 157.13Q233.26 156.68 233.46 156.35Q234.03 155.38 236.25 155.38L237.53 155.38L237.53 157.33Q237.47 157.44 237.41 157.54Q237.1 158.03 236.53 158.36Q236.1 158.61 235.64 158.7ZM87 158.69L87 155.82L89.62 155.82Q91.05 155.82 91.51 156.49Q91.71 156.79 91.71 157.24Q91.71 157.66 91.53 157.96Q91.41 158.16 91.21 158.31Q90.7 158.69 89.68 158.69L87 158.69ZM351.88 158.69L351.88 155.82L354.51 155.82Q355.94 155.82 356.39 156.49Q356.6 156.79 356.6 157.24Q356.6 157.66 356.42 157.96Q356.3 158.16 356.09 158.31Q355.59 158.69 354.57 158.69L351.88 158.69Z" fill="#FFFFFF" fill-opacity="1.000000" fill-rule="evenodd"/>
	<g clip-path="url(#clip15_45)">
		<path id="Vector" d="M29.33 158.33L29.33 142.33C29.33 140.86 28.13 139.66 26.66 139.66L10.66 139.66C9.2 139.66 8 140.86 8 142.33L8 158.33C8 159.8 9.2 161 10.66 161L26.66 161C28.13 161 29.33 159.8 29.33 158.33ZM14.66 153L17.37 156.61L21.33 151.66L26.66 158.33L10.66 158.33L14.66 153ZM2.66 145L2.66 163.66C2.66 165.13 3.86 166.33 5.33 166.33L24 166.33L24 163.66L5.33 163.66L5.33 145L2.66 145Z" fill="#F8F200" fill-opacity="1.000000" fill-rule="nonzero"/>
	</g>
	<path id="В комплект входит:" d="M1.52 4.93L1.52 22L8.15 22Q11.06 21.97 12.63 20.71Q13.01 20.4 13.3 20.01Q14.2 18.84 14.2 16.98Q14.2 15.78 13.67 14.88Q13.57 14.71 13.44 14.54Q13.2 14.22 12.89 13.97Q12.26 13.44 11.37 13.22Q12.16 12.91 12.71 12.37Q12.96 12.12 13.17 11.82Q13.33 11.57 13.46 11.31Q13.81 10.54 13.81 9.61Q13.81 8.07 13.09 7.03Q12.74 6.52 12.21 6.12Q10.6 4.93 7.5 4.93L1.52 4.93ZM7.64 12.08L5.03 12.08L5.03 7.78L7.5 7.78Q8.95 7.78 9.62 8.29Q9.72 8.36 9.8 8.45Q10.3 8.96 10.3 9.96Q10.3 10.74 9.92 11.23Q9.3 12.05 7.64 12.08ZM218.4 9.83Q218.19 10.22 218.19 10.73Q218.19 11.23 218.4 11.61Q218.52 11.84 218.73 12.03Q218.87 12.16 219.04 12.26Q219.49 12.53 220.1 12.53Q220.73 12.53 221.2 12.24Q221.35 12.15 221.48 12.03Q221.68 11.84 221.81 11.61Q222.02 11.23 222.02 10.73Q222.02 10.22 221.8 9.83Q221.67 9.61 221.47 9.42Q221.32 9.27 221.13 9.17Q220.69 8.92 220.1 8.92Q219.54 8.92 219.1 9.15Q218.9 9.26 218.73 9.42Q218.53 9.61 218.4 9.83ZM35.64 12.17Q34.92 13.65 34.92 15.54L34.92 15.69Q34.92 18.4 36.23 20.09Q36.38 20.29 36.55 20.47Q37.04 20.99 37.62 21.36Q39 22.23 40.93 22.23Q42.85 22.23 44.23 21.36Q44.81 20.99 45.3 20.47Q45.55 20.19 45.77 19.89Q46.93 18.25 46.93 15.78L46.91 14.92Q46.75 12.68 45.6 11.22Q45.37 10.92 45.09 10.65Q44.64 10.21 44.12 9.9Q42.76 9.08 40.91 9.08Q39.22 9.08 37.91 9.79Q37.82 9.84 37.74 9.89Q37.2 10.2 36.77 10.62Q36.09 11.27 35.64 12.17ZM96.84 21.34Q98.32 22.23 100.33 22.23Q101.91 22.23 103.21 21.63Q104.26 21.14 104.96 20.35Q105.13 20.16 105.28 19.94L103.61 18.08Q103.18 18.63 102.62 18.97Q101.75 19.5 100.55 19.5Q99.62 19.5 98.93 19.09Q98.68 18.95 98.46 18.75Q98.25 18.55 98.08 18.32Q97.59 17.67 97.47 16.76L105.55 16.76L105.55 15.37Q105.55 12.36 104.05 10.72Q103.66 10.29 103.18 9.97Q101.87 9.08 99.96 9.08Q98.54 9.08 97.38 9.62Q97.12 9.75 96.87 9.9Q96.44 10.15 96.08 10.48Q95.28 11.18 94.78 12.22Q94.04 13.72 94.04 15.63L94.04 15.96Q94.04 18.07 95 19.56Q95.34 20.08 95.79 20.52Q96.28 20.99 96.84 21.34ZM164.71 12.17Q163.99 13.65 163.99 15.54L163.99 15.69Q163.99 18.4 165.3 20.09Q165.45 20.29 165.62 20.47Q166.11 20.99 166.69 21.36Q168.07 22.23 170 22.23Q171.92 22.23 173.3 21.36Q173.88 20.99 174.37 20.47Q174.62 20.19 174.84 19.89Q176 18.25 176 15.78L175.98 14.92Q175.82 12.68 174.67 11.22Q174.44 10.92 174.17 10.65Q173.71 10.21 173.19 9.9Q171.83 9.08 169.98 9.08Q168.29 9.08 166.98 9.79Q166.89 9.84 166.81 9.89Q166.28 10.2 165.84 10.62Q165.16 11.27 164.71 12.17ZM26.2 17.32L27.56 17.32L30.32 22L34.83 22L30.3 15.35L34.45 9.32L30.17 9.32L27.41 14.08L26.2 14.08L26.2 9.32L22.81 9.32L22.81 22L26.2 22L26.2 17.32ZM60.05 9.32L56.74 18L53.44 9.32L49.24 9.32L49.24 22L52.62 22L52.62 14.34L55.6 22L57.87 22L60.91 14.21L60.91 22L64.3 22L64.3 9.32L60.05 9.32ZM74.87 22L78.26 22L78.26 9.32L67.24 9.32L67.24 22L70.62 22L70.62 12.06L74.87 12.06L74.87 22ZM91.88 22L91.88 9.32L82.33 9.32L82.1 14.69Q81.99 17.12 81.57 18.13Q81.29 18.79 80.8 19.05Q80.55 19.18 80.23 19.21L79.81 19.24L79.85 22L81 22Q82.38 21.97 83.3 21.31Q83.73 20.99 84.07 20.53Q85.1 19.1 85.3 15.97L85.51 12.06L88.5 12.06L88.5 22L91.88 22ZM111.08 17.32L112.44 17.32L115.2 22L119.71 22L115.18 15.35L119.33 9.32L115.05 9.32L112.28 14.08L111.08 14.08L111.08 9.32L107.69 9.32L107.69 22L111.08 22L111.08 17.32ZM127.45 12.03L131.52 12.03L131.52 9.32L120.05 9.32L120.05 12.03L124.05 12.03L124.05 22L127.45 22L127.45 12.03ZM139.41 9.32L139.41 22L145.52 22Q148.05 22 149.38 21.07Q149.91 20.7 150.23 20.2Q150.71 19.44 150.71 18.37Q150.71 17.8 150.5 17.31Q150.3 16.88 149.93 16.52Q149.15 15.76 147.79 15.5Q148.91 15.13 149.49 14.43Q149.82 14.03 149.96 13.58Q150.07 13.23 150.07 12.85Q150.07 11.94 149.67 11.25Q149.33 10.65 148.68 10.23Q147.3 9.32 144.71 9.32L139.41 9.32ZM159.73 9.32L157.6 13.1L155.52 9.32L151.88 9.32L155.48 15.53L151.72 22L155.36 22L157.61 18.01L159.87 22L163.51 22L159.75 15.53L163.35 9.32L159.73 9.32ZM178.98 16.85Q178.57 18.05 177.42 19.26L176.33 19.26L176.33 25.8L179.78 25.8L179.78 22L187.3 22L187.3 25.8L190.68 25.8L190.68 19.26L188.85 19.26L188.85 9.32L179.53 9.32L179.43 13.46Q179.39 15.66 178.98 16.85ZM203.21 9.32L199.82 9.32L195.58 17.13L195.58 9.32L192.18 9.32L192.18 22L195.58 22L199.82 14.17L199.82 22L203.21 22L203.21 9.32ZM212.26 12.03L216.32 12.03L216.32 9.32L204.86 9.32L204.86 12.03L208.86 12.03L208.86 22L212.26 22L212.26 12.03ZM38.98 18.54Q38.3 17.59 38.3 15.78Q38.3 13.76 38.98 12.79Q39.28 12.36 39.69 12.12Q40.21 11.82 40.91 11.82Q41.61 11.82 42.13 12.13Q42.55 12.37 42.85 12.8Q43.54 13.77 43.54 15.54Q43.54 17.61 42.85 18.56Q42.55 18.97 42.14 19.2Q41.62 19.5 40.93 19.5Q40.18 19.5 39.64 19.17Q39.26 18.93 38.98 18.54ZM98.82 12.09Q99.31 11.82 99.94 11.82Q100.87 11.82 101.43 12.27Q101.52 12.35 101.61 12.44Q101.63 12.46 101.64 12.47Q102.2 13.08 102.22 14.18L102.22 14.45L97.51 14.45Q97.68 13.18 98.31 12.5Q98.54 12.25 98.82 12.09ZM168.05 18.54Q167.37 17.59 167.37 15.78Q167.37 13.76 168.05 12.79Q168.35 12.36 168.76 12.12Q169.28 11.82 169.98 11.82Q170.68 11.82 171.2 12.13Q171.62 12.37 171.92 12.8Q172.61 13.77 172.61 15.54Q172.61 17.61 171.92 18.56Q171.62 18.97 171.21 19.2Q170.69 19.5 170 19.5Q169.25 19.5 168.71 19.17Q168.33 18.93 168.05 18.54ZM144.9 14.46L142.8 14.46L142.8 12.03L144.71 12.03Q145.71 12.03 146.19 12.33Q146.34 12.42 146.44 12.54Q146.68 12.83 146.68 13.31Q146.68 13.63 146.54 13.86Q146.17 14.44 144.9 14.46ZM185.48 19.26L181.41 19.26Q182.71 17.13 182.82 13.64L182.84 12.12L185.48 12.12L185.48 19.26ZM5.03 19.17L5.03 14.57L8.26 14.57Q9.51 14.58 10.12 15.22Q10.68 15.81 10.68 16.94Q10.68 17.66 10.36 18.16Q10.21 18.39 9.99 18.58Q9.29 19.17 8.05 19.17L5.03 19.17ZM142.8 19.29L142.8 16.73L145.61 16.73Q146.71 16.75 147.11 17.28Q147.32 17.58 147.32 18.03Q147.32 18.45 147.13 18.72Q146.73 19.29 145.53 19.29L142.8 19.29ZM218.4 19.43Q218.19 19.82 218.19 20.33Q218.19 20.83 218.4 21.21Q218.52 21.44 218.73 21.63Q218.87 21.76 219.04 21.86Q219.49 22.12 220.1 22.12Q220.73 22.12 221.2 21.84Q221.35 21.75 221.48 21.63Q221.68 21.44 221.81 21.21Q222.02 20.83 222.02 20.33Q222.02 19.82 221.8 19.43Q221.67 19.2 221.47 19.02Q221.32 18.87 221.13 18.77Q220.69 18.51 220.1 18.51Q219.54 18.51 219.1 18.75Q218.9 18.86 218.73 19.02Q218.53 19.2 218.4 19.43Z" fill="#52BEDC" fill-opacity="1.000000" fill-rule="evenodd"/>
</svg>
