<svg width="319.000000" height="186.268066" viewBox="0 0 319 186.268" fill="none" xmlns="http://www.w3.org/2000/svg" xmlns:xlink="http://www.w3.org/1999/xlink">
	<desc>
			Created with Pixso.
	</desc>
	<defs>
		<clipPath id="clip17_68">
			<rect id="stadia logo" rx="0.000000" width="57.000000" height="49.268284" transform="translate(3.500000 136.500000)" fill="white" fill-opacity="0"/>
		</clipPath>
		<clipPath id="clip17_35">
			<rect id="Playstation logo" rx="0.000000" width="167.000000" height="34.187801" transform="translate(141.500000 144.500000)" fill="white" fill-opacity="0"/>
		</clipPath>
		<clipPath id="clip15_59">
			<rect id="xbox-one-3 logo" rx="0.000000" width="177.000000" height="34.187801" transform="translate(141.500000 53.785156)" fill="white" fill-opacity="0"/>
		</clipPath>
	</defs>
	<rect id="stadia logo" rx="0.000000" width="57.000000" height="49.268284" transform="translate(3.500000 136.500000)" fill="#FFFFFF" fill-opacity="0"/>
	<g clip-path="url(#clip17_68)">
		<path id="Fill-1" d="M11.91 144.19C11.69 144.36 11.57 144.61 11.56 144.88L11.56 144.89C11.57 145 11.59 145.11 11.63 145.22L15.55 154.36C15.72 154.77 16.17 154.96 16.57 154.82C19.13 153.87 28 150.89 33.74 152.5C33.74 152.5 27.98 152.84 22.78 157.06C22.48 157.29 22.38 157.71 22.53 158.06C22.96 159.04 23.81 161.02 24.29 162.14L24.96 163.77C25.12 164.16 25.63 164.21 25.86 163.86C27.07 161.97 29.12 161.03 31.09 160.2C33.1 159.36 35.21 158.73 37.35 158.36C39.64 157.96 41.97 157.85 44.28 158.07C44.67 158.1 45.02 157.86 45.14 157.48L46.91 151.65C47.01 151.31 46.89 150.93 46.61 150.72C44.64 149.25 36.83 144.3 23.11 146.29C23.11 146.29 34.82 139.35 49.69 146.97C50.14 147.21 50.68 146.96 50.83 146.47L52.39 141.33C52.41 141.25 52.42 141.17 52.43 141.09L52.43 141.07C52.42 140.78 52.27 140.5 52.01 140.35C50.15 139.26 43.83 136 35.14 136C28.48 136 20.42 137.91 11.91 144.19Z" fill="#FBF503" fill-opacity="1.000000" fill-rule="evenodd"/>
		<path id="Shape" d="M19.42 186.25L18.01 186.25C17.9 186.25 17.8 186.21 17.72 186.13C17.65 186.05 17.61 185.95 17.61 185.84L17.61 177.4L14.15 177.4C13.93 177.4 13.75 177.22 13.75 176.99L13.75 175.68C13.75 175.45 13.93 175.27 14.15 175.27L23.28 175.27C23.5 175.27 23.68 175.45 23.68 175.68L23.68 176.99C23.68 177.22 23.5 177.4 23.28 177.4L19.82 177.4L19.82 185.84C19.82 185.95 19.78 186.05 19.7 186.13C19.63 186.21 19.52 186.25 19.42 186.25ZM12.82 185.45C13.34 184.92 13.55 184.24 13.55 183.11L13.55 182.82C13.55 181.69 13.34 181.01 12.82 180.47C12.27 179.91 11.55 179.68 10.32 179.68L5.85 179.68C5.67 179.68 5.5 179.6 5.38 179.47C5.25 179.34 5.18 179.17 5.18 178.98L5.18 178.1C5.18 177.71 5.48 177.4 5.85 177.4L12.25 177.4C12.47 177.4 12.65 177.22 12.65 176.99L12.65 175.68C12.65 175.45 12.47 175.27 12.25 175.27L6.23 175.27C5 175.27 4.27 175.5 3.72 176.07C3.21 176.6 3 177.28 3 178.41L3 178.64C3 179.77 3.21 180.45 3.72 180.98C4.27 181.55 5 181.78 6.23 181.78L10.71 181.78C11.08 181.78 11.38 182.09 11.38 182.47L11.38 183.42C11.38 183.8 11.08 184.11 10.71 184.11L3.98 184.11C3.75 184.11 3.57 184.3 3.57 184.53L3.57 185.84C3.57 185.95 3.62 186.05 3.69 186.13C3.77 186.21 3.87 186.25 3.98 186.25L10.32 186.25C11.55 186.25 12.27 186.02 12.82 185.45ZM44.74 180.73L44.74 180.8C44.74 182.92 44.42 184.01 43.5 184.95C42.66 185.83 41.4 186.26 39.75 186.26L34.88 186.26C34.66 186.26 34.48 186.08 34.48 185.85L34.48 175.68C34.48 175.45 34.66 175.27 34.88 175.27L39.75 175.27C41.4 175.27 42.66 175.71 43.5 176.58C44.42 177.53 44.74 178.61 44.74 180.73ZM42.53 180.73C42.53 179.32 42.44 178.64 41.91 178.09C41.47 177.64 40.77 177.42 39.75 177.42L36.7 177.42L36.7 184.11L39.75 184.11C40.77 184.11 41.47 183.89 41.91 183.44C42.44 182.89 42.53 182.21 42.53 180.8L42.53 180.73ZM48.33 185.84L48.33 175.68C48.33 175.45 48.15 175.27 47.93 175.27L46.52 175.27C46.3 175.27 46.12 175.45 46.12 175.68L46.12 185.84C46.12 186.06 46.3 186.25 46.52 186.25L47.93 186.25C48.04 186.25 48.14 186.21 48.22 186.13C48.29 186.05 48.34 185.95 48.34 185.84L48.33 185.84ZM33.19 186.25L31.69 186.25C31.48 186.25 31.29 186.12 31.21 185.93L30.52 184.39L24.98 184.39L24.29 185.93C24.21 186.12 24.02 186.25 23.81 186.25L22.31 186.25C22.17 186.25 22.04 186.18 21.97 186.06C21.9 185.93 21.89 185.78 21.95 185.66L26.48 175.91C26.72 175.41 27.21 175.09 27.75 175.09C28.29 175.09 28.78 175.41 29.02 175.91L33.55 185.65C33.61 185.78 33.6 185.93 33.53 186.06C33.45 186.18 33.33 186.25 33.19 186.25L33.19 186.25ZM25.89 182.36L29.62 182.36L27.76 177.97L25.89 182.36ZM60.59 186.25L59.1 186.25C58.89 186.25 58.7 186.12 58.61 185.93L57.93 184.39L52.39 184.39L51.7 185.93C51.61 186.12 51.42 186.25 51.22 186.25L49.72 186.25C49.58 186.25 49.45 186.18 49.38 186.06C49.3 185.93 49.29 185.78 49.35 185.66L53.89 175.91C54.12 175.41 54.61 175.09 55.15 175.09C55.69 175.09 56.19 175.41 56.42 175.91L60.95 185.65C61.02 185.78 61.01 185.93 60.93 186.06C60.86 186.18 60.73 186.25 60.59 186.25L60.59 186.25ZM53.29 182.36L57.02 182.36L55.16 177.97L53.29 182.36Z" fill="#FBF503" fill-opacity="1.000000" fill-rule="nonzero"/>
	</g>
	<rect id="Frame 13" rx="0.000000" width="61.000000" height="34.187801" transform="translate(0.500000 53.500000)" fill="#FFFFFF" fill-opacity="0"/>
	<path id="PC" d="M36.55 85.5C38.33 86.5 40.37 87 42.69 87L47.56 87C49.85 87 51.86 86.5 53.61 85.5Q54.68 84.87 55.56 84.03Q56.82 82.82 57.67 81.19C58.63 79.31 59.11 77.15 59.11 74.7L52.98 74.7C52.98 76.72 52.47 78.36 51.44 79.6C50.45 80.84 49.16 81.46 47.56 81.46L42.69 81.46C41.06 81.46 39.76 80.84 38.76 79.6Q38.74 79.57 38.72 79.54Q37.27 77.64 37.27 74.65L37.27 66.84Q37.27 63.93 38.68 62.1Q38.74 62.02 38.81 61.94Q39.51 61.07 40.42 60.6Q41.5 60.04 42.87 60.04L47.65 60.04Q49.02 60.04 50.08 60.61Q50.84 61.01 51.44 61.71C52.41 62.8 52.89 64.26 52.89 66.07L59.02 66.07Q59.02 62.62 57.58 60.04C56.65 58.28 55.32 56.92 53.61 55.95C51.89 54.98 49.91 54.5 47.65 54.5L42.87 54.5C40.52 54.5 38.45 55 36.64 56Q35.56 56.61 34.66 57.43Q33.37 58.62 32.49 60.26C31.53 62.08 31.05 64.18 31.05 66.57L31.05 74.92C31.05 77.31 31.53 79.43 32.49 81.28C33.45 83.09 34.81 84.5 36.55 85.5ZM19.16 54.86L2.51 54.86L2.51 86.63L8.74 86.63L8.74 76.6L18.8 76.6C20.73 76.6 22.41 76.24 23.86 75.51Q25.41 74.72 26.48 73.49Q26.92 72.97 27.28 72.38Q27.47 72.07 27.63 71.75Q28.5 69.94 28.5 67.71L28.5 63.49C28.5 61.79 28.11 60.29 27.33 58.99C26.55 57.66 25.45 56.65 24.04 55.95Q21.91 54.86 19.16 54.86ZM21.28 70.16C20.62 70.82 19.76 71.16 18.71 71.16L8.74 71.16L8.74 60.31L19.07 60.31C20.03 60.31 20.8 60.63 21.37 61.26Q21.51 61.4 21.63 61.56Q22.28 62.41 22.28 63.76L22.28 67.43Q22.28 68.72 21.69 69.64Q21.51 69.92 21.28 70.16Z" fill="#FBF503" fill-opacity="1.000000" fill-rule="evenodd"/>
	<rect id="Playstation logo" rx="0.000000" width="167.000000" height="34.187801" transform="translate(141.500000 144.500000)" fill="#FFFFFF" fill-opacity="0"/>
	<g clip-path="url(#clip17_35)">
		<rect id="Rectangle" x="140.690308" y="144.058105" width="168.626678" height="35.324333" fill="url(#pattern_17_360)" fill-opacity="1.000000"/>
		<path id="Vector" d="M305.16 173.7L305.48 173.7L305.48 171.55L306.26 171.55L306.26 171.27L304.38 171.27L304.38 171.55L305.16 171.55L305.16 173.7Z" fill="#FBF503" fill-opacity="1.000000" fill-rule="nonzero"/>
		<path id="Vector" d="M306.89 171.72L307.54 173.7L307.86 173.7L308.52 171.72L308.52 173.7L308.79 173.7L308.79 171.27L308.39 171.27L307.71 173.35L307.01 171.27L306.56 171.27L306.56 173.7L306.89 173.7L306.89 171.72Z" fill="#FBF503" fill-opacity="1.000000" fill-rule="nonzero"/>
		<path id="Vector" d="M253.02 167.87L253.02 157.8C253.02 155.75 253.98 154.28 256.01 154.28L268.55 154.28C268.63 154.28 268.7 154.2 268.7 154.13L268.7 152.13C268.7 152.11 268.7 152.09 268.69 152.07L253.35 152.07C250.03 152.5 248.41 154.83 248.41 157.8L248.41 167.87C248.41 169.92 247.43 171.39 245.42 171.39L232.17 171.39C232.1 171.39 232.02 171.44 232.02 171.54L232.02 173.55C232.02 173.63 232.07 173.69 232.13 173.72L247.17 173.72C251.09 173.61 253.02 171.1 253.02 167.87Z" fill="#FBF503" fill-opacity="1.000000" fill-rule="nonzero"/>
		<path id="Vector" d="M201.49 173.72L205.9 173.72C205.96 173.69 206.01 173.63 206.01 173.55L206.01 167.13C206.01 165.08 207.16 163.66 208.84 163.66L226.98 163.66C231.07 163.66 233.05 161.13 233.05 157.8C233.05 154.83 231.43 152.5 228.11 152.07L201.41 152.07C201.4 152.09 201.39 152.1 201.39 152.13L201.39 154.13C201.39 154.23 201.44 154.28 201.54 154.28L225.45 154.28C227.48 154.28 228.44 155.75 228.44 157.8C228.44 159.86 227.48 161.33 225.45 161.33L206.53 161.33C203.6 161.33 201.39 163.84 201.39 167.13L201.39 173.55C201.39 173.63 201.43 173.69 201.49 173.72Z" fill="#FBF503" fill-opacity="1.000000" fill-rule="nonzero"/>
		<path id="Vector" d="M268.63 171.39L292.71 171.39C292.79 171.39 292.84 171.44 292.84 171.49L292.84 173.55C292.84 173.65 292.91 173.7 292.99 173.7L297.33 173.7C297.41 173.7 297.48 173.65 297.48 173.55L297.48 171.55C297.48 171.47 297.56 171.39 297.63 171.39L301.94 171.39C302.04 171.39 302.1 171.32 302.1 171.24L302.1 169.21C302.1 169.14 302.04 169.06 301.94 169.06L297.63 169.06C297.56 169.06 297.48 168.98 297.48 168.91L297.48 154.28C297.48 153.09 297.04 152.33 296.3 152.07L295.04 152.07C294.65 152.17 294.22 152.36 293.77 152.63L267.82 168.73C266.82 169.36 266.47 170.07 266.72 170.61C266.92 171.06 267.5 171.39 268.63 171.39ZM272.39 168.71L292.49 156.21C292.61 156.11 292.86 156.13 292.86 156.41L292.86 168.91C292.86 168.99 292.79 169.06 292.71 169.06L272.51 169.06C272.34 169.06 272.26 169.01 272.24 168.96C272.21 168.86 272.26 168.78 272.39 168.71Z" fill="#FBF503" fill-opacity="1.000000" fill-rule="nonzero"/>
		<path id="Vector" d="M157.82 144C159.78 144.36 161.7 144.89 163.62 145.43C164.71 145.75 165.8 146.08 166.89 146.43C168.59 146.98 170.29 147.6 171.83 148.52C172.53 148.94 173.19 149.42 173.76 150C174.37 150.6 174.88 151.32 175.24 152.1C175.92 153.51 176.15 155.09 176.22 156.64C176.25 157.66 176.25 158.68 176.06 159.68C175.9 160.55 175.62 161.4 175.16 162.16C174.75 162.82 174.19 163.4 173.5 163.77C172.84 164.13 172.08 164.3 171.33 164.28C170.19 164.3 169.09 163.93 168.07 163.45C168.05 160.05 168.07 156.64 168.06 153.23C168.06 152.61 168.1 151.99 167.97 151.38C167.89 150.91 167.7 150.43 167.33 150.11C167.08 149.89 166.77 149.77 166.45 149.7C166.13 149.64 165.78 149.77 165.59 150.03C165.25 150.45 165.17 151 165.15 151.52C165.15 160.64 165.16 169.77 165.15 178.9C162.71 178.12 160.26 177.34 157.82 176.56C157.82 165.71 157.82 154.85 157.82 144Z" fill="#FBF503" fill-opacity="1.000000" fill-rule="nonzero"/>
		<path id="Vector" d="M146.84 167.09C150.03 165.96 153.21 164.81 156.39 163.68C156.4 164.94 156.39 166.2 156.4 167.46C156.39 167.63 156.41 167.8 156.38 167.97C153.87 168.86 151.35 169.78 148.84 170.68C148.49 170.81 148.13 170.96 147.86 171.23C147.74 171.36 147.63 171.54 147.7 171.72C147.79 171.93 148 172.05 148.2 172.14C148.75 172.36 149.36 172.39 149.95 172.42C150.6 172.41 151.26 172.36 151.9 172.22C152.34 172.13 152.75 171.99 153.17 171.83C154.24 171.44 155.32 171.04 156.39 170.66C156.4 171.72 156.39 172.78 156.4 173.85C156.39 174.06 156.41 174.28 156.39 174.49C155.06 174.73 153.72 174.89 152.38 174.91C149.67 174.97 146.96 174.55 144.39 173.7C143.55 173.45 142.71 173.13 142.01 172.59C141.62 172.29 141.27 171.91 141.1 171.44C140.95 171.05 140.96 170.59 141.14 170.21C141.32 169.83 141.63 169.53 141.97 169.29C142.76 168.75 143.63 168.33 144.52 167.96C145.28 167.63 146.07 167.38 146.84 167.09Z" fill="#FBF503" fill-opacity="1.000000" fill-rule="nonzero"/>
		<path id="Vector" d="M172.47 165.66C173.19 165.58 173.92 165.56 174.64 165.53C177.03 165.54 179.43 165.84 181.72 166.56C182.16 166.7 182.6 166.87 183.05 167.02C183.84 167.31 184.64 167.66 185.28 168.24C185.66 168.59 185.99 169.06 185.99 169.6C186.02 170.04 185.82 170.46 185.53 170.79C184.99 171.4 184.28 171.81 183.56 172.18C182.8 172.57 181.98 172.82 181.18 173.12C176.3 174.88 171.42 176.64 166.54 178.41C166.54 177.03 166.54 175.66 166.54 174.29C166.55 174.23 166.52 174.13 166.59 174.12C170.31 172.79 174.02 171.46 177.73 170.13C178.24 169.94 178.78 169.8 179.2 169.46C179.38 169.32 179.55 169.1 179.46 168.87C179.37 168.66 179.16 168.55 178.96 168.46C178.41 168.24 177.8 168.2 177.21 168.18C176.29 168.19 175.35 168.3 174.47 168.6C171.83 169.53 169.19 170.47 166.54 171.4C166.54 169.93 166.54 168.45 166.54 166.98C168.45 166.3 170.45 165.89 172.47 165.66Z" fill="#FBF503" fill-opacity="1.000000" fill-rule="nonzero"/>
		<path id="Vector" d="M183.32 175.83C183.89 175.75 184.5 176.01 184.84 176.48C185.22 176.97 185.29 177.67 185.02 178.23C184.75 178.8 184.14 179.2 183.5 179.18C182.91 179.2 182.35 178.85 182.06 178.34C181.8 177.9 181.76 177.32 181.97 176.85C182.19 176.29 182.73 175.89 183.32 175.83ZM183.19 176.14C182.87 176.21 182.57 176.41 182.38 176.68C182.15 177 182.06 177.42 182.15 177.8C182.22 178.16 182.45 178.48 182.75 178.68C183.22 178.99 183.88 178.97 184.33 178.63C184.79 178.3 185.01 177.67 184.85 177.13C184.75 176.76 184.49 176.44 184.16 176.26C183.87 176.1 183.51 176.06 183.19 176.14Z" fill="#FBF503" fill-opacity="1.000000" fill-rule="nonzero"/>
		<path id="Vector" d="M182.79 176.53C183.09 176.53 183.39 176.53 183.7 176.53C183.87 176.53 184.05 176.57 184.17 176.7C184.3 176.84 184.31 177.04 184.27 177.22C184.25 177.33 184.15 177.4 184.08 177.48C184.14 177.53 184.22 177.59 184.24 177.68C184.27 177.85 184.24 178.04 184.29 178.21C184.33 178.27 184.36 178.33 184.37 178.4C184.24 178.4 184.12 178.4 183.99 178.4C183.91 178.2 183.97 177.98 183.92 177.78C183.9 177.69 183.81 177.64 183.73 177.64C183.53 177.63 183.32 177.64 183.12 177.64C183.12 177.89 183.13 178.15 183.11 178.4C183.01 178.4 182.9 178.4 182.79 178.4C182.79 177.78 182.79 177.16 182.79 176.53ZM183.12 176.83C183.12 177 183.12 177.17 183.12 177.35C183.3 177.35 183.48 177.35 183.67 177.35C183.76 177.35 183.86 177.33 183.92 177.25C183.98 177.15 183.98 177.02 183.92 176.92C183.88 176.84 183.78 176.84 183.7 176.83C183.5 176.82 183.31 176.83 183.12 176.83Z" fill="#FBF503" fill-opacity="1.000000" fill-rule="nonzero"/>
	</g>
	<rect id="xbox-one-3 logo" rx="0.000000" width="177.000000" height="34.187801" transform="translate(141.500000 53.785156)" fill="#FFFFFF" fill-opacity="0"/>
	<g clip-path="url(#clip15_59)">
		<path id="Vector" d="M254.88 81.71L248.08 72.55L241.29 81.71L238.5 81.71L246.67 70.65L239.21 60.6L242 60.6L248.08 68.79L254.16 60.6L256.95 60.6L249.5 70.65L257.67 81.71L254.88 81.71ZM201.93 81.7L193.75 70.65L201.21 60.6L198.42 60.6L192.34 68.8L186.26 60.6L183.47 60.6L190.93 70.65L182.75 81.7L185.55 81.7L192.34 72.55L199.13 81.7L201.93 81.7Z" fill="#FBF503" fill-opacity="1.000000" fill-rule="nonzero"/>
		<path id="Vector" d="M217.48 71.45C217.06 71.09 216.59 70.79 216.08 70.57C216.86 70.16 217.5 69.55 217.95 68.8C218.41 68.06 218.64 67.21 218.64 66.34C218.64 64.99 218.14 60.6 211.73 60.6L203.09 60.6L203.09 69.7L200.22 69.7C199.84 70.18 199 71.34 198.67 71.81L203.09 71.81L203.09 81.7L211.73 81.7C216.41 81.7 219.32 79.35 219.32 75.54C219.32 73.88 218.68 72.47 217.48 71.45ZM205.48 62.8L211.73 62.8C213.42 62.8 216.25 63.22 216.25 66.15C216.25 68.37 214.6 69.7 211.73 69.7L205.48 69.7L205.48 62.8ZM211.73 79.5L205.48 79.5L205.48 71.82L211.73 71.82C214.1 71.82 216.93 72.47 216.93 75.5C216.93 78.98 213.67 79.5 211.73 79.5ZM230.55 60.11C224.58 60.11 220.4 64.65 220.4 71.14C220.4 77.64 224.58 82.17 230.55 82.17C236.52 82.17 240.68 77.64 240.68 71.14C240.68 64.65 236.52 60.11 230.55 60.11ZM230.55 79.94C226 79.94 222.81 76.32 222.81 71.14C222.81 65.96 226 62.34 230.55 62.34C235.09 62.34 238.27 65.96 238.27 71.14C238.27 76.32 235.09 79.94 230.55 79.94ZM146.29 58.34L146.28 58.35L146.28 58.36C144.6 59.99 143.27 61.94 142.37 64.09C141.46 66.24 141 68.54 141 70.87C141 74.73 142.27 78.47 144.63 81.53C144.65 81.56 144.69 81.58 144.72 81.56C144.75 81.54 144.75 81.5 144.74 81.47C143.39 77.32 150.3 67.27 153.87 63.06C153.88 63.04 153.89 63.03 153.89 63C153.89 62.98 153.88 62.96 153.86 62.95C147.86 57.02 146.25 58.37 146.28 58.35L146.29 58.34ZM171.17 58.34L171.19 58.35L171.19 58.36C172.86 59.99 174.19 61.94 175.09 64.09C176 66.24 176.46 68.54 176.46 70.87C176.46 74.73 175.19 78.47 172.83 81.53C172.81 81.56 172.77 81.58 172.74 81.56C172.71 81.54 172.71 81.5 172.72 81.47C174.07 77.32 167.17 67.26 163.6 63.05C163.59 63.03 163.57 63.02 163.57 63C163.57 62.97 163.59 62.95 163.61 62.94C169.61 57.01 171.2 58.37 171.18 58.35L171.17 58.34ZM158.73 53.28C162.31 53.28 165.25 54.25 167.96 55.86C168 55.87 168.01 55.91 167.99 55.94C167.98 55.97 167.94 55.98 167.91 55.97C164.48 55.24 159.26 58.18 158.77 58.47C158.76 58.48 158.75 58.49 158.73 58.49C158.71 58.49 158.7 58.48 158.69 58.47C157.38 57.73 152.56 55.22 149.52 55.99C149.49 56 149.45 55.99 149.44 55.96C149.43 55.94 149.43 55.93 149.44 55.91C149.44 55.89 149.45 55.88 149.47 55.87C152.18 54.25 155.16 53.28 158.73 53.28ZM158.73 67.39C158.75 67.39 158.77 67.41 158.79 67.42C164.09 71.42 173.17 81.32 170.4 84.12L170.4 84.11L170.4 84.12L170.4 84.12C167.17 86.93 163.02 88.48 158.73 88.47C154.43 88.48 150.28 86.93 147.06 84.12L147.05 84.11L147.06 84.12C144.29 81.32 153.37 71.42 158.67 67.42C158.68 67.41 158.71 67.39 158.73 67.39ZM298.94 60.6L298.94 77.92L286.09 60.59L283.98 60.58L283.98 81.67L286.35 81.67L286.35 64.73L298.94 81.68L301.31 81.69L301.31 60.6L298.94 60.6ZM271.69 60.11C265.71 60.11 261.54 64.64 261.54 71.13C261.54 77.64 265.71 82.17 271.69 82.17C277.66 82.17 281.82 77.64 281.82 71.13C281.82 64.65 277.66 60.11 271.69 60.11ZM271.69 79.94C267.14 79.94 263.95 76.32 263.95 71.13C263.95 65.96 267.14 62.34 271.69 62.34C276.23 62.34 279.4 65.96 279.4 71.13C279.4 76.32 276.23 79.94 271.69 79.94ZM306.35 79.62L306.35 71.82L318.05 71.82L318.05 69.75L306.35 69.75L306.35 62.65L318.85 62.65L318.85 60.58L303.97 60.58L303.97 81.69L318.99 81.69L318.99 79.62L306.35 79.62Z" fill="#FBF503" fill-opacity="1.000000" fill-rule="nonzero"/>
	</g>
	<path id="Выберите платформу:" d="M45.59 10.74Q44.4 10.02 42.77 10.02Q41.76 10.02 40.87 10.35Q39.82 10.74 38.95 11.59Q39.25 10 40.12 9.12Q40.99 8.24 42.49 7.93Q45.02 7.43 46.01 6.5Q46.08 6.43 46.15 6.36Q47 5.44 47 3.74L44.26 3.74Q44.26 4.07 44.11 4.31Q44.01 4.5 43.82 4.63Q43.39 4.96 41.89 5.28Q40.27 5.64 39.11 6.57Q38.22 7.29 37.61 8.34Q36.18 10.76 36.16 15.03L36.16 15.6Q36.16 18.42 37.53 20.16Q37.65 20.31 37.78 20.45Q38.28 21.01 38.9 21.39Q40.25 22.24 42.15 22.24Q44.24 22.24 45.68 21.27Q46.12 20.98 46.5 20.59Q46.84 20.23 47.11 19.83Q48.11 18.35 48.11 16.19L48.11 16.03Q48.11 13.44 46.85 11.86Q46.76 11.75 46.66 11.64Q46.18 11.1 45.59 10.74ZM172.82 10.89Q171.57 12.69 171.57 15.75L171.58 16.49Q171.7 19.16 172.94 20.69Q173.5 21.38 174.22 21.76Q175.1 22.23 176.23 22.23Q177.11 22.23 177.82 21.91L177.82 26.87L181.2 26.87L181.2 21.9Q181.93 22.23 182.83 22.23Q184 22.23 184.91 21.74Q185.68 21.32 186.25 20.55Q187.51 18.87 187.51 16Q187.51 12.68 186.26 10.88Q185.64 9.99 184.8 9.54Q183.93 9.08 182.81 9.08Q182.01 9.08 181.33 9.37Q181.27 9.4 181.2 9.43L181.2 4L177.82 4L177.82 9.42Q177.77 9.4 177.73 9.38Q177.06 9.08 176.26 9.08Q175.16 9.08 174.31 9.53Q173.44 9.98 172.82 10.89ZM1.52 4.93L1.52 22L8.15 22Q11.06 21.97 12.63 20.71Q13.01 20.4 13.3 20.01Q14.2 18.84 14.2 16.98Q14.2 15.78 13.67 14.88Q13.57 14.71 13.44 14.54Q13.2 14.22 12.89 13.97Q12.26 13.44 11.37 13.22Q12.16 12.91 12.71 12.37Q12.96 12.12 13.17 11.82Q13.33 11.57 13.46 11.31Q13.81 10.54 13.81 9.61Q13.81 8.07 13.09 7.03Q12.74 6.52 12.21 6.12Q10.6 4.93 7.5 4.93L1.52 4.93ZM7.64 12.08L5.03 12.08L5.03 7.78L7.5 7.78Q8.95 7.78 9.62 8.29Q9.72 8.36 9.8 8.45Q10.3 8.96 10.3 9.96Q10.3 10.74 9.92 11.23Q9.3 12.05 7.64 12.08ZM247.34 9.83Q247.12 10.22 247.12 10.73Q247.12 11.23 247.33 11.61Q247.46 11.84 247.66 12.03Q247.81 12.16 247.97 12.26Q248.42 12.53 249.03 12.53Q249.67 12.53 250.13 12.24Q250.28 12.15 250.41 12.03Q250.61 11.84 250.74 11.61Q250.95 11.23 250.95 10.73Q250.95 10.22 250.73 9.83Q250.61 9.61 250.41 9.42Q250.25 9.27 250.07 9.17Q249.62 8.92 249.03 8.92Q248.47 8.92 248.04 9.15Q247.84 9.26 247.67 9.42Q247.46 9.61 247.34 9.83ZM52.49 21.34Q53.96 22.23 55.98 22.23Q57.56 22.23 58.86 21.63Q59.9 21.14 60.6 20.35Q60.77 20.16 60.92 19.94L59.26 18.08Q58.83 18.63 58.27 18.97Q57.39 19.5 56.2 19.5Q55.27 19.5 54.57 19.09Q54.32 18.95 54.11 18.75Q53.89 18.55 53.72 18.32Q53.24 17.67 53.12 16.76L61.19 16.76L61.19 15.37Q61.19 12.36 59.7 10.72Q59.3 10.29 58.83 9.97Q57.51 9.08 55.6 9.08Q54.18 9.08 53.02 9.62Q52.76 9.75 52.51 9.9Q52.09 10.15 51.72 10.48Q50.93 11.18 50.42 12.22Q49.68 13.72 49.68 15.63L49.68 15.96Q49.68 18.07 50.65 19.56Q50.98 20.08 51.43 20.52Q51.92 20.99 52.49 21.34ZM73.2 20.47Q74.53 18.7 74.53 15.77L74.53 15.6Q74.53 12.55 73.23 10.82Q72.7 10.12 72.01 9.7Q70.98 9.08 69.58 9.08Q68.51 9.08 67.66 9.51Q66.93 9.88 66.37 10.56L66.25 9.32L63.11 9.32L63.11 26.87L66.5 26.87L66.5 20.89Q66.96 21.42 67.54 21.73Q68.43 22.23 69.6 22.23Q70.8 22.23 71.74 21.73Q72.57 21.3 73.2 20.47ZM104.06 21.34Q105.53 22.23 107.55 22.23Q109.13 22.23 110.43 21.63Q111.48 21.14 112.18 20.35Q112.35 20.16 112.5 19.94L110.83 18.08Q110.4 18.63 109.84 18.97Q108.97 19.5 107.77 19.5Q106.84 19.5 106.15 19.09Q105.9 18.95 105.68 18.75Q105.47 18.55 105.29 18.32Q104.81 17.67 104.69 16.76L112.77 16.76L112.77 15.37Q112.77 12.36 111.27 10.72Q110.88 10.29 110.4 9.97Q109.09 9.08 107.18 9.08Q105.76 9.08 104.6 9.62Q104.33 9.75 104.09 9.9Q103.66 10.15 103.3 10.48Q102.5 11.18 102 12.22Q101.26 13.72 101.26 15.63L101.26 15.96Q101.26 18.07 102.22 19.56Q102.56 20.08 103.01 20.52Q103.5 20.99 104.06 21.34ZM154.93 20.86Q155.03 21.54 155.27 22L158.69 22L158.69 21.8Q158.2 20.87 158.19 19.07L158.19 13.57Q158.19 12.02 157.46 10.98Q157.19 10.58 156.81 10.26Q156.78 10.23 156.74 10.2Q155.38 9.08 153.09 9.08Q151.54 9.08 150.3 9.61Q149.06 10.15 148.38 11.08Q147.95 11.68 147.79 12.33Q147.7 12.72 147.7 13.12L151.09 13.12Q151.09 12.65 151.3 12.31Q151.41 12.14 151.57 12Q152.06 11.59 152.91 11.59Q153.81 11.59 154.26 12.04Q154.3 12.08 154.34 12.12Q154.36 12.15 154.39 12.18Q154.79 12.69 154.79 13.52L154.79 14.25L153.23 14.25Q150.41 14.26 148.91 15.34Q148.32 15.76 147.97 16.33Q147.42 17.21 147.42 18.43Q147.42 19.27 147.73 19.95Q148.04 20.62 148.64 21.15Q148.94 21.41 149.27 21.61Q150.32 22.23 151.73 22.23Q152.91 22.23 153.82 21.74Q154.44 21.41 154.93 20.86ZM189.8 12.17Q189.08 13.65 189.08 15.54L189.08 15.69Q189.08 18.4 190.39 20.09Q190.54 20.29 190.71 20.47Q191.2 20.99 191.78 21.36Q193.16 22.23 195.09 22.23Q197.01 22.23 198.39 21.36Q198.97 20.99 199.46 20.47Q199.71 20.19 199.93 19.89Q201.09 18.25 201.09 15.78L201.07 14.92Q200.91 12.68 199.76 11.22Q199.53 10.92 199.26 10.65Q198.8 10.21 198.28 9.9Q196.92 9.08 195.07 9.08Q193.38 9.08 192.07 9.79Q191.98 9.84 191.9 9.89Q191.37 10.2 190.93 10.62Q190.25 11.27 189.8 12.17ZM213.26 20.47Q214.59 18.7 214.59 15.77L214.59 15.6Q214.59 12.55 213.29 10.82Q212.76 10.12 212.07 9.7Q211.04 9.08 209.64 9.08Q208.57 9.08 207.72 9.51Q207 9.88 206.43 10.56L206.32 9.32L203.18 9.32L203.18 26.87L206.56 26.87L206.56 20.89Q207.02 21.42 207.6 21.73Q208.5 22.23 209.67 22.23Q210.87 22.23 211.8 21.73Q212.63 21.3 213.26 20.47ZM22.66 13.03L20.23 13.03L20.23 9.32L16.83 9.32L16.83 22L22.59 22Q25.14 22 26.63 20.77Q27.28 20.23 27.65 19.53Q28.11 18.66 28.11 17.54Q28.11 16.42 27.66 15.53Q27.56 15.34 27.45 15.16Q27.33 14.97 27.19 14.8Q26.56 14.03 25.54 13.58Q24.3 13.03 22.66 13.03ZM30.11 22L33.5 22L33.5 9.32L30.11 9.32L30.11 22ZM87.65 9.32L84.26 9.32L80.02 17.13L80.02 9.32L76.62 9.32L76.62 22L80.02 22L84.26 14.17L84.26 22L87.65 22L87.65 9.32ZM96.7 12.03L100.77 12.03L100.77 9.32L89.3 9.32L89.3 12.03L93.3 12.03L93.3 22L96.7 22L96.7 12.03ZM128.29 22L131.69 22L131.69 9.32L120.66 9.32L120.66 22L124.05 22L124.05 12.06L128.29 12.06L128.29 22ZM145.31 22L145.31 9.32L135.76 9.32L135.52 14.69Q135.42 17.12 135 18.13Q134.72 18.79 134.23 19.05Q133.97 19.18 133.66 19.21L133.24 19.24L133.27 22L134.42 22Q135.8 21.97 136.72 21.31Q137.16 20.99 137.49 20.53Q138.52 19.1 138.72 15.97L138.93 12.06L141.92 12.06L141.92 22L145.31 22ZM167.06 12.03L171.12 12.03L171.12 9.32L159.66 9.32L159.66 12.03L163.66 12.03L163.66 22L167.06 22L167.06 12.03ZM227.73 9.32L224.41 18L221.12 9.32L216.91 9.32L216.91 22L220.3 22L220.3 14.34L223.27 22L225.55 22L228.58 14.21L228.58 22L231.97 22L231.97 9.32L227.73 9.32ZM241.99 9.32L239.64 17.2L237.29 9.32L233.64 9.32L238.09 22.03L237.69 23.07Q237.42 23.75 236.94 24.05Q236.47 24.34 235.51 24.34L234.99 24.33L234.99 26.89Q235.75 27.12 236.49 27.12Q237.7 27.12 238.59 26.59Q239.63 25.97 240.24 24.63L240.52 23.96L245.62 9.32L241.99 9.32ZM54.47 12.09Q54.95 11.82 55.59 11.82Q56.51 11.82 57.07 12.27Q57.17 12.35 57.25 12.44Q57.27 12.46 57.28 12.47Q57.84 13.08 57.86 14.18L57.86 14.45L53.15 14.45Q53.33 13.18 53.95 12.5Q54.18 12.25 54.47 12.09ZM106.04 12.09Q106.53 11.82 107.16 11.82Q108.09 11.82 108.65 12.27Q108.74 12.35 108.83 12.44Q108.84 12.46 108.86 12.47Q109.41 13.08 109.44 14.18L109.44 14.45L104.73 14.45Q104.9 13.18 105.53 12.5Q105.76 12.25 106.04 12.09ZM176.09 19.24Q174.96 18.54 174.96 16Q174.96 13.8 175.52 12.81Q175.85 12.23 176.34 11.99Q176.69 11.82 177.12 11.82Q177.43 11.82 177.82 11.91L177.82 19.44Q177.55 19.5 177.1 19.5Q176.52 19.5 176.09 19.24ZM183.53 12.84Q184.11 13.85 184.11 15.75L184.1 16.49Q183.98 18.63 182.95 19.25Q182.52 19.51 181.94 19.51Q181.53 19.51 181.2 19.44L181.2 11.91Q181.59 11.82 181.92 11.82Q182.33 11.82 182.66 11.98Q183.19 12.22 183.53 12.84ZM193.14 18.54Q192.46 17.59 192.46 15.78Q192.46 13.76 193.14 12.79Q193.44 12.36 193.85 12.12Q194.37 11.82 195.07 11.82Q195.77 11.82 196.29 12.13Q196.71 12.37 197.01 12.8Q197.7 13.77 197.7 15.54Q197.7 17.61 197.01 18.56Q196.71 18.97 196.3 19.2Q195.78 19.5 195.09 19.5Q194.34 19.5 193.8 19.17Q193.42 18.93 193.14 18.54ZM70.51 12.8Q71.14 13.76 71.14 15.53Q71.14 18.42 69.85 19.21Q69.37 19.5 68.71 19.5Q67.73 19.5 67.12 19.02Q66.74 18.73 66.5 18.25L66.5 13.05Q66.71 12.62 67.06 12.34Q67.67 11.83 68.69 11.83Q69.34 11.83 69.82 12.12Q70.23 12.36 70.51 12.8ZM210.58 12.8Q211.2 13.76 211.2 15.53Q211.2 18.42 209.92 19.21Q209.44 19.5 208.78 19.5Q207.8 19.5 207.18 19.02Q206.8 18.73 206.56 18.25L206.56 13.05Q206.78 12.62 207.12 12.34Q207.73 11.83 208.75 11.83Q209.4 11.83 209.89 12.12Q210.29 12.36 210.58 12.8ZM40.72 13.13Q41.3 12.76 42.12 12.76Q42.98 12.76 43.58 13.16Q43.83 13.33 44.04 13.58Q44.73 14.39 44.73 15.95L44.73 16.23Q44.71 17.85 44.05 18.68Q43.84 18.94 43.57 19.12Q42.99 19.51 42.15 19.51Q41.26 19.51 40.67 19.09Q40.41 18.92 40.21 18.66Q39.55 17.81 39.55 16.19Q39.55 14.38 40.23 13.57Q40.45 13.31 40.72 13.13ZM5.03 19.17L5.03 14.57L8.26 14.57Q9.51 14.58 10.12 15.22Q10.68 15.81 10.68 16.94Q10.68 17.66 10.36 18.16Q10.21 18.39 9.99 18.58Q9.29 19.17 8.05 19.17L5.03 19.17ZM20.23 19.29L20.23 15.75L22.64 15.75Q23.67 15.75 24.19 16.24Q24.35 16.38 24.46 16.55Q24.72 16.97 24.72 17.54Q24.72 18.09 24.47 18.48Q24.36 18.67 24.18 18.82Q23.64 19.29 22.64 19.29L20.23 19.29ZM153.46 19.48Q152.99 19.64 152.47 19.64Q151.76 19.64 151.32 19.29Q151.28 19.26 151.25 19.23Q151.06 19.05 150.95 18.83Q150.8 18.55 150.8 18.19L150.82 17.99Q150.87 17.44 151.14 17.07Q151.76 16.23 153.52 16.23L154.79 16.23L154.79 18.41Q154.73 18.51 154.67 18.6Q154.37 19.03 153.85 19.31Q153.66 19.41 153.46 19.48ZM247.34 19.43Q247.12 19.82 247.12 20.33Q247.12 20.83 247.33 21.21Q247.46 21.44 247.66 21.63Q247.81 21.76 247.97 21.86Q248.42 22.12 249.03 22.12Q249.67 22.12 250.13 21.84Q250.28 21.75 250.41 21.63Q250.61 21.44 250.74 21.21Q250.95 20.83 250.95 20.33Q250.95 19.82 250.73 19.43Q250.61 19.2 250.41 19.02Q250.25 18.87 250.07 18.77Q249.62 18.51 249.03 18.51Q248.47 18.51 248.04 18.75Q247.84 18.86 247.67 19.02Q247.46 19.2 247.34 19.43Z" fill="#52BEDC" fill-opacity="1.000000" fill-rule="evenodd"/>
</svg>
