<svg width="390.000000" height="126.000000" viewBox="0 0 390 126" fill="none" xmlns="http://www.w3.org/2000/svg" xmlns:xlink="http://www.w3.org/1999/xlink">
	<desc>
			Created with Pixso.
	</desc>
	<defs>
		<clipPath id="clip14_294">
			<rect id="color_lens" rx="0.000000" width="31.000000" height="31.000000" transform="translate(0.500000 0.500000)" fill="white" fill-opacity="0"/>
		</clipPath>
		<clipPath id="clip14_306">
			<rect id="auto_awesome" rx="0.000000" width="31.000000" height="31.000000" transform="translate(0.500000 47.500000)" fill="white" fill-opacity="0"/>
		</clipPath>
		<clipPath id="clip14_314">
			<rect id="auto_awesome_motion" rx="0.000000" width="31.000000" height="31.000000" transform="translate(0.500000 94.500000)" fill="white" fill-opacity="0"/>
		</clipPath>
	</defs>
	<g clip-path="url(#clip14_294)">
		<path id="Vector" d="M16 4C9.37 4 4 9.37 4 16C4 22.62 9.37 28 16 28C17.1 28 18 27.1 18 26C18 25.48 17.79 25.01 17.48 24.65C17.17 24.3 16.97 23.84 16.97 23.33C16.97 22.22 17.86 21.33 18.97 21.33L21.33 21.33C25.01 21.33 28 18.34 28 14.66C28 8.77 22.62 4 16 4ZM8.66 16C7.56 16 6.66 15.1 6.66 14C6.66 12.89 7.56 12 8.66 12C9.77 12 10.66 12.89 10.66 14C10.66 15.1 9.77 16 8.66 16ZM12.66 10.66C11.56 10.66 10.66 9.77 10.66 8.66C10.66 7.56 11.56 6.66 12.66 6.66C13.77 6.66 14.66 7.56 14.66 8.66C14.66 9.77 13.77 10.66 12.66 10.66ZM19.33 10.66C18.22 10.66 17.33 9.77 17.33 8.66C17.33 7.56 18.22 6.66 19.33 6.66C20.43 6.66 21.33 7.56 21.33 8.66C21.33 9.77 20.43 10.66 19.33 10.66ZM23.33 16C22.22 16 21.33 15.1 21.33 14C21.33 12.89 22.22 12 23.33 12C24.43 12 25.33 12.89 25.33 14C25.33 15.1 24.43 16 23.33 16Z" fill="#000000" fill-opacity="1.000000" fill-rule="nonzero"/>
	</g>
	<path id="Яркие насыщенные цвета" d="M50.18 18.01L50.18 23L51.87 23L51.87 10.2L47.8 10.2Q45.67 10.2 44.47 11.21Q44.12 11.51 43.87 11.88Q43.27 12.76 43.27 14.06Q43.27 15.2 43.78 16.02Q44.4 17.01 45.75 17.55L42.78 23L44.58 23L47.22 18.01L50.18 18.01ZM45.33 15.49Q44.96 14.89 44.96 14.06Q44.96 13.16 45.38 12.57Q45.51 12.39 45.68 12.24Q46.41 11.59 47.78 11.59L50.18 11.59L50.18 16.63L47.7 16.63Q46.53 16.62 45.83 16.05Q45.75 15.99 45.68 15.92Q45.48 15.72 45.33 15.49ZM61.73 21.84Q62.72 20.52 62.72 18.35L62.72 18.2Q62.72 15.89 61.72 14.6Q61.29 14.04 60.71 13.72Q59.97 13.31 59.01 13.31Q57.87 13.31 57.05 13.82Q56.6 14.11 56.25 14.54L56.17 13.49L54.69 13.49L54.69 26.65L56.31 26.65L56.31 22.07Q56.58 22.37 56.9 22.59Q57.77 23.17 59.04 23.17Q59.93 23.17 60.63 22.8Q61.26 22.47 61.73 21.84ZM86.62 22.63Q87.58 23.17 88.84 23.17Q90.26 23.17 91.26 22.52Q91.94 22.08 92.43 21.33L91.43 20.56Q91.04 21.07 90.53 21.4Q90.46 21.45 90.39 21.49Q89.79 21.84 88.93 21.84Q88.26 21.84 87.71 21.58Q87.28 21.36 86.93 20.98Q86.82 20.85 86.72 20.72Q86.14 19.91 86.11 18.71L92.55 18.71L92.55 18.03Q92.55 15.75 91.52 14.53Q91.22 14.17 90.84 13.92Q89.94 13.31 88.64 13.31Q88.14 13.31 87.68 13.43Q87.08 13.58 86.53 13.94Q86.27 14.11 86.04 14.32Q85.41 14.87 85.02 15.68Q84.48 16.79 84.48 18.2L84.48 18.5Q84.48 20.26 85.31 21.43Q85.48 21.68 85.69 21.9Q86.11 22.34 86.62 22.63ZM114.91 21.99Q115 22.71 115.14 23L116.84 23L116.84 22.85Q116.51 22.08 116.51 20.77L116.51 16.39Q116.48 15.35 115.99 14.63Q115.8 14.36 115.54 14.13Q115.53 14.12 115.52 14.11Q114.59 13.31 112.97 13.31Q111.94 13.31 111.08 13.69Q111.07 13.69 111.06 13.7Q110.21 14.08 109.7 14.74Q109.7 14.74 109.69 14.75Q109.26 15.32 109.2 15.93Q109.19 16.03 109.19 16.12L110.82 16.12Q110.82 15.93 110.88 15.76Q111 15.37 111.41 15.06Q111.47 15.01 111.53 14.97Q112.09 14.62 112.87 14.62Q113.85 14.62 114.35 15.11Q114.36 15.12 114.37 15.12Q114.49 15.24 114.57 15.37Q114.88 15.82 114.88 16.48L114.88 17.23L113.3 17.23Q111.25 17.23 110.12 18.05Q109.64 18.4 109.37 18.87Q108.99 19.51 108.99 20.36Q108.99 21 109.24 21.52Q109.47 22 109.9 22.38Q110.08 22.53 110.28 22.66Q111.08 23.17 112.2 23.17Q112.89 23.17 113.5 22.95Q114.27 22.66 114.91 21.99ZM123.82 21.66Q123.38 21.84 122.87 21.84Q122.06 21.84 121.49 21.47Q121.18 21.27 120.94 20.96Q120.26 20.07 120.26 18.42L120.26 18.12Q120.26 16.43 120.94 15.54Q121.2 15.2 121.53 14.99Q122.09 14.65 122.86 14.65Q123.44 14.65 123.89 14.87Q124.18 15.01 124.41 15.24Q124.65 15.46 124.8 15.72Q125.07 16.17 125.11 16.75L126.65 16.75Q126.61 15.81 126.19 15.09Q125.93 14.63 125.52 14.27Q125.22 13.99 124.87 13.8Q124.01 13.31 122.86 13.31Q121.63 13.31 120.71 13.84Q120.66 13.87 120.61 13.91Q120.31 14.09 120.06 14.33Q119.5 14.84 119.15 15.59Q118.64 16.67 118.64 18.06L118.64 18.33Q118.64 20.5 119.7 21.78Q119.74 21.83 119.78 21.87Q120.16 22.31 120.63 22.59Q121.58 23.17 122.87 23.17Q123.34 23.17 123.78 23.07Q124.26 22.96 124.7 22.73Q125.4 22.38 125.88 21.83Q125.99 21.7 126.09 21.55Q126.51 20.96 126.62 20.3Q126.64 20.15 126.65 20L125.11 20Q125.08 20.32 124.96 20.61Q124.77 21.01 124.39 21.32Q124.12 21.53 123.82 21.66ZM159.17 22.63Q160.13 23.17 161.39 23.17Q162.82 23.17 163.82 22.52Q164.5 22.08 164.98 21.33L163.99 20.56Q163.59 21.07 163.08 21.4Q163.01 21.45 162.94 21.49Q162.34 21.84 161.48 21.84Q160.81 21.84 160.27 21.58Q159.83 21.36 159.48 20.98Q159.37 20.85 159.27 20.72Q158.69 19.91 158.66 18.71L165.1 18.71L165.1 18.03Q165.1 15.75 164.08 14.53Q163.77 14.17 163.39 13.92Q162.5 13.31 161.19 13.31Q160.7 13.31 160.23 13.43Q159.63 13.58 159.09 13.94Q158.82 14.11 158.59 14.32Q157.97 14.87 157.58 15.68Q157.03 16.79 157.03 18.2L157.03 18.5Q157.03 20.26 157.86 21.43Q158.04 21.68 158.25 21.9Q158.67 22.34 159.17 22.63ZM203.45 22.63Q204.4 23.17 205.67 23.17Q207.09 23.17 208.09 22.52Q208.77 22.08 209.25 21.33L208.26 20.56Q207.86 21.07 207.35 21.4Q207.28 21.45 207.21 21.49Q206.61 21.84 205.75 21.84Q205.08 21.84 204.54 21.58Q204.1 21.36 203.75 20.98Q203.64 20.85 203.54 20.72Q202.96 19.91 202.93 18.71L209.37 18.71L209.37 18.03Q209.37 15.75 208.35 14.53Q208.04 14.17 207.67 13.92Q206.77 13.31 205.46 13.31Q204.97 13.31 204.5 13.43Q203.9 13.58 203.36 13.94Q203.09 14.11 202.86 14.32Q202.24 14.87 201.85 15.68Q201.31 16.79 201.31 18.2L201.31 18.5Q201.31 20.26 202.13 21.43Q202.31 21.68 202.52 21.9Q202.94 22.34 203.45 22.63ZM238.38 22.63Q239.34 23.17 240.6 23.17Q242.02 23.17 243.02 22.52Q243.7 22.08 244.19 21.33L243.19 20.56Q242.8 21.07 242.29 21.4Q242.22 21.45 242.15 21.49Q241.55 21.84 240.69 21.84Q240.02 21.84 239.47 21.58Q239.04 21.36 238.69 20.98Q238.58 20.85 238.48 20.72Q237.9 19.91 237.87 18.71L244.31 18.71L244.31 18.03Q244.31 15.75 243.28 14.53Q242.98 14.17 242.6 13.92Q241.71 13.31 240.4 13.31Q239.9 13.31 239.44 13.43Q238.84 13.58 238.29 13.94Q238.03 14.11 237.8 14.32Q237.18 14.87 236.78 15.68Q236.24 16.79 236.24 18.2L236.24 18.5Q236.24 20.26 237.07 21.43Q237.24 21.68 237.46 21.9Q237.88 22.34 238.38 22.63ZM260.25 21.99Q260.33 22.71 260.47 23L262.18 23L262.18 22.85Q261.85 22.08 261.85 20.77L261.85 16.39Q261.82 15.35 261.32 14.63Q261.13 14.36 260.88 14.13Q260.87 14.12 260.86 14.11Q259.93 13.31 258.3 13.31Q257.27 13.31 256.41 13.69L256.4 13.7Q255.54 14.08 255.04 14.74L255.03 14.75Q254.59 15.32 254.53 15.93Q254.52 16.03 254.52 16.12L256.16 16.12Q256.16 15.93 256.21 15.76Q256.34 15.37 256.75 15.06Q256.81 15.01 256.87 14.97Q257.42 14.62 258.21 14.62Q259.18 14.62 259.69 15.11Q259.7 15.12 259.71 15.12Q259.82 15.24 259.91 15.37Q260.22 15.82 260.22 16.48L260.22 17.23L258.64 17.23Q256.59 17.23 255.46 18.05Q254.98 18.4 254.7 18.87Q254.33 19.51 254.33 20.36Q254.33 21 254.58 21.52Q254.8 22 255.23 22.38Q255.41 22.53 255.61 22.66Q256.41 23.17 257.54 23.17Q258.23 23.17 258.83 22.95Q259.61 22.66 260.25 21.99ZM66.56 18.94L67.75 18.94L71.04 23L73.11 23L69.03 18.06L72.79 13.49L70.82 13.49L67.62 17.51L66.56 17.51L66.56 13.49L64.93 13.49L64.93 23L66.56 23L66.56 18.94ZM82.28 13.49L80.66 13.49L76.27 20.43L76.27 13.49L74.65 13.49L74.65 23L76.27 23L80.66 16.06L80.66 23L82.28 23L82.28 13.49ZM105.03 23L106.66 23L106.66 13.49L105.03 13.49L105.03 17.61L100.66 17.61L100.66 13.49L99.03 13.49L99.03 23L100.66 23L100.66 18.93L105.03 18.93L105.03 23ZM132.72 16.76L130.25 16.76L130.25 13.49L128.63 13.49L128.63 23L132.65 23Q134.16 23 135.1 22.27Q135.18 22.2 135.26 22.13Q135.6 21.82 135.83 21.44Q136.22 20.76 136.22 19.85Q136.22 18.89 135.79 18.2Q135.59 17.87 135.28 17.61Q135.25 17.58 135.23 17.56Q134.3 16.78 132.72 16.76ZM137.98 23L139.62 23L139.62 13.49L137.98 13.49L137.98 23ZM144.13 21.67L144.13 13.49L142.5 13.49L142.5 23L154.06 23L154.06 25.82L155.52 25.82L155.68 21.67L154.35 21.67L154.35 13.49L152.71 13.49L152.71 21.67L149.24 21.67L149.24 13.49L147.61 13.49L147.61 21.67L144.13 21.67ZM173.13 23L174.75 23L174.75 13.49L173.13 13.49L173.13 17.61L168.76 17.61L168.76 13.49L167.13 13.49L167.13 23L168.76 23L168.76 18.93L173.13 18.93L173.13 23ZM183.51 23L185.13 23L185.13 13.49L183.51 13.49L183.51 17.61L179.14 17.61L179.14 13.49L177.51 13.49L177.51 23L179.14 23L179.14 18.93L183.51 18.93L183.51 23ZM191.99 16.76L189.52 16.76L189.52 13.49L187.89 13.49L187.89 23L191.92 23Q193.42 23 194.36 22.27Q194.44 22.2 194.52 22.13Q194.87 21.82 195.09 21.44Q195.49 20.76 195.49 19.85Q195.49 18.89 195.06 18.2Q194.85 17.87 194.55 17.61Q194.52 17.58 194.49 17.56Q193.56 16.78 191.99 16.76ZM197.25 23L198.88 23L198.88 13.49L197.25 13.49L197.25 23ZM217.49 13.49L215.85 13.49L215.85 23L223.01 23L223.01 25.82L224.47 25.82L224.62 21.67L223.49 21.67L223.49 13.49L221.86 13.49L221.86 21.67L217.49 21.67L217.49 13.49ZM226.52 13.49L226.52 23L230.82 23Q232.58 23 233.54 22.3Q233.91 22.04 234.14 21.68Q234.5 21.11 234.5 20.3Q234.5 19.83 234.33 19.43Q234.2 19.14 233.98 18.89Q233.88 18.78 233.77 18.68Q233.29 18.26 232.6 18.1Q233.37 17.82 233.76 17.29Q233.97 17.01 234.07 16.71Q234.16 16.42 234.16 16.1Q234.16 15.37 233.84 14.85Q233.59 14.44 233.14 14.15Q232.13 13.49 230.23 13.49L226.52 13.49ZM249.97 14.8L253.16 14.8L253.16 13.49L245.22 13.49L245.22 14.8L248.35 14.8L248.35 23L249.97 23L249.97 14.8ZM87.72 14.83Q88.14 14.65 88.64 14.65Q89.32 14.65 89.82 14.95Q90.06 15.1 90.26 15.33Q90.85 16.01 90.92 17.25L90.92 17.37L86.16 17.37Q86.32 16.08 86.99 15.36Q87.31 15.01 87.72 14.83ZM160.27 14.83Q160.69 14.65 161.19 14.65Q161.88 14.65 162.37 14.95Q162.61 15.1 162.81 15.33Q163.41 16.01 163.48 17.25L163.48 17.37L158.71 17.37Q158.87 16.08 159.54 15.36Q159.87 15.01 160.27 14.83ZM204.54 14.83Q204.96 14.65 205.46 14.65Q206.15 14.65 206.64 14.95Q206.88 15.1 207.08 15.33Q207.68 16.01 207.75 17.25L207.75 17.37L202.98 17.37Q203.14 16.08 203.81 15.36Q204.14 15.01 204.54 14.83ZM239.48 14.83Q239.9 14.65 240.4 14.65Q241.08 14.65 241.58 14.95Q241.82 15.1 242.02 15.33Q242.61 16.01 242.68 17.25L242.68 17.37L237.92 17.37Q238.08 16.08 238.75 15.36Q239.08 15.01 239.48 14.83ZM60.41 15.62Q61.09 16.55 61.09 18.16Q61.09 19.99 60.4 20.92Q60.07 21.37 59.62 21.6Q59.15 21.84 58.54 21.84Q57.78 21.84 57.22 21.51Q56.67 21.18 56.31 20.54L56.31 16Q56.69 15.32 57.27 14.99Q57.82 14.69 58.53 14.69Q59.17 14.69 59.67 14.96Q60.09 15.19 60.41 15.62ZM230.25 17.52L228.15 17.52L228.15 14.8L230.37 14.8Q231.95 14.84 232.37 15.55Q232.53 15.82 232.53 16.18Q232.53 16.52 232.39 16.78Q231.95 17.52 230.25 17.52ZM130.25 21.67L130.25 18.09L132.73 18.09Q133.49 18.11 133.95 18.48Q134.03 18.54 134.1 18.61Q134.24 18.76 134.34 18.93Q134.59 19.35 134.59 19.91Q134.59 20.53 134.3 20.96Q134.21 21.09 134.09 21.2Q134.07 21.21 134.05 21.23Q133.55 21.67 132.67 21.67L130.25 21.67ZM189.52 21.67L189.52 18.09L192 18.09Q192.75 18.11 193.22 18.48Q193.3 18.54 193.37 18.61Q193.51 18.76 193.61 18.93Q193.85 19.35 193.85 19.91Q193.85 20.53 193.56 20.96Q193.47 21.09 193.35 21.2Q193.33 21.21 193.32 21.23Q192.82 21.67 191.94 21.67L189.52 21.67ZM113 21.7Q112.72 21.76 112.44 21.76Q111.75 21.76 111.28 21.44Q111.2 21.39 111.13 21.33Q110.97 21.19 110.86 21.02Q110.62 20.66 110.62 20.13Q110.62 19.68 110.82 19.35Q111.38 18.38 113.61 18.38L114.88 18.38L114.88 20.33Q114.83 20.44 114.77 20.54Q114.46 21.03 113.89 21.36Q113.46 21.61 113 21.7ZM258.33 21.7Q258.06 21.76 257.78 21.76Q257.09 21.76 256.61 21.44Q256.54 21.39 256.47 21.33Q256.31 21.19 256.2 21.02Q255.96 20.66 255.96 20.13Q255.96 19.68 256.15 19.35Q256.72 18.38 258.94 18.38L260.22 18.38L260.22 20.33Q260.17 20.44 260.1 20.54Q259.79 21.03 259.23 21.36Q258.79 21.61 258.33 21.7ZM228.15 21.69L228.15 18.82L230.78 18.82Q232.21 18.82 232.66 19.49Q232.87 19.79 232.87 20.24Q232.87 20.66 232.68 20.96Q232.56 21.16 232.36 21.31Q231.86 21.69 230.84 21.69L228.15 21.69Z" fill="#000000" fill-opacity="1.000000" fill-rule="evenodd"/>
	<g clip-path="url(#clip14_306)">
		<path id="Vector" d="M25.33 59L26.99 55.33L30.66 53.66L26.99 52L25.33 48.33L23.66 52L19.99 53.66L23.66 55.33L25.33 59ZM15.33 59.66L11.99 52.33L8.66 59.66L1.33 63L8.66 66.33L11.99 73.66L15.33 66.33L22.66 63L15.33 59.66ZM25.33 67L23.66 70.66L19.99 72.33L23.66 74L25.33 77.66L26.99 74L30.66 72.33L26.99 70.66L25.33 67Z" fill="#000000" fill-opacity="1.000000" fill-rule="nonzero"/>
	</g>
	<path id="Кристальная четкость изображения" d="M273.47 61.55Q272.6 61.03 271.43 61.03Q270.67 61.03 270 61.28Q269.04 61.64 268.28 62.52Q268.5 61.17 269.22 60.36Q269.95 59.54 271.4 59.2L272.61 58.93Q273.7 58.67 274.2 58.06Q274.69 57.44 274.69 56.35L273.36 56.35Q273.36 56.65 273.23 56.88Q273.12 57.07 272.93 57.22Q272.5 57.53 271.27 57.75Q270 57.98 269.09 58.67Q268.45 59.17 267.98 59.91Q266.87 61.67 266.87 64.67L266.87 65.46Q266.87 67.36 267.79 68.58Q267.91 68.74 268.04 68.89Q268.45 69.34 268.94 69.63Q269.88 70.17 271.13 70.17Q272.23 70.17 273.1 69.73Q273.24 69.66 273.36 69.59Q273.73 69.37 274.03 69.08Q274.53 68.6 274.85 67.94Q275.37 66.88 275.37 65.54L275.37 65.39Q275.37 63.71 274.58 62.59Q274.45 62.4 274.29 62.23Q273.93 61.82 273.47 61.55ZM45.25 64.25L46.8 64.25L51.43 70L53.5 70L48.25 63.4L53.14 57.2L51.04 57.2L46.57 62.84L45.25 62.84L45.25 57.2L43.56 57.2L43.56 70L45.25 70L45.25 64.25ZM61.63 68.84Q62.62 67.52 62.62 65.35L62.62 65.2Q62.62 62.89 61.63 61.6Q61.19 61.04 60.62 60.72Q59.88 60.31 58.91 60.31Q57.77 60.31 56.95 60.82Q56.5 61.11 56.15 61.54L56.08 60.49L54.59 60.49L54.59 73.65L56.22 73.65L56.22 69.07Q56.48 69.37 56.81 69.59Q57.68 70.17 58.94 70.17Q59.84 70.17 60.54 69.8Q61.16 69.47 61.63 68.84ZM79.84 68.66Q79.4 68.84 78.89 68.84Q78.08 68.84 77.51 68.47Q77.2 68.27 76.96 67.96Q76.28 67.07 76.28 65.42L76.28 65.12Q76.28 63.43 76.96 62.54Q77.22 62.2 77.55 61.99Q78.11 61.65 78.88 61.65Q79.45 61.65 79.91 61.87Q80.19 62.01 80.43 62.24Q80.67 62.46 80.82 62.72Q81.09 63.17 81.13 63.75L82.67 63.75Q82.63 62.81 82.21 62.09Q81.95 61.63 81.54 61.27Q81.24 60.99 80.89 60.8Q80.03 60.31 78.88 60.31Q77.65 60.31 76.73 60.84Q76.68 60.87 76.63 60.91Q76.33 61.09 76.08 61.33Q75.52 61.84 75.16 62.59Q74.66 63.67 74.66 65.06L74.66 65.33Q74.66 67.5 75.72 68.78Q75.76 68.83 75.8 68.87Q76.18 69.31 76.65 69.59Q77.59 70.17 78.89 70.17Q79.36 70.17 79.8 70.07Q80.27 69.96 80.72 69.73Q81.42 69.38 81.89 68.83Q82.01 68.7 82.11 68.55Q82.53 67.96 82.64 67.3Q82.66 67.15 82.67 67L81.13 67Q81.1 67.32 80.98 67.61Q80.79 68.01 80.41 68.32Q80.14 68.53 79.84 68.66ZM98.65 68.99Q98.74 69.71 98.88 70L100.58 70L100.58 69.85Q100.25 69.08 100.25 67.77L100.25 63.39Q100.22 62.35 99.73 61.63Q99.54 61.36 99.28 61.13Q99.27 61.12 99.26 61.11Q98.33 60.31 96.71 60.31Q95.68 60.31 94.82 60.69Q94.81 60.69 94.8 60.7Q93.95 61.08 93.44 61.74Q93.44 61.74 93.43 61.75Q93 62.32 92.94 62.93Q92.93 63.03 92.93 63.12L94.56 63.12Q94.56 62.93 94.62 62.76Q94.74 62.37 95.15 62.06Q95.21 62.01 95.27 61.97Q95.83 61.62 96.61 61.62Q97.59 61.62 98.09 62.11Q98.1 62.12 98.11 62.12Q98.23 62.24 98.31 62.37Q98.62 62.82 98.62 63.48L98.62 64.23L97.04 64.23Q94.99 64.23 93.86 65.05Q93.38 65.4 93.11 65.87Q92.73 66.51 92.73 67.36Q92.73 68 92.98 68.52Q93.21 69 93.64 69.38Q93.82 69.53 94.02 69.66Q94.82 70.17 95.94 70.17Q96.63 70.17 97.23 69.95Q98.01 69.66 98.65 68.99ZM139 68.99Q139.09 69.71 139.23 70L140.93 70L140.93 69.85Q140.6 69.08 140.6 67.77L140.6 63.39Q140.57 62.35 140.08 61.63Q139.89 61.36 139.63 61.13Q139.62 61.12 139.61 61.11Q138.68 60.31 137.06 60.31Q136.03 60.31 135.17 60.69L135.16 60.7Q134.3 61.08 133.79 61.74Q133.79 61.74 133.78 61.75Q133.35 62.32 133.29 62.93Q133.28 63.03 133.28 63.12L134.91 63.12Q134.91 62.93 134.97 62.76Q135.09 62.37 135.5 62.06Q135.56 62.01 135.62 61.97Q136.18 61.62 136.96 61.62Q137.94 61.62 138.45 62.11Q138.45 62.12 138.46 62.12Q138.58 62.24 138.67 62.37Q138.97 62.82 138.97 63.48L138.97 64.23L137.39 64.23Q135.34 64.23 134.21 65.05Q133.73 65.4 133.46 65.87Q133.09 66.51 133.09 67.36Q133.09 68 133.33 68.52Q133.56 69 133.99 69.38Q134.17 69.53 134.37 69.66Q135.17 70.17 136.29 70.17Q136.98 70.17 137.59 69.95Q138.36 69.66 139 68.99ZM168.99 69.63Q169.95 70.17 171.21 70.17Q172.63 70.17 173.63 69.52Q174.31 69.08 174.8 68.33L173.81 67.56Q173.41 68.07 172.9 68.4Q172.83 68.45 172.76 68.49Q172.16 68.84 171.3 68.84Q170.63 68.84 170.08 68.58Q169.65 68.36 169.3 67.98Q169.19 67.85 169.09 67.72Q168.51 66.91 168.48 65.71L174.92 65.71L174.92 65.03Q174.92 62.75 173.89 61.53Q173.59 61.17 173.21 60.92Q172.32 60.31 171.01 60.31Q170.51 60.31 170.05 60.43Q169.45 60.58 168.91 60.94Q168.64 61.11 168.41 61.32Q167.79 61.87 167.39 62.68Q166.85 63.79 166.85 65.21L166.85 65.5Q166.85 67.26 167.68 68.43Q167.86 68.68 168.07 68.9Q168.49 69.34 168.99 69.63ZM195.01 62.64Q194.46 63.75 194.46 65.15L194.46 65.27Q194.46 67.21 195.38 68.48Q195.51 68.66 195.66 68.83Q196.13 69.36 196.72 69.68Q197.62 70.17 198.79 70.17Q199.83 70.17 200.68 69.76Q200.88 69.67 201.06 69.56Q201.4 69.35 201.68 69.08Q202.23 68.57 202.58 67.84Q203.12 66.73 203.12 65.35L203.12 65.23Q203.12 63.25 202.17 61.96Q202.05 61.8 201.92 61.65Q201.45 61.13 200.87 60.81Q199.96 60.31 198.77 60.31Q197.79 60.31 196.98 60.68Q196.75 60.78 196.54 60.92Q196.29 61.07 196.07 61.26Q195.42 61.81 195.01 62.64ZM209.91 68.66Q209.48 68.84 208.97 68.84Q208.16 68.84 207.58 68.47Q207.27 68.27 207.04 67.96Q206.36 67.07 206.36 65.42L206.36 65.12Q206.36 63.43 207.04 62.54Q207.3 62.2 207.63 61.99Q208.19 61.65 208.96 61.65Q209.53 61.65 209.99 61.87Q210.27 62.01 210.51 62.24Q210.74 62.46 210.9 62.72Q211.17 63.17 211.21 63.75L212.75 63.75Q212.71 62.81 212.29 62.09Q212.03 61.63 211.62 61.27Q211.32 60.99 210.97 60.8Q210.1 60.31 208.96 60.31Q207.73 60.31 206.81 60.84Q206.76 60.87 206.71 60.91Q206.41 61.09 206.16 61.33Q205.59 61.84 205.24 62.59Q204.73 63.67 204.73 65.06L204.73 65.33Q204.73 67.5 205.8 68.78Q205.84 68.83 205.88 68.87Q206.26 69.31 206.73 69.59Q207.67 70.17 208.97 70.17Q209.43 70.17 209.88 70.07Q210.35 69.96 210.8 69.73Q211.5 69.38 211.97 68.83Q212.09 68.7 212.19 68.55Q212.61 67.96 212.72 67.3Q212.74 67.15 212.75 67L211.21 67Q211.18 67.32 211.05 67.61Q210.87 68.01 210.49 68.32Q210.22 68.53 209.91 68.66ZM257.1 62.64Q256.55 63.75 256.55 65.15L256.55 65.27Q256.55 67.21 257.48 68.48Q257.61 68.66 257.75 68.83Q258.23 69.36 258.82 69.68Q259.72 70.17 260.89 70.17Q261.93 70.17 262.78 69.76Q262.97 69.67 263.16 69.56Q263.49 69.35 263.78 69.08Q264.33 68.57 264.68 67.84Q265.21 66.73 265.21 65.35L265.21 65.23Q265.21 63.25 264.26 61.96Q264.14 61.8 264.01 61.65Q263.54 61.13 262.97 60.81Q262.06 60.31 260.87 60.31Q259.89 60.31 259.07 60.68Q258.85 60.78 258.63 60.92Q258.38 61.07 258.16 61.26Q257.51 61.81 257.1 62.64ZM284.09 68.84Q285.08 67.52 285.08 65.35L285.08 65.2Q285.08 62.89 284.09 61.6Q283.65 61.04 283.07 60.72Q282.34 60.31 281.37 60.31Q280.23 60.31 279.41 60.82Q278.97 61.11 278.61 61.54L278.54 60.49L277.05 60.49L277.05 73.65L278.68 73.65L278.68 69.07Q278.94 69.37 279.27 69.59Q280.14 70.17 281.4 70.17Q282.3 70.17 283 69.8Q283.62 69.47 284.09 68.84ZM292.79 68.99Q292.88 69.71 293.02 70L294.72 70L294.72 69.85Q294.39 69.08 294.39 67.77L294.39 63.39Q294.37 62.35 293.87 61.63Q293.68 61.36 293.42 61.13Q293.41 61.12 293.41 61.11Q292.48 60.31 290.85 60.31Q289.82 60.31 288.96 60.69L288.95 60.7Q288.09 61.08 287.58 61.74L287.57 61.75Q287.14 62.32 287.08 62.93Q287.07 63.03 287.07 63.12L288.7 63.12Q288.7 62.93 288.76 62.76Q288.88 62.37 289.29 62.06Q289.35 62.01 289.42 61.97Q289.97 61.62 290.75 61.62Q291.73 61.62 292.24 62.11Q292.25 62.12 292.26 62.12Q292.37 62.24 292.46 62.37Q292.76 62.82 292.76 63.48L292.76 64.23L291.18 64.23Q289.14 64.23 288.01 65.05Q287.53 65.4 287.25 65.87Q286.88 66.51 286.88 67.36Q286.88 68 287.12 68.52Q287.35 69 287.78 69.38Q287.96 69.53 288.16 69.66Q288.96 70.17 290.08 70.17Q290.77 70.17 291.38 69.95Q292.15 69.66 292.79 68.99ZM312.27 69.63Q313.23 70.17 314.49 70.17Q315.91 70.17 316.91 69.52Q317.59 69.08 318.08 68.33L317.08 67.56Q316.69 68.07 316.18 68.4Q316.11 68.45 316.04 68.49Q315.44 68.84 314.58 68.84Q313.91 68.84 313.36 68.58Q312.93 68.36 312.58 67.98Q312.47 67.85 312.37 67.72Q311.79 66.91 311.76 65.71L318.2 65.71L318.2 65.03Q318.2 62.75 317.17 61.53Q316.87 61.17 316.49 60.92Q315.6 60.31 314.29 60.31Q313.79 60.31 313.33 60.43Q312.73 60.58 312.18 60.94Q311.92 61.11 311.69 61.32Q311.07 61.87 310.67 62.68Q310.13 63.79 310.13 65.21L310.13 65.5Q310.13 67.26 310.96 68.43Q311.13 68.68 311.35 68.9Q311.76 69.34 312.27 69.63ZM252.92 62.44Q253.07 62.72 253.07 63.09Q253.07 63.6 252.83 63.92Q252.43 64.43 251.41 64.46L249.65 64.46L249.65 65.83L251.27 65.83Q252.28 65.83 252.76 66.18Q252.84 66.23 252.91 66.3Q253.24 66.66 253.24 67.32Q253.24 67.63 253.13 67.88Q252.99 68.2 252.67 68.44Q252.1 68.87 251.17 68.87Q250.4 68.87 249.85 68.53Q249.73 68.46 249.62 68.37Q249.21 68.04 249.07 67.61Q249 67.41 249 67.18L247.39 67.18Q247.39 67.91 247.69 68.48Q247.95 68.98 248.45 69.36Q248.49 69.38 248.53 69.41Q249.58 70.16 251.17 70.16Q252.85 70.16 253.86 69.4Q254.33 69.05 254.58 68.58Q254.88 68.03 254.88 67.32Q254.88 66.57 254.53 66.04Q254.12 65.41 253.21 65.11Q253.93 64.79 254.31 64.26Q254.54 63.95 254.63 63.6Q254.7 63.35 254.7 63.08Q254.7 62.21 254.3 61.6Q254.09 61.28 253.77 61.03Q252.84 60.32 251.17 60.32Q249.76 60.32 248.78 60.96Q248.68 61.03 248.57 61.11Q247.99 61.56 247.73 62.15Q247.54 62.6 247.54 63.14L249.15 63.14Q249.15 62.98 249.2 62.82Q249.31 62.41 249.73 62.08Q249.8 62.03 249.88 61.98Q250.42 61.64 251.17 61.64Q252.05 61.64 252.56 62.03Q252.79 62.2 252.92 62.44ZM163.03 70L164.66 70L164.66 60.49L163.03 60.49L163.03 65.21Q162.73 65.29 162.43 65.35Q161.65 65.5 160.83 65.5Q159.89 65.5 159.38 65.03Q158.81 64.5 158.78 63.37L158.78 60.48L157.16 60.48L157.16 63.32Q157.17 64.82 157.92 65.71Q158.01 65.82 158.11 65.92Q158.14 65.94 158.16 65.97Q159.1 66.83 160.83 66.83Q161.65 66.83 162.43 66.68Q162.73 66.63 163.03 66.55L163.03 70ZM72.47 60.49L70.84 60.49L66.46 67.43L66.46 60.49L64.83 60.49L64.83 70L66.46 70L70.84 63.06L70.84 70L72.47 70L72.47 60.49ZM88.37 61.8L91.57 61.8L91.57 60.49L83.62 60.49L83.62 61.8L86.75 61.8L86.75 70L88.37 70L88.37 61.8ZM110.59 70L110.59 60.49L104.17 60.49L103.99 64.55Q103.9 66.79 103.55 67.61Q103.34 68.12 102.97 68.35Q102.73 68.49 102.42 68.53L101.95 68.56L101.95 70L102.6 70Q103.56 69.97 104.17 69.49Q104.49 69.25 104.71 68.9Q105.37 67.84 105.53 65.39L105.72 61.83L108.96 61.83L108.96 70L110.59 70ZM117.45 63.76L114.98 63.76L114.98 60.49L113.35 60.49L113.35 70L117.38 70Q118.88 70 119.82 69.27Q119.9 69.2 119.98 69.13Q120.33 68.82 120.55 68.44Q120.95 67.76 120.95 66.85Q120.95 65.89 120.52 65.2Q120.31 64.87 120.01 64.61Q119.98 64.58 119.95 64.56Q119.02 63.78 117.45 63.76ZM129.12 70L130.75 70L130.75 60.49L129.12 60.49L129.12 64.61L124.75 64.61L124.75 60.49L123.12 60.49L123.12 70L124.75 70L124.75 65.93L129.12 65.93L129.12 70ZM150.42 70L150.42 60.49L146.42 60.49Q144.78 60.49 143.81 61.29Q143.36 61.65 143.12 62.12Q142.83 62.68 142.83 63.39Q142.83 64.08 143.1 64.64Q143.19 64.84 143.32 65.02Q143.39 65.12 143.48 65.22Q143.94 65.76 144.72 66.05L142.33 70L144.09 70L146.33 66.29L148.78 66.29L148.78 70L150.42 70ZM180.58 61.8L183.77 61.8L183.77 60.49L175.83 60.49L175.83 61.8L178.96 61.8L178.96 70L180.58 70L180.58 61.8ZM187.13 65.94L188.32 65.94L191.61 70L193.68 70L189.6 65.06L193.36 60.49L191.39 60.49L188.19 64.51L187.13 64.51L187.13 60.49L185.49 60.49L185.49 70L187.13 70L187.13 65.94ZM218.45 61.8L221.64 61.8L221.64 60.49L213.7 60.49L213.7 61.8L216.83 61.8L216.83 70L218.45 70L218.45 61.8ZM227.47 63.76L225 63.76L225 60.49L223.38 60.49L223.38 70L227.4 70Q228.9 70 229.84 69.27Q229.92 69.2 230 69.13Q230.35 68.82 230.57 68.44Q230.97 67.76 230.97 66.85Q230.97 65.89 230.54 65.2Q230.33 64.87 230.03 64.61Q230 64.58 229.97 64.56Q229.04 63.78 227.47 63.76ZM245.23 60.49L243.61 60.49L239.22 67.43L239.22 60.49L237.6 60.49L237.6 70L239.22 70L243.61 63.06L243.61 70L245.23 70L245.23 60.49ZM303.38 65.86L304.52 65.86L307.19 70L309.24 70L305.84 65.08L308.93 60.49L306.96 60.49L304.49 64.42L303.38 64.42L303.38 60.49L301.76 60.49L301.76 64.42L300.64 64.42L298.19 60.49L296.22 60.49L299.29 65.07L295.89 70L297.95 70L300.61 65.86L301.76 65.86L301.76 70L303.38 70L303.38 65.86ZM326.22 70L327.85 70L327.85 60.49L326.22 60.49L326.22 64.61L321.86 64.61L321.86 60.49L320.22 60.49L320.22 70L321.86 70L321.86 65.93L326.22 65.93L326.22 70ZM338.24 60.49L336.61 60.49L332.23 67.43L332.23 60.49L330.6 60.49L330.6 70L332.23 70L336.61 63.06L336.61 70L338.24 70L338.24 60.49ZM348.12 70L348.12 60.49L344.12 60.49Q342.48 60.49 341.51 61.29Q341.06 61.65 340.82 62.12Q340.53 62.68 340.53 63.39Q340.53 64.08 340.8 64.64Q340.9 64.84 341.02 65.02Q341.09 65.12 341.18 65.22Q341.65 65.76 342.42 66.05L340.03 70L341.79 70L344.03 66.29L346.48 66.29L346.48 70L348.12 70ZM170.09 61.83Q170.51 61.65 171.01 61.65Q171.69 61.65 172.19 61.95Q172.43 62.1 172.63 62.33Q173.22 63.01 173.3 64.25L173.3 64.37L168.53 64.37Q168.69 63.08 169.36 62.36Q169.69 62.01 170.09 61.83ZM196.83 67.89Q196.09 66.93 196.09 65.35Q196.09 63.56 196.83 62.6Q197.21 62.12 197.7 61.88Q198.18 61.65 198.77 61.65Q199.4 61.65 199.9 61.9Q200.38 62.14 200.75 62.62Q201.49 63.59 201.49 65.15Q201.49 66.9 200.76 67.87Q200.41 68.33 199.95 68.58Q199.44 68.84 198.79 68.84Q198.15 68.84 197.64 68.58Q197.18 68.34 196.83 67.89ZM258.92 67.89Q258.19 66.93 258.19 65.35Q258.19 63.56 258.93 62.6Q259.3 62.12 259.79 61.88Q260.27 61.65 260.87 61.65Q261.49 61.65 261.99 61.9Q262.48 62.14 262.84 62.62Q263.59 63.59 263.59 65.15Q263.59 66.9 262.85 67.87Q262.51 68.33 262.05 68.58Q261.54 68.84 260.89 68.84Q260.24 68.84 259.73 68.58Q259.27 68.34 258.92 67.89ZM313.37 61.83Q313.79 61.65 314.29 61.65Q314.97 61.65 315.47 61.95Q315.71 62.1 315.91 62.33Q316.5 63.01 316.57 64.25L316.57 64.37L311.81 64.37Q311.97 63.08 312.64 62.36Q312.97 62.01 313.37 61.83ZM60.31 62.62Q61 63.55 61 65.16Q61 66.99 60.31 67.92Q59.97 68.37 59.52 68.6Q59.05 68.84 58.45 68.84Q57.69 68.84 57.12 68.51Q56.57 68.18 56.22 67.54L56.22 63Q56.6 62.32 57.18 61.99Q57.72 61.69 58.43 61.69Q59.08 61.69 59.57 61.96Q60 62.19 60.31 62.62ZM282.77 62.62Q283.46 63.55 283.46 65.16Q283.46 66.99 282.77 67.92Q282.43 68.37 281.98 68.6Q281.51 68.84 280.91 68.84Q280.15 68.84 279.58 68.51Q279.04 68.18 278.68 67.54L278.68 63Q279.06 62.32 279.64 61.99Q280.18 61.69 280.89 61.69Q281.54 61.69 282.03 61.96Q282.46 62.19 282.77 62.62ZM144.65 64.17Q144.47 63.84 144.47 63.4Q144.47 63.03 144.62 62.72Q144.75 62.46 145 62.25Q145.54 61.8 146.44 61.8L148.78 61.8L148.78 64.96L146.2 64.96Q145.51 64.95 145.06 64.62Q145 64.57 144.94 64.52Q144.76 64.36 144.65 64.17ZM342.35 64.17Q342.17 63.84 342.17 63.4Q342.17 63.03 342.32 62.72Q342.45 62.46 342.7 62.25Q343.24 61.8 344.15 61.8L346.48 61.8L346.48 64.96L343.9 64.96Q343.21 64.95 342.76 64.62Q342.7 64.57 342.64 64.52Q342.47 64.36 342.35 64.17ZM269.74 62.72Q270.32 62.37 271.11 62.37Q271.94 62.37 272.53 62.74Q272.81 62.92 273.04 63.18Q273.1 63.25 273.16 63.32Q273.75 64.11 273.75 65.34Q273.75 67.06 273.04 67.96Q272.75 68.33 272.36 68.55Q271.83 68.85 271.13 68.85Q270.44 68.85 269.91 68.56Q269.52 68.34 269.21 67.96Q268.51 67.07 268.51 65.54L268.51 65.4Q268.51 63.97 269.21 63.17Q269.45 62.9 269.74 62.72ZM114.98 68.67L114.98 65.09L117.46 65.09Q118.21 65.11 118.68 65.48Q118.76 65.54 118.83 65.61Q118.97 65.76 119.07 65.93Q119.31 66.35 119.31 66.91Q119.31 67.53 119.02 67.96Q118.93 68.09 118.81 68.2Q118.79 68.21 118.78 68.23Q118.28 68.67 117.4 68.67L114.98 68.67ZM225 68.67L225 65.09L227.48 65.09Q228.23 65.11 228.7 65.48Q228.78 65.54 228.85 65.61Q228.99 65.76 229.09 65.93Q229.33 66.35 229.33 66.91Q229.33 67.53 229.04 67.96Q228.95 68.09 228.83 68.2Q228.82 68.21 228.8 68.23Q228.3 68.67 227.42 68.67L225 68.67ZM96.74 68.7Q96.46 68.76 96.18 68.76Q95.49 68.76 95.02 68.44Q94.94 68.39 94.87 68.33Q94.71 68.19 94.6 68.02Q94.36 67.66 94.36 67.13Q94.36 66.68 94.55 66.35Q95.12 65.38 97.35 65.38L98.62 65.38L98.62 67.33Q98.57 67.44 98.51 67.54Q98.2 68.03 97.63 68.36Q97.2 68.61 96.74 68.7ZM137.09 68.7Q136.81 68.76 136.53 68.76Q135.84 68.76 135.37 68.44Q135.29 68.39 135.22 68.33Q135.06 68.19 134.95 68.02Q134.71 67.66 134.71 67.13Q134.71 66.68 134.91 66.35Q135.47 65.38 137.7 65.38L138.97 65.38L138.97 67.33Q138.92 67.44 138.86 67.54Q138.55 68.03 137.98 68.36Q137.55 68.61 137.09 68.7ZM290.88 68.7Q290.6 68.76 290.32 68.76Q289.63 68.76 289.16 68.44Q289.08 68.39 289.01 68.33Q288.85 68.19 288.74 68.02Q288.5 67.66 288.5 67.13Q288.5 66.68 288.7 66.35Q289.26 65.38 291.49 65.38L292.76 65.38L292.76 67.33Q292.71 67.44 292.65 67.54Q292.34 68.03 291.77 68.36Q291.34 68.61 290.88 68.7Z" fill="#000000" fill-opacity="1.000000" fill-rule="evenodd"/>
	<g clip-path="url(#clip14_314)">
		<path id="Vector" d="M18.66 96.66L5.33 96.66C3.85 96.66 2.66 97.86 2.66 99.33L2.66 112.66L5.33 112.66L5.33 99.33L18.66 99.33L18.66 96.66ZM24 102L10.66 102C9.18 102 8 103.2 8 104.66L8 118L10.66 118L10.66 104.66L24 104.66L24 102ZM26.66 107.33L16 107.33C14.52 107.33 13.33 108.53 13.33 110L13.33 120.66C13.33 122.13 14.52 123.33 16 123.33L26.66 123.33C28.13 123.33 29.33 122.13 29.33 120.66L29.33 110C29.33 108.53 28.13 107.33 26.66 107.33Z" fill="#000000" fill-opacity="1.000000" fill-rule="nonzero"/>
	</g>
	<path id="Быстрые движения и плавный геймплей" d="M300.83 105.2Q301.12 104.7 301.12 104.02L299.81 104.02Q299.81 104.57 299.54 104.9Q299.5 104.95 299.46 104.99Q299.41 105.03 299.36 105.07Q299.03 105.33 298.5 105.33Q297.91 105.33 297.58 105.04Q297.55 105.01 297.52 104.99Q297.49 104.95 297.46 104.91Q297.19 104.58 297.19 104.02L295.86 104.02Q295.86 104.67 296.13 105.16Q296.31 105.48 296.59 105.73Q296.7 105.83 296.82 105.91Q297.5 106.38 298.5 106.38Q299.5 106.38 300.18 105.9Q300.29 105.82 300.4 105.73Q300.66 105.5 300.83 105.2ZM332.59 105.2Q332.88 104.7 332.88 104.02L331.56 104.02Q331.56 104.57 331.29 104.9Q331.25 104.95 331.21 104.99Q331.17 105.03 331.12 105.07Q330.79 105.33 330.25 105.33Q329.66 105.33 329.33 105.04Q329.3 105.01 329.27 104.99Q329.24 104.95 329.21 104.91Q328.94 104.58 328.94 104.02L327.61 104.02Q327.61 104.67 327.89 105.16Q328.06 105.48 328.34 105.73Q328.46 105.83 328.58 105.91Q329.25 106.38 330.25 106.38Q331.26 106.38 331.94 105.9Q332.05 105.82 332.15 105.73Q332.42 105.5 332.59 105.2ZM386.66 105.2Q386.95 104.7 386.95 104.02L385.63 104.02Q385.63 104.57 385.36 104.9Q385.33 104.95 385.28 104.99Q385.24 105.03 385.19 105.07Q384.86 105.33 384.32 105.33Q383.73 105.33 383.4 105.04Q383.37 105.01 383.35 104.99Q383.31 104.95 383.28 104.91Q383.01 104.58 383.01 104.02L381.68 104.02Q381.68 104.67 381.96 105.16Q382.13 105.48 382.41 105.73Q382.53 105.83 382.65 105.91Q383.32 106.38 384.32 106.38Q385.33 106.38 386.01 105.9Q386.12 105.82 386.22 105.73Q386.49 105.5 386.66 105.2ZM45.12 105.59L51.29 105.59L51.29 104.2L43.42 104.2L43.42 117L48.32 117Q50.18 116.96 51.3 116.03Q51.36 115.98 51.42 115.93Q51.78 115.61 52.02 115.21Q52.55 114.36 52.55 113.17Q52.55 111.97 52.01 111.12Q51.77 110.75 51.43 110.45Q50.3 109.45 48.3 109.42L45.12 109.42L45.12 105.59ZM73.31 115.66Q72.87 115.84 72.36 115.84Q71.55 115.84 70.98 115.47Q70.67 115.27 70.43 114.96Q69.75 114.07 69.75 112.43L69.75 112.12Q69.75 110.43 70.43 109.54Q70.69 109.2 71.02 108.99Q71.58 108.65 72.35 108.65Q72.92 108.65 73.38 108.87Q73.66 109.01 73.9 109.24Q74.14 109.46 74.29 109.72Q74.56 110.17 74.6 110.76L76.14 110.76Q76.1 109.81 75.68 109.09Q75.42 108.64 75.01 108.27Q74.71 107.99 74.36 107.8Q73.5 107.31 72.35 107.31Q71.12 107.31 70.2 107.84Q70.15 107.87 70.1 107.91Q69.8 108.09 69.55 108.33Q68.99 108.84 68.63 109.59Q68.12 110.67 68.12 112.06L68.12 112.33Q68.12 114.5 69.19 115.78Q69.23 115.83 69.27 115.87Q69.65 116.31 70.12 116.59Q71.06 117.17 72.36 117.17Q72.83 117.17 73.27 117.07Q73.74 116.96 74.19 116.73Q74.89 116.38 75.36 115.83Q75.48 115.7 75.58 115.55Q76 114.96 76.11 114.3Q76.13 114.15 76.14 114L74.6 114Q74.57 114.33 74.45 114.61Q74.26 115.01 73.88 115.32Q73.61 115.54 73.31 115.66ZM93.66 115.84Q94.65 114.52 94.65 112.35L94.65 112.2Q94.65 109.89 93.65 108.6Q93.22 108.04 92.64 107.72Q91.91 107.31 90.94 107.31Q89.8 107.31 88.98 107.82Q88.53 108.11 88.18 108.54L88.1 107.49L86.62 107.49L86.62 120.65L88.24 120.65L88.24 116.07Q88.51 116.37 88.83 116.59Q89.7 117.17 90.97 117.17Q91.86 117.17 92.56 116.8Q93.19 116.47 93.66 115.84ZM112.42 116.63Q113.37 117.17 114.64 117.17Q116.06 117.17 117.06 116.52Q117.74 116.08 118.22 115.33L117.23 114.56Q116.84 115.07 116.33 115.4Q116.26 115.45 116.18 115.49Q115.59 115.84 114.72 115.84Q114.05 115.84 113.51 115.58Q113.08 115.36 112.73 114.98Q112.61 114.85 112.51 114.72Q111.93 113.91 111.9 112.71L118.35 112.71L118.35 112.03Q118.35 109.75 117.32 108.53Q117.01 108.17 116.64 107.92Q115.74 107.31 114.43 107.31Q113.94 107.31 113.47 107.43Q112.88 107.58 112.33 107.94Q112.06 108.11 111.83 108.32Q111.21 108.87 110.82 109.68Q110.28 110.79 110.28 112.21L110.28 112.5Q110.28 114.26 111.11 115.43Q111.28 115.68 111.49 115.9Q111.91 116.34 112.42 116.63ZM171.55 116.63Q172.51 117.17 173.77 117.17Q175.19 117.17 176.19 116.52Q176.87 116.08 177.36 115.33L176.36 114.56Q175.97 115.07 175.46 115.4Q175.39 115.45 175.32 115.49Q174.72 115.84 173.86 115.84Q173.18 115.84 172.64 115.58Q172.21 115.36 171.86 114.98Q171.75 114.85 171.65 114.72Q171.07 113.91 171.04 112.71L177.48 112.71L177.48 112.03Q177.48 109.75 176.45 108.53Q176.15 108.17 175.77 107.92Q174.87 107.31 173.57 107.31Q173.07 107.31 172.61 107.43Q172.01 107.58 171.46 107.94Q171.2 108.11 170.96 108.32Q170.34 108.87 169.95 109.68Q169.41 110.79 169.41 112.21L169.41 112.5Q169.41 114.26 170.24 115.43Q170.41 115.68 170.62 115.9Q171.04 116.34 171.55 116.63ZM255.75 115.99Q255.83 116.71 255.97 117L257.68 117L257.68 116.85Q257.35 116.08 257.35 114.77L257.35 110.39Q257.32 109.35 256.82 108.63Q256.63 108.36 256.38 108.13Q256.37 108.12 256.36 108.12Q255.43 107.31 253.8 107.31Q252.77 107.31 251.91 107.69L251.9 107.7Q251.04 108.08 250.54 108.74L250.53 108.75Q250.09 109.32 250.03 109.93Q250.02 110.03 250.02 110.12L251.66 110.12Q251.66 109.93 251.71 109.76Q251.84 109.37 252.25 109.06Q252.31 109.01 252.37 108.97Q252.92 108.62 253.71 108.62Q254.68 108.62 255.19 109.11Q255.2 109.12 255.21 109.12Q255.32 109.24 255.41 109.37Q255.72 109.82 255.72 110.48L255.72 111.23L254.14 111.23Q252.09 111.23 250.96 112.05Q250.48 112.4 250.2 112.87Q249.83 113.51 249.83 114.36Q249.83 115 250.08 115.52Q250.3 116 250.73 116.38Q250.91 116.53 251.11 116.66Q251.91 117.17 253.04 117.17Q253.73 117.17 254.33 116.95Q255.11 116.66 255.75 115.99ZM318.48 116.63Q319.43 117.17 320.7 117.17Q322.12 117.17 323.12 116.52Q323.8 116.08 324.28 115.33L323.29 114.56Q322.9 115.07 322.39 115.4Q322.32 115.45 322.24 115.49Q321.65 115.84 320.78 115.84Q320.11 115.84 319.57 115.58Q319.13 115.36 318.79 114.98Q318.67 114.85 318.57 114.72Q317.99 113.91 317.96 112.71L324.41 112.71L324.41 112.03Q324.41 109.75 323.38 108.53Q323.07 108.17 322.7 107.92Q321.8 107.31 320.49 107.31Q320 107.31 319.53 107.43Q318.94 107.58 318.39 107.94Q318.12 108.11 317.89 108.32Q317.27 108.87 316.88 109.68Q316.34 110.79 316.34 112.21L316.34 112.5Q316.34 114.26 317.17 115.43Q317.34 115.68 317.55 115.9Q317.97 116.34 318.48 116.63ZM372.55 116.63Q373.5 117.17 374.77 117.17Q376.19 117.17 377.19 116.52Q377.87 116.08 378.35 115.33L377.36 114.56Q376.97 115.07 376.46 115.4Q376.39 115.45 376.31 115.49Q375.72 115.84 374.85 115.84Q374.18 115.84 373.64 115.58Q373.21 115.36 372.86 114.98Q372.74 114.85 372.64 114.72Q372.06 113.91 372.03 112.71L378.48 112.71L378.48 112.03Q378.48 109.75 377.45 108.53Q377.14 108.17 376.77 107.92Q375.87 107.31 374.56 107.31Q374.07 107.31 373.6 107.43Q373.01 107.58 372.46 107.94Q372.19 108.11 371.96 108.32Q371.34 108.87 370.95 109.68Q370.41 110.79 370.41 112.21L370.41 112.5Q370.41 114.26 371.24 115.43Q371.41 115.68 371.62 115.9Q372.04 116.34 372.55 116.63ZM58.82 110.76L56.35 110.76L56.35 107.49L54.72 107.49L54.72 117L58.75 117Q60.25 117 61.19 116.27Q61.27 116.2 61.35 116.13Q61.7 115.82 61.92 115.44Q62.32 114.76 62.32 113.85Q62.32 112.89 61.88 112.2Q61.68 111.87 61.37 111.61Q61.35 111.58 61.32 111.56Q60.39 110.78 58.82 110.76ZM64.07 117L65.71 117L65.71 107.49L64.07 107.49L64.07 117ZM81.84 108.8L85.04 108.8L85.04 107.49L77.09 107.49L77.09 108.8L80.22 108.8L80.22 117L81.84 117L81.84 108.8ZM100.96 110.76L98.49 110.76L98.49 107.49L96.87 107.49L96.87 117L100.89 117Q102.39 117 103.33 116.27Q103.41 116.2 103.49 116.13Q103.84 115.82 104.06 115.44Q104.46 114.76 104.46 113.85Q104.46 112.89 104.03 112.2Q103.82 111.87 103.52 111.61Q103.49 111.58 103.46 111.56Q102.53 110.78 100.96 110.76ZM106.22 117L107.85 117L107.85 107.49L106.22 107.49L106.22 117ZM125.17 114.97L124.6 115.67L123.87 115.67L123.86 119.79L125.48 119.79L125.48 117L132.12 117L132.12 119.79L133.74 119.79L133.74 115.67L132.52 115.67L132.52 107.49L126.4 107.49L126.25 111.28Q126.12 113.74 125.17 114.97ZM135.7 107.49L135.7 117L139.99 117Q141.75 117 142.71 116.3Q143.08 116.04 143.31 115.68Q143.68 115.11 143.68 114.3Q143.68 113.83 143.5 113.43Q143.38 113.14 143.15 112.89Q143.05 112.78 142.94 112.68Q142.46 112.26 141.77 112.1Q142.54 111.82 142.94 111.29Q143.14 111.01 143.24 110.71Q143.33 110.42 143.33 110.1Q143.33 109.37 143.01 108.85Q142.76 108.44 142.32 108.15Q141.3 107.49 139.4 107.49L135.7 107.49ZM153.61 107.49L151.98 107.49L147.6 114.43L147.6 107.49L145.97 107.49L145.97 117L147.6 117L151.98 110.06L151.98 117L153.61 117L153.61 107.49ZM162.66 112.86L163.8 112.86L166.47 117L168.52 117L165.12 112.08L168.21 107.49L166.24 107.49L163.77 111.42L162.66 111.42L162.66 107.49L161.03 107.49L161.03 111.42L159.92 111.42L157.47 107.49L155.5 107.49L158.57 112.07L155.17 117L157.23 117L159.89 112.86L161.03 112.86L161.03 117L162.66 117L162.66 112.86ZM185.5 117L187.13 117L187.13 107.49L185.5 107.49L185.5 111.61L181.14 111.61L181.14 107.49L179.5 107.49L179.5 117L181.14 117L181.14 112.93L185.5 112.93L185.5 117ZM197.52 107.49L195.89 107.49L191.51 114.43L191.51 107.49L189.88 107.49L189.88 117L191.51 117L195.89 110.06L195.89 117L197.52 117L197.52 107.49ZM207.4 117L207.4 107.49L203.4 107.49Q201.76 107.49 200.79 108.29Q200.34 108.65 200.1 109.12Q199.81 109.68 199.81 110.39Q199.81 111.08 200.08 111.64Q200.17 111.84 200.3 112.02Q200.37 112.12 200.45 112.22Q200.92 112.77 201.7 113.05L199.31 117L201.07 117L203.31 113.3L205.76 113.3L205.76 117L207.4 117ZM222.24 107.49L220.62 107.49L216.23 114.43L216.23 107.49L214.6 107.49L214.6 117L216.23 117L220.62 110.06L220.62 117L222.24 117L222.24 107.49ZM235.46 117L237.09 117L237.09 107.49L229.45 107.49L229.45 117L231.08 117L231.08 108.83L235.46 108.83L235.46 117ZM247.49 117L247.49 107.49L241.07 107.49L240.89 111.56Q240.8 113.79 240.45 114.61Q240.24 115.12 239.87 115.35Q239.63 115.49 239.32 115.53L238.85 115.56L238.85 117L239.5 117Q240.46 116.97 241.07 116.49Q241.38 116.25 241.61 115.9Q242.27 114.84 242.43 112.39L242.62 108.83L245.86 108.83L245.86 117L247.49 117ZM260.04 107.49L260.04 117L264.34 117Q266.1 117 267.06 116.3Q267.43 116.04 267.66 115.68Q268.02 115.11 268.02 114.3Q268.02 113.83 267.85 113.43Q267.72 113.14 267.5 112.89Q267.4 112.78 267.29 112.68Q266.81 112.26 266.12 112.1Q266.89 111.82 267.29 111.29Q267.49 111.01 267.59 110.71Q267.68 110.42 267.68 110.1Q267.68 109.37 267.36 108.85Q267.11 108.44 266.67 108.15Q265.65 107.49 263.75 107.49L260.04 107.49ZM276.32 117L277.95 117L277.95 107.49L276.32 107.49L276.32 111.61L271.95 111.61L271.95 107.49L270.32 107.49L270.32 117L271.95 117L271.95 112.93L276.32 112.93L276.32 117ZM284.8 110.76L282.33 110.76L282.33 107.49L280.71 107.49L280.71 117L284.73 117Q286.23 117 287.17 116.27Q287.26 116.2 287.33 116.13Q287.68 115.82 287.9 115.44Q288.3 114.76 288.3 113.85Q288.3 112.89 287.87 112.2Q287.66 111.87 287.36 111.61Q287.33 111.58 287.31 111.56Q286.37 110.78 284.8 110.76ZM290.06 117L291.69 117L291.69 107.49L290.06 107.49L290.06 117ZM302.31 107.49L300.68 107.49L296.3 114.43L296.3 107.49L294.67 107.49L294.67 117L296.3 117L300.68 110.06L300.68 117L302.31 117L302.31 107.49ZM311.13 108.83L315.52 108.83L315.52 107.49L309.5 107.49L309.5 117L311.13 117L311.13 108.83ZM334.06 107.49L332.44 107.49L328.05 114.43L328.05 107.49L326.43 107.49L326.43 117L328.05 117L332.44 110.06L332.44 117L334.06 117L334.06 107.49ZM345.39 107.49L342.15 114.84L338.93 107.49L336.82 107.49L336.82 117L338.45 117L338.45 109.93L341.59 117L342.71 117L345.79 110.08L345.79 117L347.42 117L347.42 107.49L345.39 107.49ZM356.18 117L357.8 117L357.8 107.49L350.17 107.49L350.17 117L351.8 117L351.8 108.83L356.18 108.83L356.18 117ZM368.21 117L368.21 107.49L361.79 107.49L361.61 111.56Q361.51 113.79 361.17 114.61Q360.96 115.12 360.58 115.35Q360.34 115.49 360.04 115.53L359.57 115.56L359.57 117L360.22 117Q361.18 116.97 361.79 116.49Q362.1 116.25 362.33 115.9Q362.99 114.84 363.15 112.39L363.34 108.83L366.58 108.83L366.58 117L368.21 117ZM388.14 107.49L386.51 107.49L382.12 114.43L382.12 107.49L380.5 107.49L380.5 117L382.12 117L386.51 110.06L386.51 117L388.14 117L388.14 107.49ZM113.52 108.83Q113.93 108.65 114.43 108.65Q115.12 108.65 115.61 108.95Q115.85 109.1 116.05 109.33Q116.65 110.01 116.72 111.25L116.72 111.37L111.96 111.37Q112.11 110.08 112.78 109.36Q113.11 109.01 113.52 108.83ZM172.65 108.83Q173.07 108.65 173.57 108.65Q174.25 108.65 174.74 108.95Q174.99 109.1 175.18 109.33Q175.78 110.01 175.85 111.25L175.85 111.37L171.09 111.37Q171.25 110.08 171.92 109.36Q172.24 109.01 172.65 108.83ZM319.58 108.83Q319.99 108.65 320.49 108.65Q321.18 108.65 321.67 108.95Q321.91 109.1 322.11 109.33Q322.71 110.01 322.78 111.25L322.78 111.37L318.02 111.37Q318.17 110.08 318.84 109.36Q319.17 109.01 319.58 108.83ZM373.65 108.83Q374.06 108.65 374.56 108.65Q375.25 108.65 375.74 108.95Q375.98 109.1 376.18 109.33Q376.78 110.01 376.85 111.25L376.85 111.37L372.09 111.37Q372.24 110.08 372.91 109.36Q373.24 109.01 373.65 108.83ZM92.34 109.62Q93.02 110.55 93.02 112.16Q93.02 113.99 92.33 114.92Q92 115.37 91.55 115.6Q91.08 115.84 90.48 115.84Q89.71 115.84 89.15 115.51Q88.6 115.18 88.24 114.54L88.24 110Q88.63 109.32 89.21 108.99Q89.75 108.69 90.46 108.69Q91.1 108.69 91.6 108.96Q92.02 109.19 92.34 109.62ZM139.42 111.52L137.32 111.52L137.32 108.8L139.55 108.8Q141.12 108.84 141.55 109.55Q141.71 109.82 141.71 110.18Q141.71 110.52 141.56 110.78Q141.13 111.52 139.42 111.52ZM201.63 111.17Q201.45 110.84 201.45 110.4Q201.45 110.03 201.6 109.72Q201.73 109.46 201.98 109.25Q202.52 108.8 203.42 108.8L205.76 108.8L205.76 111.96L203.18 111.96Q202.49 111.95 202.04 111.62Q201.98 111.57 201.92 111.52Q201.74 111.37 201.63 111.17ZM263.77 111.52L261.67 111.52L261.67 108.8L263.89 108.8Q265.47 108.84 265.9 109.55Q266.06 109.82 266.06 110.18Q266.06 110.52 265.91 110.78Q265.47 111.52 263.77 111.52ZM130.9 115.67L126.53 115.67Q127.72 114.1 127.87 111.26L127.97 108.99L130.9 108.99L130.9 115.67ZM45.12 115.62L45.12 110.81L48.27 110.81Q49.51 110.83 50.18 111.45Q50.35 111.61 50.48 111.79Q50.85 112.35 50.85 113.15Q50.85 113.98 50.47 114.57Q50.34 114.77 50.16 114.95Q50.1 115 50.05 115.04Q49.36 115.62 48.2 115.62L45.12 115.62ZM56.35 115.67L56.35 112.09L58.83 112.09Q59.58 112.11 60.05 112.48Q60.12 112.54 60.19 112.61Q60.34 112.76 60.44 112.93Q60.68 113.35 60.68 113.91Q60.68 114.53 60.39 114.96Q60.3 115.09 60.18 115.2Q60.16 115.22 60.14 115.23Q59.65 115.67 58.76 115.67L56.35 115.67ZM98.49 115.67L98.49 112.09L100.97 112.09Q101.72 112.11 102.19 112.48Q102.27 112.54 102.34 112.61Q102.48 112.76 102.58 112.93Q102.82 113.35 102.82 113.91Q102.82 114.53 102.53 114.96Q102.44 115.09 102.32 115.2Q102.31 115.22 102.29 115.23Q101.79 115.67 100.91 115.67L98.49 115.67ZM282.33 115.67L282.33 112.09L284.81 112.09Q285.56 112.11 286.03 112.48Q286.11 112.54 286.18 112.61Q286.32 112.76 286.42 112.93Q286.67 113.35 286.67 113.91Q286.67 114.53 286.37 114.96Q286.28 115.09 286.16 115.2Q286.15 115.22 286.13 115.23Q285.63 115.67 284.75 115.67L282.33 115.67ZM253.83 115.7Q253.56 115.76 253.28 115.76Q252.59 115.76 252.11 115.44Q252.04 115.39 251.97 115.33Q251.81 115.19 251.7 115.02Q251.46 114.66 251.46 114.13Q251.46 113.68 251.65 113.35Q252.22 112.38 254.44 112.38L255.72 112.38L255.72 114.33Q255.67 114.44 255.6 114.54Q255.29 115.03 254.73 115.36Q254.3 115.61 253.83 115.7ZM137.32 115.69L137.32 112.82L139.95 112.82Q141.38 112.82 141.83 113.49Q142.04 113.79 142.04 114.24Q142.04 114.66 141.86 114.96Q141.74 115.16 141.54 115.31Q141.03 115.69 140.01 115.69L137.32 115.69ZM261.67 115.69L261.67 112.82L264.3 112.82Q265.73 112.82 266.18 113.49Q266.39 113.79 266.39 114.24Q266.39 114.66 266.21 114.96Q266.08 115.16 265.88 115.31Q265.38 115.69 264.36 115.69L261.67 115.69Z" fill="#000000" fill-opacity="1.000000" fill-rule="evenodd"/>
</svg>
