<svg width="32.000000" height="32.000000" viewBox="0 0 32 32" fill="none" xmlns="http://www.w3.org/2000/svg" xmlns:xlink="http://www.w3.org/1999/xlink">
	<desc>
			Created with Pixso.
	</desc>
	<defs>
		<clipPath id="clip14_314">
			<rect id="auto_awesome_motion" rx="0.000000" width="31.000000" height="31.000000" transform="translate(0.500000 0.500000)" fill="white" fill-opacity="0"/>
		</clipPath>
	</defs>
	<g clip-path="url(#clip14_314)">
		<path id="Vector" d="M18.66 2.66L5.33 2.66C3.85 2.66 2.66 3.86 2.66 5.33L2.66 18.66L5.33 18.66L5.33 5.33L18.66 5.33L18.66 2.66ZM24 7.99L10.66 7.99C9.18 7.99 8 9.19 8 10.66L8 23.99L10.66 23.99L10.66 10.66L24 10.66L24 7.99ZM26.66 13.33L16 13.33C14.52 13.33 13.33 14.53 13.33 15.99L13.33 26.66C13.33 28.13 14.52 29.33 16 29.33L26.66 29.33C28.13 29.33 29.33 28.13 29.33 26.66L29.33 15.99C29.33 14.53 28.13 13.33 26.66 13.33Z" fill="#000000" fill-opacity="1.000000" fill-rule="nonzero"/>
	</g>
</svg>
