<svg width="32.000000" height="32.000000" viewBox="0 0 32 32" fill="none" xmlns="http://www.w3.org/2000/svg" xmlns:xlink="http://www.w3.org/1999/xlink">
	<desc>
			Created with Pixso.
	</desc>
	<defs>
		<clipPath id="clip14_306">
			<rect id="auto_awesome" rx="0.000000" width="31.000000" height="31.000000" transform="translate(0.500000 0.500000)" fill="white" fill-opacity="0"/>
		</clipPath>
	</defs>
	<g clip-path="url(#clip14_306)">
		<path id="Vector" d="M25.33 12L26.99 8.33L30.66 6.66L26.99 5L25.33 1.33L23.66 5L19.99 6.66L23.66 8.33L25.33 12ZM15.33 12.66L11.99 5.33L8.66 12.66L1.33 16L8.66 19.33L11.99 26.66L15.33 19.33L22.66 16L15.33 12.66ZM25.33 20L23.66 23.66L19.99 25.33L23.66 27L25.33 30.66L26.99 27L30.66 25.33L26.99 23.66L25.33 20Z" fill="#000000" fill-opacity="1.000000" fill-rule="nonzero"/>
	</g>
</svg>
