<svg width="24.000000" height="24.000000" viewBox="0 0 24 24" fill="none" xmlns="http://www.w3.org/2000/svg" xmlns:xlink="http://www.w3.org/1999/xlink">
	<desc>
			Created with Pixso.
	</desc>
	<defs/>
	<path d="M12 0C5.37 0 0 5.37 0 12C0 18.62 5.37 24 12 24C13.1 24 14 23.1 14 22C14 21.48 13.8 21.01 13.48 20.65C13.17 20.3 12.97 19.84 12.97 19.33C12.97 18.22 13.86 17.33 14.97 17.33L17.33 17.33C21.01 17.33 24 14.34 24 10.66C24 4.77 18.62 0 12 0ZM4.66 12C3.56 12 2.66 11.1 2.66 10C2.66 8.89 3.56 8 4.66 8C5.77 8 6.66 8.89 6.66 10C6.66 11.1 5.77 12 4.66 12ZM8.66 6.66C7.56 6.66 6.66 5.77 6.66 4.66C6.66 3.56 7.56 2.66 8.66 2.66C9.77 2.66 10.66 3.56 10.66 4.66C10.66 5.77 9.77 6.66 8.66 6.66ZM15.33 6.66C14.22 6.66 13.33 5.77 13.33 4.66C13.33 3.56 14.22 2.66 15.33 2.66C16.43 2.66 17.33 3.56 17.33 4.66C17.33 5.77 16.43 6.66 15.33 6.66ZM19.33 12C18.22 12 17.33 11.1 17.33 10C17.33 8.89 18.22 8 19.33 8C20.43 8 21.33 8.89 21.33 10C21.33 11.1 20.43 12 19.33 12Z" fill="#000000" fill-opacity="1.000000" fill-rule="nonzero"/>
</svg>
