<svg width="32.000000" height="32.000000" viewBox="0 0 32 32" fill="none" xmlns="http://www.w3.org/2000/svg" xmlns:xlink="http://www.w3.org/1999/xlink">
	<desc>
			Created with Pixso.
	</desc>
	<defs/>
	<path id="Vector" d="M25.33 4L6.66 4C5.18 4 4 5.19 4 6.66L4 25.33C4 26.8 5.18 28 6.66 28L25.33 28C26.8 28 28 26.8 28 25.33L28 6.66C28 5.19 26.81 4 25.33 4ZM25.33 25.33L6.66 25.33L6.66 9.33L25.33 9.33L25.33 25.33ZM22.66 16L9.33 16L9.33 13.33L22.66 13.33L22.66 16ZM17.33 21.33L9.33 21.33L9.33 18.66L17.33 18.66L17.33 21.33Z" fill="#F8F200" fill-opacity="1.000000" fill-rule="nonzero"/>
</svg>
