<svg width="26.666626" height="26.666748" viewBox="0 0 26.6666 26.6667" fill="none" xmlns="http://www.w3.org/2000/svg" xmlns:xlink="http://www.w3.org/1999/xlink">
	<desc>
			Created with Pixso.
	</desc>
	<defs/>
	<path d="M26.66 18.66L26.66 2.66C26.66 1.19 25.46 0 24 0L8 0C6.53 0 5.33 1.19 5.33 2.66L5.33 18.66C5.33 20.13 6.53 21.33 8 21.33L24 21.33C25.46 21.33 26.66 20.13 26.66 18.66ZM12 13.33L14.7 16.94L18.66 12L24 18.66L8 18.66L12 13.33ZM0 5.33L0 24C0 25.46 1.19 26.66 2.66 26.66L21.33 26.66L21.33 24L2.66 24L2.66 5.33L0 5.33Z" fill="#F8F200" fill-opacity="1.000000" fill-rule="nonzero"/>
</svg>
