<svg width="319.000000" height="133.268066" viewBox="0 0 319 133.268" fill="none" xmlns="http://www.w3.org/2000/svg" xmlns:xlink="http://www.w3.org/1999/xlink">
	<desc>
			Created with Pixso.
	</desc>
	<defs>
		<clipPath id="clip17_68">
			<rect id="stadia logo" rx="0.000000" width="57.000000" height="49.268284" transform="translate(3.500000 83.500000)" fill="white" fill-opacity="0"/>
		</clipPath>
		<clipPath id="clip17_35">
			<rect id="Playstation logo" rx="0.000000" width="167.000000" height="34.187801" transform="translate(141.500000 91.500000)" fill="white" fill-opacity="0"/>
		</clipPath>
		<clipPath id="clip15_59">
			<rect id="xbox-one-3 logo" rx="0.000000" width="177.000000" height="34.187801" transform="translate(141.500000 0.785156)" fill="white" fill-opacity="0"/>
		</clipPath>
	</defs>
	<rect id="stadia logo" rx="0.000000" width="57.000000" height="49.268284" transform="translate(3.500000 83.500000)" fill="#FFFFFF" fill-opacity="0"/>
	<g clip-path="url(#clip17_68)">
		<path id="Fill-1" d="M11.91 91.19C11.69 91.36 11.57 91.61 11.56 91.88L11.56 91.89C11.57 92 11.59 92.11 11.63 92.22L15.55 101.36C15.72 101.77 16.17 101.96 16.57 101.82C19.13 100.87 28 97.89 33.74 99.5C33.74 99.5 27.98 99.84 22.78 104.06C22.48 104.29 22.38 104.71 22.53 105.06C22.96 106.04 23.81 108.02 24.29 109.14L24.96 110.77C25.12 111.16 25.63 111.21 25.86 110.86C27.07 108.97 29.12 108.03 31.09 107.2C33.1 106.36 35.21 105.73 37.35 105.36C39.64 104.96 41.97 104.85 44.28 105.07C44.67 105.1 45.02 104.86 45.14 104.48L46.91 98.65C47.01 98.31 46.89 97.93 46.61 97.72C44.64 96.25 36.83 91.3 23.11 93.29C23.11 93.29 34.82 86.35 49.69 93.97C50.14 94.21 50.68 93.96 50.83 93.47L52.39 88.33C52.41 88.25 52.42 88.17 52.43 88.09L52.43 88.07C52.42 87.78 52.27 87.5 52.01 87.35C50.15 86.26 43.83 83 35.14 83C28.48 82.99 20.42 84.91 11.91 91.19Z" fill="#FBF503" fill-opacity="1.000000" fill-rule="evenodd"/>
		<path id="Shape" d="M19.42 133.25L18.01 133.25C17.9 133.25 17.8 133.21 17.72 133.13C17.65 133.05 17.61 132.95 17.61 132.84L17.61 124.4L14.15 124.4C13.93 124.4 13.75 124.22 13.75 123.99L13.75 122.68C13.75 122.45 13.93 122.27 14.15 122.27L23.28 122.27C23.5 122.27 23.68 122.45 23.68 122.68L23.68 123.99C23.68 124.22 23.5 124.4 23.28 124.4L19.82 124.4L19.82 132.84C19.82 132.95 19.78 133.05 19.7 133.13C19.63 133.21 19.52 133.25 19.42 133.25ZM12.82 132.45C13.34 131.92 13.55 131.24 13.55 130.11L13.55 129.82C13.55 128.69 13.34 128.01 12.82 127.47C12.27 126.91 11.55 126.68 10.32 126.68L5.85 126.68C5.67 126.68 5.5 126.6 5.38 126.47C5.25 126.34 5.18 126.17 5.18 125.98L5.18 125.1C5.18 124.71 5.48 124.4 5.85 124.4L12.25 124.4C12.47 124.4 12.65 124.22 12.65 123.99L12.65 122.68C12.65 122.45 12.47 122.27 12.25 122.27L6.23 122.27C5 122.27 4.27 122.5 3.72 123.07C3.21 123.6 3 124.28 3 125.41L3 125.64C3 126.77 3.21 127.45 3.72 127.98C4.27 128.55 5 128.78 6.23 128.78L10.71 128.78C11.08 128.78 11.38 129.09 11.38 129.47L11.38 130.42C11.38 130.8 11.08 131.11 10.71 131.11L3.98 131.11C3.75 131.11 3.57 131.3 3.57 131.53L3.57 132.84C3.57 132.95 3.62 133.05 3.69 133.13C3.77 133.21 3.87 133.25 3.98 133.25L10.32 133.25C11.55 133.25 12.27 133.02 12.82 132.45ZM44.74 127.73L44.74 127.8C44.74 129.92 44.42 131 43.5 131.95C42.66 132.83 41.4 133.26 39.75 133.26L34.88 133.26C34.66 133.26 34.48 133.08 34.48 132.85L34.48 122.68C34.48 122.45 34.66 122.27 34.88 122.27L39.75 122.27C41.4 122.27 42.66 122.71 43.5 123.58C44.42 124.53 44.74 125.61 44.74 127.73ZM42.53 127.73C42.53 126.32 42.44 125.64 41.91 125.09C41.47 124.64 40.77 124.42 39.75 124.42L36.7 124.42L36.7 131.11L39.75 131.11C40.77 131.11 41.47 130.89 41.91 130.44C42.44 129.89 42.53 129.21 42.53 127.8L42.53 127.73ZM48.33 132.84L48.33 122.68C48.33 122.45 48.15 122.27 47.93 122.27L46.52 122.27C46.3 122.27 46.12 122.45 46.12 122.68L46.12 132.84C46.12 133.06 46.3 133.25 46.52 133.25L47.93 133.25C48.04 133.25 48.14 133.21 48.22 133.13C48.29 133.05 48.34 132.95 48.34 132.84L48.33 132.84ZM33.19 133.25L31.69 133.25C31.48 133.25 31.29 133.12 31.21 132.93L30.52 131.39L24.98 131.39L24.29 132.93C24.21 133.12 24.02 133.25 23.81 133.25L22.31 133.25C22.17 133.25 22.04 133.18 21.97 133.06C21.9 132.93 21.89 132.78 21.95 132.66L26.48 122.91C26.72 122.41 27.21 122.09 27.75 122.09C28.29 122.09 28.78 122.41 29.02 122.91L33.55 132.65C33.61 132.78 33.6 132.93 33.53 133.06C33.45 133.18 33.33 133.25 33.19 133.25L33.19 133.25ZM25.89 129.36L29.62 129.36L27.76 124.97L25.89 129.36ZM60.59 133.25L59.1 133.25C58.89 133.25 58.7 133.12 58.61 132.93L57.93 131.39L52.39 131.39L51.7 132.93C51.61 133.12 51.42 133.25 51.22 133.25L49.72 133.25C49.58 133.25 49.45 133.18 49.38 133.06C49.3 132.93 49.29 132.78 49.35 132.66L53.89 122.91C54.12 122.41 54.61 122.09 55.15 122.09C55.69 122.09 56.19 122.41 56.42 122.91L60.95 132.65C61.02 132.78 61.01 132.93 60.93 133.06C60.86 133.18 60.73 133.25 60.59 133.25L60.59 133.25ZM53.29 129.36L57.02 129.36L55.16 124.97L53.29 129.36Z" fill="#FBF503" fill-opacity="1.000000" fill-rule="nonzero"/>
	</g>
	<rect id="Frame 13" rx="0.000000" width="61.000000" height="34.187801" transform="translate(0.500000 0.500000)" fill="#FFFFFF" fill-opacity="0"/>
	<path id="PC" d="M36.55 32.5C38.33 33.5 40.37 34 42.69 34L47.56 34C49.85 34 51.86 33.5 53.61 32.5Q54.68 31.87 55.56 31.03Q56.82 29.82 57.67 28.19C58.63 26.31 59.11 24.15 59.11 21.7L52.98 21.7C52.98 23.72 52.47 25.36 51.44 26.6C50.45 27.84 49.16 28.46 47.56 28.46L42.69 28.46C41.06 28.46 39.76 27.84 38.76 26.6Q38.74 26.57 38.72 26.54Q37.27 24.64 37.27 21.65L37.27 13.84Q37.27 10.93 38.68 9.1Q38.74 9.02 38.81 8.94Q39.51 8.07 40.42 7.6Q41.5 7.04 42.87 7.04L47.65 7.04Q49.02 7.04 50.08 7.61Q50.84 8.01 51.44 8.71C52.41 9.8 52.89 11.26 52.89 13.07L59.02 13.07Q59.02 9.62 57.58 7.04C56.65 5.28 55.32 3.92 53.61 2.95C51.89 1.98 49.91 1.5 47.65 1.5L42.87 1.5C40.52 1.5 38.45 2 36.64 3Q35.56 3.61 34.66 4.43Q33.37 5.62 32.49 7.26C31.53 9.08 31.05 11.18 31.05 13.57L31.05 21.92C31.05 24.31 31.53 26.43 32.49 28.28C33.45 30.09 34.81 31.5 36.55 32.5ZM19.16 1.86L2.51 1.86L2.51 33.63L8.74 33.63L8.74 23.6L18.8 23.6C20.73 23.6 22.41 23.24 23.86 22.51Q25.41 21.72 26.48 20.49Q26.92 19.97 27.28 19.38Q27.47 19.07 27.63 18.75Q28.5 16.94 28.5 14.71L28.5 10.49C28.5 8.79 28.11 7.29 27.33 5.99C26.55 4.66 25.45 3.65 24.04 2.95Q21.91 1.86 19.16 1.86ZM21.28 17.16C20.62 17.82 19.76 18.16 18.71 18.16L8.74 18.16L8.74 7.31L19.07 7.31C20.03 7.31 20.8 7.63 21.37 8.26Q21.51 8.4 21.63 8.56Q22.28 9.41 22.28 10.76L22.28 14.43Q22.28 15.72 21.69 16.64Q21.51 16.92 21.28 17.16Z" fill="#FBF503" fill-opacity="1.000000" fill-rule="evenodd"/>
	<rect id="Playstation logo" rx="0.000000" width="167.000000" height="34.187801" transform="translate(141.500000 91.500000)" fill="#FFFFFF" fill-opacity="0"/>
	<g clip-path="url(#clip17_35)">
		<rect id="Rectangle" x="140.690308" y="91.058105" width="168.626678" height="35.324333" fill="url(#pattern_17_360)" fill-opacity="1.000000"/>
		<path id="Vector" d="M305.16 120.7L305.48 120.7L305.48 118.55L306.26 118.55L306.26 118.27L304.38 118.27L304.38 118.55L305.16 118.55L305.16 120.7Z" fill="#FBF503" fill-opacity="1.000000" fill-rule="nonzero"/>
		<path id="Vector" d="M306.89 118.72L307.54 120.7L307.86 120.7L308.52 118.72L308.52 120.7L308.79 120.7L308.79 118.27L308.39 118.27L307.71 120.35L307.01 118.27L306.56 118.27L306.56 120.7L306.89 120.7L306.89 118.72Z" fill="#FBF503" fill-opacity="1.000000" fill-rule="nonzero"/>
		<path id="Vector" d="M253.02 114.87L253.02 104.8C253.02 102.75 253.98 101.28 256.01 101.28L268.55 101.28C268.63 101.28 268.7 101.2 268.7 101.13L268.7 99.13C268.7 99.11 268.7 99.09 268.69 99.07L253.35 99.07C250.03 99.5 248.41 101.83 248.41 104.8L248.41 114.87C248.41 116.92 247.43 118.39 245.42 118.39L232.17 118.39C232.1 118.39 232.02 118.44 232.02 118.54L232.02 120.55C232.02 120.63 232.07 120.69 232.13 120.72L247.17 120.72C251.09 120.61 253.02 118.1 253.02 114.87Z" fill="#FBF503" fill-opacity="1.000000" fill-rule="nonzero"/>
		<path id="Vector" d="M201.49 120.72L205.9 120.72C205.96 120.69 206.01 120.63 206.01 120.55L206.01 114.13C206.01 112.08 207.16 110.66 208.84 110.66L226.98 110.66C231.07 110.66 233.05 108.13 233.05 104.8C233.05 101.83 231.43 99.5 228.11 99.07L201.41 99.07C201.4 99.09 201.39 99.1 201.39 99.13L201.39 101.13C201.39 101.23 201.44 101.28 201.54 101.28L225.45 101.28C227.48 101.28 228.44 102.75 228.44 104.8C228.44 106.86 227.48 108.33 225.45 108.33L206.53 108.33C203.6 108.33 201.39 110.84 201.39 114.13L201.39 120.55C201.39 120.63 201.43 120.69 201.49 120.72Z" fill="#FBF503" fill-opacity="1.000000" fill-rule="nonzero"/>
		<path id="Vector" d="M268.63 118.39L292.71 118.39C292.79 118.39 292.84 118.44 292.84 118.49L292.84 120.55C292.84 120.65 292.91 120.7 292.99 120.7L297.33 120.7C297.41 120.7 297.48 120.65 297.48 120.55L297.48 118.55C297.48 118.47 297.56 118.39 297.63 118.39L301.94 118.39C302.04 118.39 302.1 118.32 302.1 118.24L302.1 116.21C302.1 116.14 302.04 116.06 301.94 116.06L297.63 116.06C297.56 116.06 297.48 115.98 297.48 115.91L297.48 101.28C297.48 100.09 297.04 99.33 296.3 99.07L295.04 99.07C294.65 99.18 294.22 99.36 293.77 99.63L267.82 115.73C266.82 116.36 266.47 117.07 266.72 117.61C266.92 118.06 267.5 118.39 268.63 118.39ZM272.39 115.71L292.49 103.21C292.61 103.11 292.86 103.13 292.86 103.41L292.86 115.91C292.86 115.99 292.79 116.06 292.71 116.06L272.51 116.06C272.34 116.06 272.26 116.01 272.24 115.96C272.21 115.86 272.26 115.78 272.39 115.71Z" fill="#FBF503" fill-opacity="1.000000" fill-rule="nonzero"/>
		<path id="Vector" d="M157.82 91C159.78 91.36 161.7 91.89 163.62 92.43C164.71 92.75 165.8 93.08 166.89 93.43C168.59 93.98 170.29 94.6 171.83 95.52C172.53 95.94 173.19 96.42 173.76 97C174.37 97.6 174.88 98.32 175.24 99.1C175.92 100.51 176.15 102.09 176.22 103.64C176.25 104.66 176.25 105.68 176.06 106.68C175.9 107.55 175.62 108.4 175.16 109.16C174.75 109.82 174.19 110.4 173.5 110.77C172.84 111.13 172.08 111.3 171.33 111.28C170.19 111.3 169.09 110.93 168.07 110.45C168.05 107.05 168.07 103.64 168.06 100.23C168.06 99.61 168.1 98.99 167.97 98.38C167.89 97.91 167.7 97.43 167.33 97.11C167.08 96.89 166.77 96.77 166.45 96.7C166.13 96.64 165.78 96.77 165.59 97.03C165.25 97.45 165.17 98 165.15 98.52C165.15 107.65 165.16 116.77 165.15 125.9C162.71 125.12 160.26 124.34 157.82 123.56C157.82 112.71 157.82 101.85 157.82 91Z" fill="#FBF503" fill-opacity="1.000000" fill-rule="nonzero"/>
		<path id="Vector" d="M146.84 114.09C150.03 112.96 153.21 111.81 156.39 110.68C156.4 111.94 156.39 113.2 156.4 114.46C156.39 114.63 156.41 114.8 156.38 114.97C153.87 115.86 151.35 116.78 148.84 117.68C148.49 117.81 148.13 117.96 147.86 118.23C147.74 118.36 147.63 118.54 147.7 118.72C147.79 118.93 148 119.05 148.2 119.14C148.75 119.36 149.36 119.39 149.95 119.42C150.6 119.41 151.26 119.36 151.9 119.22C152.34 119.13 152.75 118.99 153.17 118.83C154.24 118.44 155.32 118.04 156.39 117.66C156.4 118.72 156.39 119.78 156.4 120.85C156.39 121.06 156.41 121.28 156.39 121.49C155.06 121.73 153.72 121.89 152.38 121.91C149.67 121.97 146.96 121.55 144.39 120.7C143.55 120.45 142.71 120.13 142.01 119.59C141.62 119.29 141.27 118.91 141.1 118.44C140.95 118.05 140.96 117.59 141.14 117.21C141.32 116.83 141.63 116.53 141.97 116.29C142.76 115.75 143.63 115.33 144.52 114.96C145.28 114.63 146.07 114.38 146.84 114.09Z" fill="#FBF503" fill-opacity="1.000000" fill-rule="nonzero"/>
		<path id="Vector" d="M172.47 112.66C173.19 112.58 173.92 112.56 174.64 112.53C177.03 112.54 179.43 112.84 181.72 113.56C182.16 113.7 182.6 113.87 183.05 114.02C183.84 114.31 184.64 114.66 185.28 115.24C185.66 115.59 185.99 116.06 185.99 116.6C186.02 117.04 185.82 117.46 185.53 117.79C184.99 118.4 184.28 118.81 183.56 119.18C182.8 119.57 181.98 119.82 181.18 120.12C176.3 121.88 171.42 123.64 166.54 125.41C166.54 124.03 166.54 122.66 166.54 121.29C166.55 121.23 166.52 121.13 166.59 121.12C170.31 119.79 174.02 118.46 177.73 117.13C178.24 116.94 178.78 116.8 179.2 116.46C179.38 116.32 179.55 116.1 179.46 115.87C179.37 115.66 179.16 115.55 178.96 115.46C178.41 115.24 177.8 115.2 177.21 115.18C176.29 115.19 175.35 115.3 174.47 115.6C171.83 116.53 169.19 117.47 166.54 118.4C166.54 116.93 166.54 115.45 166.54 113.98C168.45 113.3 170.45 112.89 172.47 112.66Z" fill="#FBF503" fill-opacity="1.000000" fill-rule="nonzero"/>
		<path id="Vector" d="M183.32 122.83C183.89 122.75 184.5 123.01 184.84 123.48C185.22 123.97 185.29 124.67 185.02 125.23C184.75 125.8 184.14 126.2 183.5 126.18C182.91 126.2 182.35 125.85 182.06 125.34C181.8 124.9 181.76 124.32 181.97 123.85C182.19 123.29 182.73 122.89 183.32 122.83ZM183.19 123.14C182.87 123.21 182.57 123.41 182.38 123.68C182.15 124 182.06 124.42 182.15 124.8C182.22 125.16 182.45 125.48 182.75 125.68C183.22 125.99 183.88 125.97 184.33 125.63C184.79 125.3 185.01 124.67 184.85 124.13C184.75 123.76 184.49 123.44 184.16 123.26C183.87 123.1 183.51 123.06 183.19 123.14Z" fill="#FBF503" fill-opacity="1.000000" fill-rule="nonzero"/>
		<path id="Vector" d="M182.79 123.53C183.09 123.53 183.39 123.53 183.7 123.53C183.87 123.53 184.05 123.57 184.17 123.7C184.3 123.84 184.31 124.04 184.27 124.22C184.25 124.33 184.15 124.4 184.08 124.48C184.14 124.53 184.22 124.59 184.24 124.68C184.27 124.85 184.24 125.04 184.29 125.21C184.33 125.27 184.36 125.33 184.37 125.4C184.24 125.4 184.12 125.4 183.99 125.4C183.91 125.2 183.97 124.98 183.92 124.78C183.9 124.69 183.81 124.64 183.73 124.64C183.53 124.63 183.32 124.64 183.12 124.64C183.12 124.89 183.13 125.15 183.11 125.4C183.01 125.4 182.9 125.4 182.79 125.4C182.79 124.78 182.79 124.16 182.79 123.53ZM183.12 123.83C183.12 124 183.12 124.17 183.12 124.35C183.3 124.35 183.48 124.35 183.67 124.35C183.76 124.35 183.86 124.33 183.92 124.25C183.98 124.15 183.98 124.02 183.92 123.92C183.88 123.84 183.78 123.84 183.7 123.83C183.5 123.82 183.31 123.83 183.12 123.83Z" fill="#FBF503" fill-opacity="1.000000" fill-rule="nonzero"/>
	</g>
	<rect id="xbox-one-3 logo" rx="0.000000" width="177.000000" height="34.187801" transform="translate(141.500000 0.785156)" fill="#FFFFFF" fill-opacity="0"/>
	<g clip-path="url(#clip15_59)">
		<path id="Vector" d="M254.88 28.71L248.08 19.55L241.29 28.71L238.5 28.71L246.67 17.65L239.21 7.6L242 7.6L248.08 15.79L254.16 7.6L256.95 7.6L249.5 17.65L257.67 28.71L254.88 28.71ZM201.93 28.7L193.75 17.65L201.21 7.6L198.42 7.6L192.34 15.8L186.26 7.6L183.47 7.6L190.93 17.65L182.75 28.7L185.55 28.7L192.34 19.55L199.13 28.7L201.93 28.7Z" fill="#FBF503" fill-opacity="1.000000" fill-rule="nonzero"/>
		<path id="Vector" d="M217.48 18.45C217.06 18.09 216.59 17.79 216.08 17.57C216.86 17.16 217.5 16.55 217.95 15.8C218.41 15.06 218.64 14.21 218.64 13.34C218.64 11.99 218.14 7.6 211.73 7.6L203.09 7.6L203.09 16.7L200.22 16.7C199.84 17.18 199 18.34 198.67 18.81L203.09 18.81L203.09 28.7L211.73 28.7C216.41 28.7 219.32 26.35 219.32 22.54C219.32 20.88 218.68 19.47 217.48 18.45ZM205.48 9.8L211.73 9.8C213.42 9.8 216.25 10.22 216.25 13.15C216.25 15.37 214.6 16.7 211.73 16.7L205.48 16.7L205.48 9.8ZM211.73 26.5L205.48 26.5L205.48 18.82L211.73 18.82C214.1 18.82 216.93 19.47 216.93 22.5C216.93 25.98 213.67 26.5 211.73 26.5ZM230.55 7.11C224.58 7.11 220.4 11.65 220.4 18.14C220.4 24.64 224.58 29.17 230.55 29.17C236.52 29.17 240.68 24.64 240.68 18.14C240.68 11.65 236.52 7.11 230.55 7.11ZM230.55 26.94C226 26.94 222.81 23.32 222.81 18.14C222.81 12.96 226 9.34 230.55 9.34C235.09 9.34 238.27 12.96 238.27 18.14C238.27 23.32 235.09 26.94 230.55 26.94ZM146.29 5.34L146.28 5.35L146.28 5.36C144.6 6.99 143.27 8.94 142.37 11.09C141.46 13.24 141 15.54 141 17.87C141 21.73 142.27 25.47 144.63 28.53C144.65 28.56 144.69 28.58 144.72 28.56C144.75 28.54 144.75 28.5 144.74 28.47C143.39 24.32 150.3 14.27 153.87 10.06C153.88 10.04 153.89 10.03 153.89 10C153.89 9.98 153.88 9.96 153.86 9.95C147.86 4.02 146.25 5.37 146.28 5.35L146.29 5.34ZM171.17 5.34L171.19 5.35L171.19 5.36C172.86 6.99 174.19 8.94 175.09 11.09C176 13.24 176.46 15.54 176.46 17.87C176.46 21.73 175.19 25.47 172.83 28.53C172.81 28.56 172.77 28.58 172.74 28.56C172.71 28.54 172.71 28.5 172.72 28.47C174.07 24.32 167.17 14.26 163.6 10.05C163.59 10.03 163.57 10.02 163.57 10C163.57 9.97 163.59 9.95 163.61 9.94C169.61 4.01 171.2 5.37 171.18 5.35L171.17 5.34ZM158.73 0.28C162.31 0.28 165.25 1.25 167.96 2.86C168 2.87 168.01 2.91 167.99 2.94C167.98 2.97 167.94 2.98 167.91 2.97C164.48 2.24 159.26 5.18 158.77 5.47C158.76 5.48 158.75 5.49 158.73 5.49C158.71 5.49 158.7 5.48 158.69 5.47C157.38 4.73 152.56 2.22 149.52 2.99C149.49 3 149.45 2.99 149.44 2.96C149.43 2.94 149.43 2.93 149.44 2.91C149.44 2.89 149.45 2.88 149.47 2.87C152.18 1.25 155.16 0.28 158.73 0.28ZM158.73 14.39C158.75 14.39 158.77 14.41 158.79 14.42C164.09 18.42 173.17 28.32 170.4 31.12L170.4 31.11L170.4 31.12L170.4 31.12C167.17 33.93 163.02 35.48 158.73 35.47C154.43 35.48 150.28 33.93 147.06 31.12L147.05 31.11L147.06 31.12C144.29 28.32 153.37 18.42 158.67 14.42C158.68 14.41 158.71 14.39 158.73 14.39ZM298.94 7.6L298.94 24.92L286.09 7.59L283.98 7.58L283.98 28.67L286.35 28.67L286.35 11.73L298.94 28.68L301.31 28.69L301.31 7.6L298.94 7.6ZM271.69 7.11C265.71 7.11 261.54 11.64 261.54 18.13C261.54 24.64 265.71 29.17 271.69 29.17C277.66 29.17 281.82 24.64 281.82 18.13C281.82 11.65 277.66 7.11 271.69 7.11ZM271.69 26.94C267.14 26.94 263.95 23.32 263.95 18.13C263.95 12.96 267.14 9.34 271.69 9.34C276.23 9.34 279.4 12.96 279.4 18.13C279.4 23.32 276.23 26.94 271.69 26.94ZM306.35 26.62L306.35 18.82L318.05 18.82L318.05 16.75L306.35 16.75L306.35 9.65L318.85 9.65L318.85 7.58L303.97 7.58L303.97 28.69L318.99 28.69L318.99 26.62L306.35 26.62Z" fill="#FBF503" fill-opacity="1.000000" fill-rule="nonzero"/>
	</g>
</svg>
