<svg width="132.000000" height="132.000000" viewBox="0 0 132 132" fill="none" xmlns="http://www.w3.org/2000/svg" xmlns:xlink="http://www.w3.org/1999/xlink">
	<desc>
			Created with Pixso.
	</desc>
	<defs/>
	<path d="M117.36 48.46L119.4 25.26L97.74 20.11L86.4 0L66 9.17L45.6 0L34.25 20.05L12.6 25.14L14.64 48.39L0 66L14.64 83.53L12.6 106.79L34.25 111.94L45.6 132L66 122.76L86.4 131.93L97.74 111.88L119.4 106.73L117.36 83.53L132 66L117.36 48.46ZM126.78 66L113.23 49.75L113.37 48.11L115.11 28.36L95.11 23.6L84.7 5.14L66 13.56L47.28 5.14L36.87 23.54L16.88 28.24L18.76 49.69L5.2 65.99L18.76 82.24L16.88 103.7L36.88 108.46L47.28 126.84L65.99 118.37L84.71 126.79L95.11 108.39L115.11 103.64L113.23 82.24L126.78 66Z" fill="#F8F200" fill-opacity="1.000000" fill-rule="evenodd"/>
	<path d="M48.4 84.17L54.23 90.01L47.82 96.41Q46.38 97.86 44.93 97.87Q43.43 97.88 41.93 96.37Q40.52 94.97 40.51 93.56Q40.49 92.08 41.99 90.58L46.06 86.51L46.04 86.49Q45.48 85.92 44.91 85.92Q44.32 85.91 43.73 86.51L38.32 91.92L35.99 89.58L41.39 84.17Q43.14 82.42 44.89 82.42Q46.64 82.42 48.4 84.17ZM62.67 81.57L66 78.24L56.56 78.34L56.67 68.9L53.36 72.21L53.17 79.4L52 80.57L48.5 77.07L46.17 79.4L55.5 88.74L57.83 86.4L54.33 82.9L55.5 81.74L62.67 81.57ZM71.31 68.26L64.31 61.26L66.65 58.92L73.65 65.92L74.92 64.65L79.59 69.32L77.15 71.76L74.81 69.42L70.15 74.09Q68.4 75.84 66.65 75.84Q64.9 75.84 63.15 74.09L57.31 68.26L59.65 65.92L65.48 71.76C66.26 72.53 67.04 72.53 67.81 71.76L71.31 68.26ZM84.9 59.34L87.23 57.01L77.9 47.67L75.56 50.01L80.55 54.99C81.06 57.06 80.63 58.97 79.27 60.72C78.48 61.48 77.7 61.48 76.94 60.72L70.9 54.67L68.56 57.01L74.61 63.05C76.94 65.39 79.27 65.39 81.61 63.05Q83.3 61.36 83.9 58.34L84.9 59.34ZM80.64 46.37Q80.63 47.86 82.14 49.37C84.05 51.28 85.98 51.26 87.93 49.31L88.5 55.73L91.54 52.7L90.96 46.27L92 45.23L95.5 48.73L97.84 46.4L88.5 37.07L82.1 43.47Q80.65 44.92 80.64 46.37ZM84.43 45.81L88.5 41.73L89.67 42.9L85.6 46.97Q85.27 47.3 84.95 47.29Q84.71 47.27 84.47 47.04Q84.13 46.7 84.14 46.37Q84.15 46.08 84.43 45.81ZM44.02 93.52Q44.02 93.81 44.3 94.08C44.7 94.48 45.09 94.48 45.49 94.08L49.56 90.01L48.4 88.84L44.32 92.91Q44.01 93.22 44.02 93.52Z" fill="#F8F200" fill-opacity="1.000000" fill-rule="evenodd"/>
</svg>
